<?xml version="1.0" encoding="utf-8"?>
<!-- Generator: Adobe Illustrator 19.2.1, SVG Export Plug-In . SVG Version: 6.00 Build 0)  -->
<svg version="1.1" id="Layer_1" xmlns="http://www.w3.org/2000/svg" xmlns:xlink="http://www.w3.org/1999/xlink" x="0px" y="0px"
	 viewBox="0 0 1000 1000" style="enable-background:new 0 0 1000 1000;" xml:space="preserve">
<metadata><?xpacket begin="﻿" id="W5M0MpCehiHzreSzNTczkc9d"?>
<x:xmpmeta xmlns:x="adobe:ns:meta/" x:xmptk="Adobe XMP Core 5.6-c111 79.158366, 2015/09/25-01:12:00        ">
   <rdf:RDF xmlns:rdf="http://www.w3.org/1999/02/22-rdf-syntax-ns#">
      <rdf:Description rdf:about=""
            xmlns:ExtensisFontSense="http://www.extensis.com/meta/FontSense/">
         <ExtensisFontSense:slug>
            <rdf:Bag>
               <rdf:li>
                  <rdf:Description>
                     <ExtensisFontSense:Family>Big Caslon</ExtensisFontSense:Family>
                     <ExtensisFontSense:Version>10.0</ExtensisFontSense:Version>
                     <ExtensisFontSense:OutlineFileSize>0</ExtensisFontSense:OutlineFileSize>
                     <ExtensisFontSense:KerningChecksum>0</ExtensisFontSense:KerningChecksum>
                     <ExtensisFontSense:Foundry>--</ExtensisFontSense:Foundry>
                     <ExtensisFontSense:FontKind>TrueType</ExtensisFontSense:FontKind>
                     <ExtensisFontSense:Checksum>4068057449</ExtensisFontSense:Checksum>
                     <ExtensisFontSense:PostScriptName>BigCaslon-Medium</ExtensisFontSense:PostScriptName>
                     <ExtensisFontSense:FontSense_1.2_Checksum>4068057449</ExtensisFontSense:FontSense_1.2_Checksum>
                  </rdf:Description>
               </rdf:li>
            </rdf:Bag>
         </ExtensisFontSense:slug>
      </rdf:Description>
   </rdf:RDF>
</x:xmpmeta>
                                                                                                    
                                                                                                    
                                                                                                    
                                                                                                    
                                                                                                    
                                                                                                    
                                                                                                    
                                                                                                    
                                                                                                    
                                                                                                    
                                                                                                    
                                                                                                    
                                                                                                    
                                                                                                    
                                                                                                    
                                                                                                    
                                                                                                    
                                                                                                    
                                                                                                    
                                                                                                    
                           
<?xpacket end="w"?></metadata>
<style type="text/css">
	.st0{fill:#FFFFFF;}
	.st1{font-family:'BigCaslon-Medium';}
	.st2{font-size:9.7px;}
	.st3{font-size:15px;}
</style>
<g>
	<g>
		<g>
			<g>
				<g>
					<g>
						<path class="st0" d="M58.2,65.2c-0.4,0-0.8-0.3-0.9-0.7c0-0.2,0-0.4,0.1-0.6c0.1-0.2,0.3-0.3,0.5-0.3c0.3-0.1,0.7,0.1,0.8,0.5
							c0,0.1,0,0.2-0.1,0.2c-0.1,0-0.2,0-0.2-0.1c0-0.2-0.2-0.3-0.4-0.2c-0.1,0-0.2,0.1-0.3,0.2c-0.1,0.1-0.1,0.2-0.1,0.3
							c0.1,0.3,0.4,0.5,0.7,0.4c0.4-0.1,0.7-0.5,0.6-0.9c-0.1-0.3-0.2-0.5-0.5-0.7c0,0-0.5-0.4-1.9-0.5c-0.1,0-0.1-0.1-0.1-0.2
							c0-0.1,0.1-0.1,0.2-0.1c1.5,0.1,2,0.5,2.1,0.6c0.3,0.2,0.5,0.5,0.6,0.9c0.1,0.6-0.2,1.2-0.8,1.3
							C58.3,65.2,58.3,65.2,58.2,65.2z"/>
						<g>
							<path class="st0" d="M53.8,67.8C53.8,67.8,53.8,67.8,53.8,67.8c-2.8-2.2-3.1-3.7-3.2-3.7c-0.2-0.4-0.1-0.9,0.1-1.4
								c0.2-0.3,0.5-0.5,0.8-0.7c0.4-0.1,0.7-0.1,1,0.1c0.3,0.1,0.5,0.4,0.5,0.7c0.1,0.3,0,0.6-0.1,0.8c-0.1,0.2-0.3,0.4-0.5,0.4
								c-0.2,0.1-0.5,0-0.7-0.1c-0.4-0.2-0.5-0.7-0.3-1c0-0.1,0.1-0.1,0.2-0.1c0.1,0,0.1,0.1,0.1,0.2c-0.1,0.2,0,0.5,0.2,0.6
								c0.3,0.2,0.7,0,0.9-0.2c0.1-0.2,0.1-0.4,0.1-0.6c-0.1-0.2-0.2-0.4-0.4-0.5c-0.2-0.1-0.5-0.2-0.8-0.1
								c-0.3,0.1-0.5,0.3-0.6,0.5c-0.2,0.4-0.2,0.8-0.1,1.1c0,0,0.3,1.5,3,3.5c0.1,0,0.1,0.2,0,0.2C53.9,67.8,53.9,67.8,53.8,67.8z"
								/>
							<path class="st0" d="M52,69.9c-0.8,0-1.2-0.1-1.2-0.1c-0.6-0.1-1.1-0.5-1.5-1c-0.2-0.4-0.3-0.9-0.2-1.3
								c0.1-0.5,0.4-0.8,0.8-1.1c0.3-0.2,0.7-0.2,1.1-0.2s0.7,0.3,0.9,0.7c0.3,0.6,0.1,1.3-0.4,1.6c-0.5,0.3-1.1,0.1-1.3-0.4
								c0-0.1,0-0.2,0-0.2c0.1,0,0.2,0,0.2,0c0.2,0.3,0.6,0.4,0.9,0.2c0.4-0.2,0.6-0.8,0.3-1.2c-0.2-0.3-0.4-0.5-0.7-0.5
								c-0.3-0.1-0.6,0-0.9,0.1c-0.3,0.2-0.6,0.5-0.7,0.9c-0.1,0.4,0,0.8,0.2,1.1c0.3,0.5,0.7,0.8,1.3,0.9c0,0,1.2,0.4,3.7-0.2
								c0.1,0,0.2,0,0.2,0.1c0,0.1,0,0.2-0.1,0.2C53.5,69.8,52.6,69.9,52,69.9z"/>
							<path class="st0" d="M53.8,64c-0.1,0-0.1,0-0.1-0.1c0-0.1,0-0.2,0.1-0.2c3.2-1,4-2.2,4-2.2c0.3-0.3,0.4-0.7,0.3-1.1
								c-0.1-0.6-0.6-1-1.2-0.9c-0.4,0.1-0.8,0.5-0.7,0.9c0,0.3,0.4,0.6,0.7,0.5c0.3,0,0.4-0.3,0.4-0.5c0-0.1,0-0.2,0.1-0.2
								c0.1,0,0.2,0,0.2,0.1c0.1,0.4-0.2,0.8-0.7,0.9c-0.5,0.1-1-0.3-1-0.8c-0.1-0.6,0.3-1.2,1-1.3c0.7-0.1,1.4,0.4,1.5,1.2
								c0.1,0.5-0.1,1-0.4,1.3C57.9,61.6,57.1,62.9,53.8,64C53.8,64,53.8,64,53.8,64z"/>
							<path class="st0" d="M50.1,65.1c-0.6,0-0.8-0.1-0.8-0.1c-0.4-0.1-0.8-0.3-1-0.7c-0.3-0.6-0.1-1.3,0.5-1.6
								c0.5-0.3,1.1-0.1,1.3,0.4c0.2,0.4,0.1,0.9-0.3,1.1c-0.3,0.2-0.8,0.1-0.9-0.3c0-0.1,0-0.2,0.1-0.2c0.1,0,0.2,0,0.2,0.1
								c0.1,0.2,0.3,0.2,0.5,0.1c0.2-0.1,0.3-0.5,0.2-0.7c-0.2-0.3-0.6-0.4-0.9-0.3c-0.4,0.2-0.6,0.8-0.3,1.2
								c0.2,0.3,0.5,0.5,0.8,0.6c0,0,0.6,0.2,1.7,0c0.1,0,0.2,0,0.2,0.1c0,0.1,0,0.2-0.1,0.2C50.7,65,50.4,65.1,50.1,65.1z"/>
							<path class="st0" d="M51.2,62.6c-0.1,0-0.1,0-0.1-0.1c-0.3-1.2-0.2-1.8-0.2-1.8c0-0.4,0.3-0.8,0.6-1c0.3-0.2,0.6-0.3,0.9-0.2
								c0.3,0,0.6,0.2,0.8,0.5c0.3,0.4,0.2,1.1-0.2,1.4c-0.4,0.3-0.9,0.2-1.2-0.2c-0.2-0.3-0.1-0.7,0.2-1c0.1-0.1,0.2,0,0.2,0
								c0,0.1,0,0.2,0,0.2c-0.2,0.1-0.2,0.4-0.1,0.5c0.2,0.2,0.5,0.3,0.7,0.1c0.3-0.2,0.4-0.6,0.2-1c-0.1-0.2-0.3-0.3-0.6-0.4
								c-0.2,0-0.5,0-0.7,0.2c-0.3,0.2-0.4,0.5-0.5,0.8c0,0-0.1,0.6,0.2,1.7C51.4,62.5,51.3,62.6,51.2,62.6
								C51.2,62.6,51.2,62.6,51.2,62.6z"/>
						</g>
					</g>
				</g>
				<g>
					<path class="st0" d="M55.4,69.8c-2.3-2.3-2.3-6,0-8.3c0.1-0.1,0.1-0.2,0-0.3c-0.1-0.1-0.2-0.1-0.3,0c-2.5,2.5-2.5,6.5,0,9
						c1.2,1.2,2.9,1.8,4.5,1.8c0.9,0,1.8-0.2,2.6-0.6v-0.5C60,72,57.2,71.6,55.4,69.8z"/>
				</g>
			</g>
			<g>
				<g>
					<g>
						<path class="st0" d="M58.1,73.8c0.4,0,0.8,0.2,0.9,0.6c0.1,0.2,0,0.4-0.1,0.6c-0.1,0.2-0.2,0.3-0.5,0.4
							c-0.3,0.1-0.7-0.1-0.8-0.4c0-0.1,0-0.2,0.1-0.2c0.1,0,0.2,0,0.2,0.1c0,0.2,0.2,0.3,0.4,0.2c0.1,0,0.2-0.1,0.3-0.2
							s0.1-0.2,0-0.3c-0.1-0.3-0.4-0.5-0.7-0.4c-0.4,0.1-0.6,0.6-0.5,1c0.1,0.3,0.3,0.5,0.6,0.6c0,0,0.6,0.4,1.9,0.4
							c0.1,0,0.2,0.1,0.2,0.2c0,0.1-0.1,0.2-0.2,0.2c-1.5,0-2.1-0.4-2.1-0.4c-0.3-0.2-0.6-0.5-0.7-0.8c-0.2-0.6,0.2-1.2,0.7-1.3
							C58,73.9,58.1,73.8,58.1,73.8z"/>
						<g>
							<path class="st0" d="M62.3,71C62.3,71,62.4,71,62.3,71c2.9,2,3.4,3.5,3.4,3.5c0.2,0.4,0.2,0.9,0,1.4
								c-0.2,0.3-0.4,0.6-0.8,0.7c-0.3,0.1-0.7,0.1-1-0.1c-0.3-0.1-0.5-0.3-0.6-0.6c-0.1-0.3-0.1-0.6,0-0.9c0.1-0.2,0.3-0.4,0.5-0.5
								c0.2-0.1,0.5-0.1,0.7,0c0.4,0.2,0.5,0.6,0.4,1c0,0.1-0.1,0.1-0.2,0.1c-0.1,0-0.1-0.1-0.1-0.2c0.1-0.2,0-0.5-0.2-0.6
								c-0.3-0.1-0.7,0-0.8,0.3c-0.1,0.2-0.1,0.4,0,0.6c0.1,0.2,0.2,0.4,0.4,0.5c0.3,0.1,0.5,0.1,0.8,0c0.3-0.1,0.5-0.3,0.6-0.5
								c0.2-0.4,0.2-0.8,0-1.1c0,0-0.4-1.4-3.2-3.3c-0.1-0.1-0.1-0.1,0-0.2C62.2,71,62.2,71,62.3,71z"/>
							<path class="st0" d="M64,68.8c0.8-0.1,1.2,0.1,1.3,0.1c0.6,0.1,1.2,0.4,1.5,0.9c0.3,0.4,0.4,0.9,0.3,1.3
								c-0.1,0.5-0.4,0.9-0.8,1.1c-0.3,0.2-0.7,0.3-1.1,0.2c-0.4-0.1-0.7-0.3-0.9-0.6c-0.4-0.6-0.2-1.3,0.3-1.7
								c0.5-0.3,1.1-0.2,1.4,0.3c0.1,0.1,0,0.2,0,0.2c-0.1,0.1-0.2,0-0.2,0c-0.2-0.3-0.6-0.4-0.9-0.2c-0.4,0.3-0.5,0.8-0.2,1.2
								c0.2,0.3,0.4,0.4,0.7,0.5c0.3,0.1,0.6,0,0.9-0.2c0.3-0.2,0.6-0.6,0.6-0.9c0.1-0.4,0-0.8-0.2-1.1c-0.3-0.4-0.8-0.8-1.3-0.8
								c0,0-1.2-0.3-3.7,0.4c-0.1,0-0.2,0-0.2-0.1c0-0.1,0-0.2,0.1-0.2C62.5,68.9,63.4,68.8,64,68.8z"/>
							<path class="st0" d="M62.6,74.8c0.1,0,0.1,0,0.1,0.1c0,0.1,0,0.2-0.1,0.2c-3.1,1.2-3.8,2.5-3.8,2.5c-0.2,0.3-0.3,0.7-0.3,1.1
								c0.1,0.6,0.7,0.9,1.3,0.8c0.4-0.1,0.7-0.5,0.6-1c-0.1-0.3-0.4-0.6-0.7-0.5c-0.3,0.1-0.4,0.3-0.4,0.6c0,0.1,0,0.2-0.1,0.2
								c-0.1,0-0.2,0-0.2-0.1c-0.1-0.4,0.2-0.8,0.6-0.9c0.5-0.1,1,0.2,1.1,0.7c0.1,0.6-0.3,1.2-0.9,1.3c-0.7,0.2-1.5-0.3-1.6-1.1
								c-0.1-0.5,0-1,0.3-1.3C58.6,77.4,59.3,76.1,62.6,74.8C62.6,74.8,62.6,74.8,62.6,74.8z"/>
							<path class="st0" d="M66.2,73.5c0.6,0,0.8,0,0.8,0.1c0.4,0,0.8,0.3,1,0.6c0.4,0.6,0.2,1.3-0.3,1.7c-0.5,0.3-1.1,0.2-1.4-0.3
								c-0.2-0.4-0.1-0.9,0.2-1.1c0.3-0.2,0.7-0.1,0.9,0.2c0.1,0.1,0,0.2,0,0.2c-0.1,0.1-0.2,0-0.2,0c-0.1-0.2-0.4-0.2-0.5-0.1
								c-0.2,0.2-0.3,0.5-0.2,0.7c0.2,0.3,0.6,0.4,1,0.2c0.4-0.3,0.5-0.8,0.3-1.2c-0.2-0.3-0.5-0.5-0.8-0.5c0,0-0.6-0.1-1.7,0.1
								c-0.1,0-0.2,0-0.2-0.1c0-0.1,0-0.2,0.1-0.2C65.6,73.5,65.9,73.5,66.2,73.5z"/>
							<path class="st0" d="M65.2,76c0.1,0,0.1,0,0.2,0.1c0.4,1.2,0.3,1.8,0.3,1.8c0,0.4-0.2,0.8-0.5,1.1c-0.2,0.2-0.6,0.3-0.9,0.3
								s-0.6-0.2-0.8-0.4c-0.3-0.4-0.3-1,0.1-1.4c0.3-0.3,0.9-0.2,1.2,0.1c0.2,0.3,0.2,0.7-0.1,1c-0.1,0.1-0.2,0-0.2,0
								c0-0.1,0-0.2,0-0.2c0.2-0.1,0.2-0.4,0-0.6c-0.2-0.2-0.5-0.3-0.7-0.1c-0.3,0.2-0.3,0.7-0.1,1c0.2,0.2,0.4,0.3,0.6,0.3
								c0.2,0,0.5-0.1,0.7-0.2c0.3-0.2,0.4-0.5,0.4-0.9c0,0,0.1-0.6-0.3-1.7C65.1,76.1,65.1,76,65.2,76C65.2,76,65.2,76,65.2,76z"/>
						</g>
					</g>
				</g>
				<g>
					<path class="st0" d="M60.6,69.1c2.4,2.2,2.7,5.9,0.5,8.3c-0.1,0.1-0.1,0.2,0,0.3s0.2,0.1,0.3,0c2.3-2.6,2.1-6.6-0.6-8.9
						c-1.3-1.1-3-1.7-4.6-1.6c-0.9,0.1-1.8,0.3-2.6,0.7l0,0.5C55.9,67.2,58.7,67.4,60.6,69.1z"/>
				</g>
			</g>
		</g>
		<g>
			<g>
				<g>
					<g>
						<path class="st0" d="M78.4,73.9c-0.4,0-0.8,0.2-0.9,0.6c-0.1,0.2,0,0.4,0,0.6c0.1,0.2,0.2,0.3,0.4,0.4
							c0.3,0.1,0.7-0.1,0.8-0.4c0-0.1,0-0.2-0.1-0.2c-0.1,0-0.2,0-0.2,0.1c0,0.2-0.2,0.3-0.4,0.2c-0.1,0-0.2-0.1-0.3-0.2
							c-0.1-0.1-0.1-0.2,0-0.3c0.1-0.3,0.4-0.5,0.8-0.4c0.4,0.1,0.6,0.6,0.5,1c-0.1,0.3-0.3,0.5-0.6,0.6c0,0-0.6,0.3-1.9,0.3
							c-0.1,0-0.2,0.1-0.2,0.2s0.1,0.2,0.2,0.2c1.5,0,2.1-0.4,2.1-0.4c0.3-0.1,0.6-0.4,0.7-0.8c0.2-0.6-0.1-1.2-0.7-1.3
							C78.5,73.9,78.5,73.9,78.4,73.9z"/>
						<g>
							<path class="st0" d="M74.3,70.9C74.2,70.9,74.2,70.9,74.3,70.9c-3,1.9-3.4,3.4-3.4,3.4c-0.2,0.4-0.2,0.9,0,1.4
								c0.2,0.3,0.4,0.6,0.8,0.7c0.3,0.1,0.7,0.1,1.1,0c0.3-0.1,0.5-0.3,0.6-0.6c0.1-0.3,0.1-0.6,0-0.9c-0.1-0.2-0.3-0.4-0.5-0.5
								c-0.2-0.1-0.5-0.1-0.7,0c-0.4,0.2-0.6,0.6-0.4,1c0,0.1,0.1,0.1,0.2,0.1c0.1,0,0.1-0.1,0.1-0.2c-0.1-0.2,0-0.5,0.2-0.6
								c0.3-0.1,0.7,0,0.8,0.3c0.1,0.2,0.1,0.4,0,0.6c-0.1,0.2-0.2,0.4-0.4,0.5c-0.3,0.1-0.5,0.1-0.8,0c-0.3-0.1-0.5-0.3-0.6-0.6
								c-0.2-0.4-0.2-0.8,0-1.1c0,0,0.5-1.4,3.2-3.3c0.1,0,0.1-0.1,0-0.2C74.4,71,74.3,70.9,74.3,70.9z"/>
							<path class="st0" d="M72.6,68.7c-0.8-0.1-1.2,0-1.2,0c-0.6,0.1-1.2,0.4-1.5,0.9c-0.3,0.4-0.4,0.9-0.3,1.3
								c0.1,0.5,0.3,0.9,0.7,1.2c0.3,0.2,0.7,0.3,1.1,0.2c0.4-0.1,0.7-0.3,0.9-0.6c0.4-0.5,0.2-1.3-0.3-1.7
								c-0.5-0.3-1.1-0.2-1.4,0.2c-0.1,0.1,0,0.2,0,0.2c0.1,0.1,0.2,0,0.2,0c0.2-0.3,0.6-0.4,0.9-0.2c0.4,0.3,0.5,0.8,0.2,1.2
								c-0.2,0.2-0.4,0.4-0.7,0.5c-0.3,0-0.6,0-0.9-0.2c-0.3-0.2-0.5-0.6-0.6-1c-0.1-0.4,0-0.8,0.2-1.1c0.3-0.5,0.8-0.7,1.3-0.8
								c0,0,1.2-0.3,3.7,0.5c0.1,0,0.2,0,0.2-0.1c0-0.1,0-0.2-0.1-0.2C74.1,68.9,73.2,68.7,72.6,68.7z"/>
							<path class="st0" d="M73.9,74.8c-0.1,0-0.1,0-0.2,0.1c0,0.1,0,0.2,0.1,0.2c3.1,1.3,3.8,2.6,3.8,2.6c0.2,0.3,0.3,0.7,0.2,1.1
								c-0.1,0.6-0.7,0.9-1.3,0.8c-0.4-0.1-0.7-0.5-0.6-1c0.1-0.3,0.4-0.5,0.8-0.5c0.2,0.1,0.4,0.3,0.4,0.6c0,0.1,0,0.2,0.1,0.2
								c0.1,0,0.2,0,0.2-0.1c0.1-0.4-0.2-0.8-0.6-0.9c-0.5-0.1-1,0.2-1.1,0.7c-0.1,0.6,0.2,1.2,0.8,1.3c0.7,0.2,1.5-0.3,1.6-1
								c0.1-0.5,0-1-0.3-1.4C77.8,77.4,77.1,76.1,73.9,74.8C73.9,74.8,73.9,74.8,73.9,74.8z"/>
							<path class="st0" d="M70.3,73.4c-0.6-0.1-0.8,0-0.8,0c-0.4,0-0.8,0.3-1,0.6c-0.4,0.5-0.2,1.3,0.3,1.7
								c0.5,0.3,1.1,0.2,1.4-0.2c0.3-0.4,0.2-0.9-0.2-1.1c-0.3-0.2-0.7-0.1-1,0.2c-0.1,0.1,0,0.2,0,0.2c0.1,0.1,0.2,0,0.2,0
								c0.1-0.2,0.4-0.2,0.5-0.1c0.2,0.2,0.3,0.5,0.1,0.7c-0.2,0.3-0.7,0.4-1,0.2c-0.4-0.3-0.5-0.8-0.2-1.2c0.2-0.3,0.5-0.5,0.8-0.5
								c0,0,0.6-0.1,1.7,0.1c0.1,0,0.2,0,0.2-0.1c0-0.1,0-0.2-0.1-0.2C70.9,73.4,70.6,73.4,70.3,73.4z"/>
							<path class="st0" d="M71.2,75.9c-0.1,0-0.1,0-0.1,0.1c-0.4,1.2-0.3,1.8-0.3,1.8c0,0.4,0.2,0.8,0.5,1.1
								c0.2,0.2,0.5,0.3,0.9,0.3c0.3,0,0.6-0.2,0.8-0.4c0.3-0.4,0.3-1-0.1-1.4c-0.3-0.3-0.9-0.2-1.2,0.1c-0.2,0.3-0.2,0.7,0.1,1
								c0.1,0,0.2,0,0.2,0c0.1-0.1,0.1-0.2,0-0.2c-0.2-0.1-0.2-0.4,0-0.5c0.2-0.2,0.5-0.2,0.7-0.1c0.3,0.2,0.3,0.7,0.1,1
								c-0.2,0.2-0.4,0.3-0.6,0.3s-0.5-0.1-0.7-0.2c-0.3-0.2-0.4-0.5-0.4-0.9c0,0-0.1-0.6,0.3-1.7C71.4,76,71.3,75.9,71.2,75.9
								C71.2,75.9,71.2,75.9,71.2,75.9z"/>
						</g>
					</g>
				</g>
				<g>
					<path class="st0" d="M76,69.1c-2.5,2.1-2.8,5.8-0.7,8.3c0.1,0.1,0.1,0.2,0,0.3c-0.1,0.1-0.2,0.1-0.3,0C72.7,75,73,71,75.7,68.7
						c1.3-1.1,3-1.6,4.6-1.5c0.9,0.1,1.8,0.3,2.6,0.8l0,0.5C80.7,67.3,77.9,67.4,76,69.1z"/>
				</g>
			</g>
			<g>
				<g>
					<g>
						<path class="st0" d="M79,65.3c0.4,0.1,0.8-0.2,1-0.6c0.1-0.2,0.1-0.4,0-0.6c-0.1-0.2-0.2-0.3-0.4-0.4c-0.3-0.1-0.7,0-0.8,0.4
							c0,0.1,0,0.2,0.1,0.2c0.1,0,0.2,0,0.2-0.1c0.1-0.2,0.2-0.2,0.4-0.2c0.1,0,0.2,0.1,0.2,0.2c0.1,0.1,0.1,0.2,0,0.3
							c-0.1,0.3-0.5,0.5-0.8,0.3c-0.4-0.2-0.6-0.6-0.4-1c0.1-0.3,0.3-0.5,0.6-0.6c0,0,0.6-0.3,2-0.2c0.1,0,0.2-0.1,0.2-0.1
							c0-0.1-0.1-0.2-0.1-0.2C79.6,62.7,79,63,79,63c-0.3,0.1-0.6,0.4-0.8,0.8c-0.2,0.6,0.1,1.2,0.6,1.4C78.9,65.2,79,65.3,79,65.3z
							"/>
						<g>
							<path class="st0" d="M82.9,68.5C83,68.5,83,68.5,82.9,68.5c3.1-1.8,3.6-3.2,3.7-3.2c0.2-0.4,0.3-0.9,0.1-1.4
								c-0.1-0.3-0.4-0.6-0.7-0.8c-0.3-0.1-0.7-0.2-1,0c-0.3,0.1-0.5,0.3-0.6,0.6c-0.1,0.3-0.1,0.6,0,0.9c0.1,0.2,0.3,0.4,0.5,0.5
								c0.2,0.1,0.5,0.1,0.7,0c0.4-0.2,0.6-0.6,0.4-1c0-0.1-0.1-0.1-0.2-0.1c-0.1,0-0.1,0.1-0.1,0.2c0.1,0.2,0,0.5-0.3,0.6
								c-0.3,0.1-0.7-0.1-0.8-0.4c-0.1-0.2-0.1-0.4,0-0.6s0.3-0.3,0.5-0.4c0.3-0.1,0.6-0.1,0.8,0c0.3,0.1,0.5,0.3,0.6,0.6
								c0.1,0.4,0.1,0.8-0.1,1.1c0,0-0.5,1.4-3.4,3.1c-0.1,0-0.1,0.1,0,0.2C82.9,68.4,82.9,68.4,82.9,68.5z"/>
							<path class="st0" d="M84.5,70.8c0.8,0.1,1.2,0,1.2,0c0.6,0,1.2-0.3,1.6-0.8c0.3-0.4,0.4-0.8,0.4-1.3
								c-0.1-0.5-0.3-0.9-0.7-1.2c-0.3-0.2-0.7-0.3-1.1-0.3c-0.4,0-0.7,0.2-1,0.5c-0.4,0.5-0.3,1.3,0.2,1.7c0.4,0.3,1,0.3,1.4-0.2
								c0-0.1,0-0.2,0-0.2c-0.1,0-0.2,0-0.2,0c-0.2,0.3-0.7,0.3-1,0.1c-0.4-0.3-0.5-0.9-0.1-1.2c0.2-0.2,0.5-0.4,0.8-0.4
								c0.3,0,0.6,0,0.8,0.2c0.3,0.2,0.5,0.6,0.6,1c0,0.4-0.1,0.8-0.3,1.1c-0.3,0.4-0.9,0.7-1.4,0.7c0,0-1.2,0.2-3.6-0.7
								c-0.1,0-0.2,0-0.2,0.1c0,0.1,0,0.2,0.1,0.2C83,70.5,83.9,70.7,84.5,70.8z"/>
							<path class="st0" d="M83.6,64.7c0.1,0,0.1,0,0.2-0.1c0-0.1,0-0.2-0.1-0.2c-3-1.5-3.6-2.8-3.6-2.8c-0.2-0.4-0.3-0.8-0.2-1.1
								c0.2-0.6,0.8-0.9,1.3-0.7c0.4,0.1,0.7,0.6,0.6,1c-0.1,0.3-0.4,0.5-0.8,0.4c-0.2-0.1-0.4-0.3-0.3-0.6c0-0.1,0-0.2-0.1-0.2
								c-0.1,0-0.2,0-0.2,0.1c-0.1,0.4,0.1,0.8,0.5,1c0.5,0.1,1-0.1,1.1-0.6c0.2-0.6-0.2-1.2-0.8-1.4c-0.7-0.2-1.5,0.2-1.7,0.9
								c-0.1,0.5-0.1,1,0.2,1.4C79.8,61.8,80.4,63.1,83.6,64.7C83.6,64.7,83.6,64.7,83.6,64.7z"/>
							<path class="st0" d="M87,66.3c0.6,0.1,0.8,0,0.9,0c0.4,0,0.8-0.2,1-0.5c0.4-0.5,0.3-1.3-0.2-1.7c-0.4-0.3-1.1-0.3-1.4,0.2
								c-0.3,0.4-0.2,0.9,0.1,1.2c0.3,0.2,0.7,0.2,1-0.1c0-0.1,0-0.2,0-0.2c-0.1,0-0.2,0-0.2,0c-0.1,0.2-0.4,0.2-0.5,0.1
								c-0.2-0.2-0.3-0.5-0.1-0.7c0.2-0.3,0.7-0.4,1-0.1c0.4,0.3,0.5,0.9,0.2,1.3c-0.2,0.3-0.5,0.4-0.9,0.4c0,0-0.6,0.1-1.7-0.2
								c-0.1,0-0.2,0-0.2,0.1c0,0.1,0,0.2,0.1,0.2C86.5,66.2,86.8,66.2,87,66.3z"/>
							<path class="st0" d="M86.3,63.7c0.1,0,0.1,0,0.2-0.1c0.5-1.2,0.4-1.8,0.4-1.8c0-0.4-0.1-0.8-0.4-1.1
								c-0.2-0.2-0.5-0.3-0.8-0.3c-0.3,0-0.6,0.1-0.8,0.4c-0.4,0.4-0.4,1,0,1.4c0.3,0.3,0.8,0.3,1.2,0c0.3-0.3,0.3-0.7,0-1
								c-0.1-0.1-0.2-0.1-0.2,0s-0.1,0.2,0,0.2c0.2,0.1,0.2,0.4,0,0.5c-0.2,0.2-0.5,0.2-0.7,0c-0.3-0.3-0.3-0.7,0-1
								c0.2-0.2,0.4-0.3,0.6-0.3s0.5,0.1,0.6,0.2c0.2,0.2,0.4,0.6,0.3,0.9c0,0,0,0.6-0.4,1.7C86.1,63.6,86.2,63.7,86.3,63.7
								C86.3,63.7,86.3,63.7,86.3,63.7z"/>
						</g>
					</g>
				</g>
				<g>
					<path class="st0" d="M81.1,70.2c2.6-1.9,3.2-5.6,1.2-8.2c-0.1-0.1-0.1-0.2,0-0.3c0.1-0.1,0.2-0.1,0.3,0
						c2.1,2.8,1.5,6.8-1.3,8.9c-1.4,1-3.1,1.4-4.7,1.2c-0.9-0.1-1.8-0.5-2.5-1l0.1-0.5C76.3,71.7,79.1,71.8,81.1,70.2z"/>
				</g>
			</g>
		</g>
	</g>
	<g>
		<g>
			<g>
				<g>
					<g>
						<path class="st0" d="M58.2,53c-0.4,0-0.8,0.3-0.9,0.7c0,0.2,0,0.4,0.1,0.6c0.1,0.2,0.3,0.3,0.5,0.3c0.3,0.1,0.7-0.1,0.8-0.5
							c0-0.1,0-0.2-0.1-0.2c-0.1,0-0.2,0-0.2,0.1c0,0.2-0.2,0.3-0.4,0.2c-0.1,0-0.2-0.1-0.3-0.2c-0.1-0.1-0.1-0.2,0-0.3
							c0.1-0.3,0.4-0.5,0.7-0.4c0.4,0.1,0.7,0.5,0.6,1c-0.1,0.3-0.3,0.5-0.5,0.7c0,0-0.6,0.4-1.9,0.5c-0.1,0-0.1,0.1-0.1,0.2
							c0,0.1,0.1,0.1,0.2,0.1c1.5-0.1,2-0.5,2.1-0.5c0.3-0.2,0.6-0.5,0.7-0.8c0.1-0.6-0.2-1.2-0.8-1.3C58.4,53,58.3,53,58.2,53z"/>
						<g>
							<path class="st0" d="M53.9,50.3C53.9,50.3,53.9,50.3,53.9,50.3c-2.9,2.1-3.2,3.6-3.2,3.6c-0.2,0.4-0.1,0.9,0.1,1.4
								c0.2,0.3,0.5,0.6,0.8,0.7c0.3,0.1,0.7,0.1,1-0.1c0.3-0.1,0.5-0.4,0.5-0.7c0.1-0.3,0.1-0.6-0.1-0.9c-0.1-0.2-0.3-0.4-0.5-0.5
								c-0.2-0.1-0.5,0-0.7,0.1c-0.4,0.2-0.5,0.7-0.3,1c0,0.1,0.1,0.1,0.2,0.1c0.1,0,0.1-0.1,0.1-0.2c-0.1-0.2,0-0.5,0.2-0.6
								c0.3-0.2,0.7,0,0.9,0.3c0.1,0.2,0.1,0.4,0,0.6c-0.1,0.2-0.2,0.4-0.4,0.5c-0.2,0.1-0.5,0.2-0.8,0.1s-0.5-0.3-0.6-0.5
								c-0.2-0.3-0.2-0.8-0.1-1.1c0,0,0.4-1.5,3-3.5c0.1,0,0.1-0.1,0-0.2C54,50.3,54,50.3,53.9,50.3z"/>
							<path class="st0" d="M52.1,48.2c-0.8,0-1.2,0.1-1.2,0.1c-0.6,0.1-1.1,0.5-1.5,1c-0.2,0.4-0.3,0.9-0.2,1.3s0.4,0.8,0.8,1.1
								c0.3,0.2,0.7,0.3,1.1,0.2c0.4-0.1,0.7-0.3,0.9-0.7c0.3-0.6,0.2-1.3-0.4-1.6c-0.5-0.3-1.1-0.1-1.4,0.3c0,0.1,0,0.2,0.1,0.2
								c0.1,0,0.2,0,0.2-0.1c0.2-0.3,0.6-0.4,0.9-0.2c0.4,0.3,0.5,0.8,0.3,1.2c-0.2,0.3-0.4,0.5-0.7,0.5c-0.3,0.1-0.6,0-0.9-0.1
								c-0.3-0.2-0.6-0.5-0.7-0.9c-0.1-0.4,0-0.8,0.2-1.1c0.3-0.5,0.8-0.8,1.3-0.9c0,0,1.2-0.4,3.7,0.3c0.1,0,0.2,0,0.2-0.1
								c0-0.1,0-0.2-0.1-0.2C53.6,48.3,52.8,48.2,52.1,48.2z"/>
							<path class="st0" d="M53.8,54.2c-0.1,0-0.1,0-0.1,0.1c0,0.1,0,0.2,0.1,0.2c3.2,1.1,3.9,2.3,3.9,2.3c0.3,0.3,0.4,0.7,0.3,1.1
								c-0.1,0.6-0.7,1-1.2,0.9c-0.5-0.1-0.8-0.5-0.7-1c0.1-0.3,0.4-0.6,0.7-0.5c0.3,0,0.4,0.3,0.4,0.5c0,0.1,0,0.2,0.1,0.2
								c0.1,0,0.2,0,0.2-0.1c0.1-0.4-0.2-0.8-0.6-0.9c-0.5-0.1-1,0.3-1.1,0.8c-0.1,0.6,0.3,1.2,0.9,1.3c0.7,0.1,1.5-0.4,1.6-1.1
								c0.1-0.5,0-1-0.4-1.3C57.9,56.6,57.1,55.3,53.8,54.2C53.8,54.2,53.8,54.2,53.8,54.2z"/>
							<path class="st0" d="M50.2,53c-0.6,0-0.8,0.1-0.8,0.1c-0.4,0.1-0.8,0.3-1,0.7c-0.3,0.6-0.2,1.3,0.4,1.7
								c0.5,0.3,1.1,0.1,1.4-0.3c0.2-0.4,0.1-0.9-0.3-1.1c-0.3-0.2-0.8-0.1-0.9,0.2c0,0.1,0,0.2,0,0.2c0.1,0,0.2,0,0.2-0.1
								c0.1-0.2,0.3-0.2,0.5-0.1c0.2,0.2,0.3,0.5,0.2,0.7c-0.2,0.3-0.6,0.4-0.9,0.2c-0.4-0.3-0.6-0.8-0.3-1.2
								c0.2-0.3,0.5-0.5,0.8-0.5c0,0,0.6-0.2,1.7,0c0.1,0,0.2,0,0.2-0.1c0-0.1,0-0.2-0.1-0.2C50.7,53,50.4,53,50.2,53z"/>
							<path class="st0" d="M51.2,55.5c-0.1,0-0.1,0-0.2,0.1c-0.3,1.2-0.2,1.8-0.2,1.8c0,0.4,0.2,0.8,0.6,1c0.3,0.2,0.6,0.3,0.9,0.2
								c0.3,0,0.6-0.2,0.8-0.5c0.3-0.4,0.2-1.1-0.2-1.4c-0.4-0.3-0.9-0.2-1.2,0.2c-0.2,0.3-0.2,0.7,0.1,1c0.1,0,0.2,0,0.2,0
								c0-0.1,0-0.2,0-0.2c-0.2-0.1-0.2-0.4-0.1-0.5c0.2-0.2,0.5-0.3,0.7-0.1c0.3,0.2,0.4,0.7,0.1,1c-0.1,0.2-0.4,0.3-0.6,0.4
								c-0.2,0-0.5,0-0.7-0.2c-0.3-0.2-0.4-0.5-0.5-0.9c0,0-0.1-0.6,0.2-1.7C51.3,55.6,51.3,55.5,51.2,55.5
								C51.2,55.5,51.2,55.5,51.2,55.5z"/>
						</g>
					</g>
				</g>
				<g>
					<path class="st0" d="M55.5,48.4c-2.4,2.2-2.4,6-0.2,8.3c0.1,0.1,0.1,0.2,0,0.3c-0.1,0.1-0.2,0.1-0.3,0c-2.4-2.5-2.3-6.5,0.2-9
						c1.3-1.2,2.9-1.8,4.5-1.8c0.9,0,1.8,0.2,2.6,0.6l0,0.5C60.2,46.3,57.4,46.6,55.5,48.4z"/>
				</g>
			</g>
			<g>
				<g>
					<g>
						<path class="st0" d="M58.3,44.4c0.4,0,0.8-0.2,0.9-0.6c0.1-0.2,0-0.4,0-0.6c-0.1-0.2-0.2-0.3-0.4-0.4
							c-0.3-0.1-0.7,0.1-0.8,0.4c0,0.1,0,0.2,0.1,0.2c0.1,0,0.2,0,0.2-0.1c0-0.2,0.2-0.3,0.4-0.2c0.1,0,0.2,0.1,0.3,0.2
							c0.1,0.1,0.1,0.2,0,0.3c-0.1,0.3-0.4,0.5-0.8,0.4c-0.4-0.1-0.6-0.6-0.5-1c0.1-0.3,0.3-0.5,0.6-0.6c0,0,0.6-0.3,2-0.3
							c0.1,0,0.2-0.1,0.2-0.2c0-0.1-0.1-0.1-0.2-0.1c-1.5,0-2.1,0.4-2.1,0.4c-0.3,0.1-0.6,0.4-0.7,0.8c-0.2,0.6,0.1,1.2,0.7,1.4
							C58.2,44.4,58.3,44.4,58.3,44.4z"/>
						<g>
							<path class="st0" d="M62.5,47.3C62.5,47.3,62.5,47.3,62.5,47.3c3-1.9,3.4-3.4,3.4-3.4c0.2-0.4,0.2-0.9,0-1.4
								c-0.2-0.3-0.4-0.6-0.8-0.7c-0.3-0.1-0.7-0.1-1,0c-0.3,0.1-0.5,0.3-0.6,0.6c-0.1,0.3-0.1,0.6,0,0.9c0.1,0.2,0.3,0.4,0.5,0.5
								c0.2,0.1,0.5,0.1,0.7,0c0.4-0.2,0.6-0.6,0.4-1c0-0.1-0.1-0.1-0.2-0.1c-0.1,0-0.1,0.1-0.1,0.2c0.1,0.2,0,0.5-0.2,0.6
								c-0.3,0.1-0.7,0-0.8-0.3c-0.1-0.2-0.1-0.4,0-0.6c0.1-0.2,0.2-0.4,0.4-0.5c0.3-0.1,0.5-0.1,0.8,0s0.5,0.3,0.6,0.6
								c0.2,0.4,0.2,0.8,0,1.1c0,0-0.5,1.4-3.3,3.3c-0.1,0-0.1,0.1,0,0.2C62.4,47.3,62.4,47.3,62.5,47.3z"/>
							<path class="st0" d="M64.1,49.6c0.8,0.1,1.2,0,1.2,0c0.6-0.1,1.2-0.4,1.5-0.9c0.3-0.4,0.4-0.9,0.3-1.3
								c-0.1-0.5-0.3-0.9-0.7-1.2c-0.3-0.2-0.7-0.3-1.1-0.2c-0.4,0.1-0.7,0.3-0.9,0.6c-0.4,0.5-0.2,1.3,0.3,1.7
								c0.4,0.3,1.1,0.2,1.4-0.2c0-0.1,0-0.2,0-0.2c-0.1-0.1-0.2,0-0.2,0c-0.2,0.3-0.6,0.4-1,0.2c-0.4-0.3-0.5-0.8-0.2-1.2
								c0.2-0.2,0.4-0.4,0.8-0.5c0.3-0.1,0.6,0,0.9,0.2c0.3,0.2,0.5,0.6,0.6,1s0,0.8-0.2,1.1c-0.3,0.5-0.8,0.7-1.3,0.8
								c0,0-1.2,0.3-3.7-0.5c-0.1,0-0.2,0-0.2,0.1s0,0.2,0.1,0.2C62.6,49.4,63.5,49.5,64.1,49.6z"/>
							<path class="st0" d="M62.9,43.5c0.1,0,0.1,0,0.1-0.1c0-0.1,0-0.2-0.1-0.2c-3.1-1.3-3.8-2.6-3.8-2.6c-0.2-0.3-0.3-0.8-0.2-1.1
								c0.1-0.6,0.7-0.9,1.3-0.8c0.4,0.1,0.7,0.5,0.6,1c-0.1,0.3-0.4,0.6-0.8,0.5c-0.2-0.1-0.4-0.3-0.4-0.6c0-0.1,0-0.2-0.1-0.2
								c-0.1,0-0.2,0-0.2,0.1c-0.1,0.4,0.2,0.8,0.6,0.9c0.5,0.1,1-0.2,1.1-0.7c0.1-0.6-0.2-1.2-0.8-1.3c-0.7-0.2-1.5,0.3-1.6,1
								c-0.1,0.5,0,1,0.3,1.3C58.9,40.8,59.6,42.2,62.9,43.5C62.8,43.5,62.9,43.5,62.9,43.5z"/>
							<path class="st0" d="M66.4,44.9c0.6,0,0.8,0,0.8,0c0.4,0,0.8-0.3,1-0.6c0.4-0.5,0.2-1.3-0.3-1.7c-0.4-0.3-1.1-0.2-1.4,0.2
								c-0.3,0.4-0.2,0.9,0.2,1.1c0.3,0.2,0.7,0.1,1-0.2c0-0.1,0-0.2,0-0.2c-0.1,0-0.2,0-0.2,0c-0.1,0.2-0.4,0.2-0.5,0.1
								c-0.2-0.2-0.3-0.5-0.1-0.7c0.2-0.3,0.6-0.4,1-0.2c0.4,0.3,0.5,0.8,0.2,1.2c-0.2,0.3-0.5,0.5-0.8,0.5c0,0-0.6,0.1-1.7-0.1
								c-0.1,0-0.2,0-0.2,0.1c0,0.1,0,0.2,0.1,0.2C65.8,44.8,66.1,44.9,66.4,44.9z"/>
							<path class="st0" d="M65.5,42.4c0.1,0,0.1,0,0.2-0.1c0.4-1.2,0.3-1.8,0.3-1.8c0-0.4-0.2-0.8-0.5-1.1
								c-0.2-0.2-0.6-0.3-0.9-0.3s-0.6,0.2-0.8,0.4c-0.4,0.4-0.3,1,0.1,1.4c0.3,0.3,0.9,0.3,1.2-0.1c0.2-0.3,0.2-0.7-0.1-1
								c-0.1,0-0.2,0-0.2,0c0,0.1,0,0.2,0,0.2c0.2,0.1,0.2,0.4,0,0.5c-0.2,0.2-0.5,0.2-0.7,0.1c-0.3-0.2-0.3-0.7-0.1-1
								c0.2-0.2,0.4-0.3,0.6-0.3c0.2,0,0.5,0.1,0.7,0.2c0.2,0.2,0.4,0.5,0.4,0.9c0,0,0.1,0.6-0.3,1.7C65.4,42.3,65.4,42.4,65.5,42.4
								C65.5,42.4,65.5,42.4,65.5,42.4z"/>
						</g>
					</g>
				</g>
				<g>
					<path class="st0" d="M60.8,49.2c2.5-2.1,2.8-5.8,0.7-8.3c-0.1-0.1-0.1-0.2,0-0.3c0.1-0.1,0.2-0.1,0.3,0
						c2.2,2.7,1.9,6.7-0.8,8.9c-1.3,1.1-3,1.6-4.6,1.5c-0.9-0.1-1.8-0.3-2.6-0.8l0-0.5C56,51,58.8,50.8,60.8,49.2z"/>
				</g>
			</g>
		</g>
		<g>
			<g>
				<g>
					<g>
						<path class="st0" d="M78.6,44.8c-0.4,0-0.8-0.2-0.9-0.7c-0.1-0.2,0-0.4,0.1-0.6c0.1-0.2,0.2-0.3,0.4-0.4
							c0.3-0.1,0.7,0.1,0.8,0.4c0,0.1,0,0.2-0.1,0.2c-0.1,0-0.2,0-0.2-0.1c-0.1-0.2-0.2-0.3-0.4-0.2c-0.1,0-0.2,0.1-0.3,0.2
							C78,43.8,78,44,78,44.1c0.1,0.3,0.4,0.5,0.7,0.4c0.4-0.1,0.7-0.5,0.5-1c-0.1-0.3-0.3-0.5-0.5-0.6c0,0-0.6-0.4-2-0.4
							c-0.1,0-0.1-0.1-0.1-0.2s0.1-0.1,0.1-0.1c1.5,0,2.1,0.4,2.1,0.4c0.3,0.1,0.6,0.5,0.7,0.8c0.2,0.6-0.2,1.2-0.7,1.3
							C78.7,44.8,78.7,44.8,78.6,44.8z"/>
						<g>
							<path class="st0" d="M74.4,47.7C74.4,47.7,74.4,47.6,74.4,47.7c-2.9-2-3.3-3.5-3.4-3.5c-0.2-0.4-0.2-0.9,0-1.4
								c0.2-0.3,0.4-0.6,0.8-0.7c0.3-0.1,0.7-0.1,1,0.1c0.3,0.1,0.5,0.3,0.6,0.6c0.1,0.3,0.1,0.6,0,0.9c-0.1,0.2-0.3,0.4-0.5,0.5
								c-0.2,0.1-0.5,0.1-0.7,0c-0.4-0.2-0.5-0.6-0.4-1c0-0.1,0.1-0.1,0.2-0.1c0.1,0,0.1,0.1,0.1,0.2c-0.1,0.2,0,0.5,0.2,0.6
								c0.3,0.1,0.7,0,0.8-0.3c0.1-0.2,0.1-0.4,0-0.6c-0.1-0.2-0.2-0.4-0.4-0.5c-0.3-0.1-0.6-0.1-0.8,0c-0.3,0.1-0.5,0.3-0.6,0.6
								c-0.2,0.4-0.2,0.8,0,1.1c0,0,0.4,1.4,3.2,3.3c0.1,0,0.1,0.1,0,0.2C74.5,47.6,74.5,47.7,74.4,47.7z"/>
							<path class="st0" d="M72.7,49.9c-0.8,0.1-1.2-0.1-1.2-0.1c-0.6-0.1-1.2-0.4-1.5-1c-0.3-0.4-0.3-0.9-0.3-1.3s0.4-0.9,0.8-1.1
								c0.3-0.2,0.7-0.3,1.1-0.2c0.4,0.1,0.7,0.3,0.9,0.6c0.4,0.5,0.2,1.3-0.3,1.7c-0.4,0.3-1.1,0.2-1.4-0.3c-0.1-0.1,0-0.2,0-0.2
								c0.1,0,0.2,0,0.2,0c0.2,0.3,0.6,0.4,0.9,0.2c0.4-0.3,0.5-0.8,0.2-1.2c-0.2-0.3-0.4-0.4-0.7-0.5c-0.3-0.1-0.6,0-0.9,0.2
								c-0.3,0.2-0.6,0.5-0.6,0.9c-0.1,0.4,0,0.8,0.2,1.1c0.3,0.5,0.8,0.8,1.3,0.8c0,0,1.2,0.3,3.7-0.4c0.1,0,0.2,0,0.2,0.1
								c0,0.1,0,0.2-0.1,0.2C74.2,49.7,73.3,49.8,72.7,49.9z"/>
							<path class="st0" d="M74.1,43.8c-0.1,0-0.1,0-0.2-0.1c0-0.1,0-0.2,0.1-0.2c3.1-1.2,3.8-2.5,3.8-2.5c0.2-0.3,0.3-0.7,0.3-1.1
								c-0.1-0.6-0.7-1-1.3-0.8c-0.4,0.1-0.7,0.5-0.6,1c0.1,0.3,0.4,0.6,0.7,0.5c0.3,0,0.4-0.3,0.4-0.6c0-0.1,0-0.2,0.1-0.2
								c0.1,0,0.2,0,0.2,0.1c0.1,0.4-0.2,0.8-0.6,0.9c-0.5,0.1-1-0.2-1.1-0.7c-0.1-0.6,0.3-1.2,0.9-1.3c0.7-0.2,1.5,0.3,1.6,1.1
								c0.1,0.5,0,1-0.3,1.4C78.1,41.3,77.4,42.6,74.1,43.8C74.1,43.8,74.1,43.8,74.1,43.8z"/>
							<path class="st0" d="M70.6,45.1c-0.6,0-0.8,0-0.8,0c-0.4,0-0.8-0.3-1-0.6c-0.4-0.5-0.2-1.3,0.3-1.7c0.5-0.3,1.1-0.2,1.4,0.3
								c0.2,0.4,0.1,0.9-0.2,1.1c-0.3,0.2-0.7,0.1-0.9-0.2c-0.1-0.1,0-0.2,0-0.2s0.2,0,0.2,0c0.1,0.2,0.4,0.2,0.5,0.1
								c0.2-0.2,0.3-0.5,0.2-0.7c-0.2-0.3-0.6-0.4-1-0.2c-0.4,0.3-0.5,0.8-0.3,1.2c0.2,0.3,0.5,0.5,0.8,0.5c0,0,0.6,0.2,1.7-0.1
								c0.1,0,0.2,0,0.2,0.1c0,0.1,0,0.2-0.1,0.2C71.1,45.1,70.8,45.1,70.6,45.1z"/>
							<path class="st0" d="M71.5,42.6c-0.1,0-0.1,0-0.1-0.1c-0.4-1.2-0.3-1.8-0.3-1.8c0-0.4,0.2-0.8,0.5-1.1
								c0.2-0.2,0.6-0.3,0.9-0.3c0.3,0,0.6,0.2,0.8,0.4c0.3,0.4,0.3,1-0.1,1.4c-0.4,0.3-0.9,0.2-1.2-0.1c-0.2-0.3-0.2-0.7,0.1-1
								c0.1,0,0.2,0,0.2,0c0.1,0.1,0,0.2,0,0.2c-0.2,0.1-0.2,0.4-0.1,0.5c0.2,0.2,0.5,0.3,0.7,0.1c0.3-0.2,0.3-0.7,0.1-1
								c-0.2-0.2-0.4-0.3-0.6-0.3c-0.2,0-0.5,0-0.7,0.2c-0.3,0.2-0.4,0.5-0.4,0.9c0,0-0.1,0.6,0.3,1.7
								C71.7,42.5,71.6,42.6,71.5,42.6C71.5,42.6,71.5,42.6,71.5,42.6z"/>
						</g>
					</g>
				</g>
				<g>
					<path class="st0" d="M76.1,49.5c-2.4-2.2-2.7-5.9-0.5-8.3c0.1-0.1,0.1-0.2,0-0.3c-0.1-0.1-0.2-0.1-0.3,0
						c-2.3,2.6-2.1,6.6,0.5,9c1.3,1.2,3,1.7,4.6,1.6c0.9,0,1.8-0.3,2.6-0.7l0-0.5C80.8,51.5,78,51.3,76.1,49.5z"/>
				</g>
			</g>
			<g>
				<g>
					<g>
						<path class="st0" d="M79.1,53.4c0.4-0.1,0.8,0.2,0.9,0.6c0.1,0.2,0.1,0.4,0,0.6c-0.1,0.2-0.2,0.3-0.4,0.4
							c-0.3,0.1-0.7,0-0.8-0.4c0-0.1,0-0.2,0.1-0.2s0.2,0,0.2,0.1c0.1,0.2,0.2,0.3,0.4,0.2c0.1,0,0.2-0.1,0.2-0.2
							c0-0.1,0.1-0.2,0-0.3c-0.1-0.3-0.4-0.5-0.8-0.4c-0.4,0.1-0.6,0.6-0.5,1c0.1,0.3,0.3,0.5,0.6,0.6c0,0,0.6,0.3,2,0.3
							c0.1,0,0.2,0.1,0.2,0.1s-0.1,0.2-0.1,0.2c-1.5,0-2.1-0.3-2.1-0.3c-0.3-0.1-0.6-0.4-0.7-0.8c-0.2-0.6,0.1-1.2,0.7-1.4
							C78.9,53.5,79,53.4,79.1,53.4z"/>
						<g>
							<path class="st0" d="M83,50.3C83.1,50.3,83.1,50.3,83,50.3c3.1,1.8,3.6,3.2,3.6,3.3c0.2,0.4,0.2,0.9,0.1,1.4
								c-0.1,0.3-0.4,0.6-0.7,0.8c-0.3,0.1-0.7,0.2-1,0c-0.3-0.1-0.5-0.3-0.6-0.6s-0.1-0.6,0-0.9c0.1-0.2,0.3-0.4,0.5-0.5
								c0.2-0.1,0.5-0.1,0.7,0c0.4,0.2,0.6,0.6,0.4,1c0,0.1-0.1,0.1-0.2,0.1c-0.1,0-0.1-0.1-0.1-0.2c0.1-0.2,0-0.5-0.3-0.6
								c-0.3-0.1-0.7,0-0.8,0.4c-0.1,0.2-0.1,0.4,0,0.6c0.1,0.2,0.2,0.4,0.5,0.4c0.3,0.1,0.6,0.1,0.8,0c0.3-0.1,0.5-0.3,0.6-0.6
								c0.2-0.4,0.1-0.8-0.1-1.1c0,0-0.5-1.4-3.4-3.1C82.9,50.6,82.9,50.5,83,50.3C83,50.4,83,50.3,83,50.3z"/>
							<path class="st0" d="M84.6,48c0.8-0.1,1.2,0,1.2,0c0.6,0,1.2,0.3,1.6,0.9c0.3,0.4,0.4,0.8,0.3,1.3s-0.3,0.9-0.7,1.2
								c-0.3,0.2-0.7,0.3-1.1,0.3c-0.4,0-0.7-0.2-1-0.6c-0.4-0.5-0.3-1.3,0.2-1.7c0.4-0.3,1.1-0.2,1.4,0.2c0.1,0.1,0,0.2,0,0.2
								c-0.1,0-0.2,0-0.2,0c-0.2-0.3-0.7-0.4-1-0.1c-0.4,0.3-0.5,0.9-0.2,1.2c0.2,0.2,0.5,0.4,0.8,0.5c0.3,0,0.6,0,0.8-0.2
								c0.3-0.2,0.5-0.6,0.6-1c0.1-0.4,0-0.8-0.3-1.1c-0.3-0.4-0.8-0.7-1.4-0.7c0,0-1.2-0.2-3.7,0.7c-0.1,0-0.2,0-0.2-0.1
								c0-0.1,0-0.2,0.1-0.2C83.2,48.3,84,48.1,84.6,48z"/>
							<path class="st0" d="M83.6,54.1c0.1,0,0.1,0,0.2,0.1c0,0.1,0,0.2-0.1,0.2c-3,1.4-3.7,2.7-3.7,2.7c-0.2,0.3-0.3,0.8-0.2,1.1
								c0.1,0.6,0.7,0.9,1.3,0.8c0.4-0.1,0.7-0.6,0.6-1c-0.1-0.3-0.4-0.5-0.8-0.4c-0.2,0.1-0.4,0.3-0.3,0.6c0,0.1,0,0.2-0.1,0.2
								c-0.1,0-0.2,0-0.2-0.1c-0.1-0.4,0.1-0.8,0.5-1c0.5-0.1,1,0.2,1.1,0.7c0.2,0.6-0.2,1.2-0.8,1.4c-0.7,0.2-1.5-0.2-1.7-1
								c-0.1-0.5-0.1-1,0.2-1.4C79.8,56.9,80.4,55.6,83.6,54.1C83.6,54.1,83.6,54.1,83.6,54.1z"/>
							<path class="st0" d="M87.1,52.6c0.6-0.1,0.8,0,0.8,0c0.4,0,0.8,0.2,1,0.6c0.4,0.5,0.3,1.3-0.2,1.7c-0.4,0.3-1.1,0.2-1.4-0.2
								c-0.3-0.4-0.2-0.9,0.2-1.1c0.3-0.2,0.7-0.2,1,0.1c0.1,0.1,0,0.2,0,0.2c-0.1,0-0.2,0-0.2,0c-0.1-0.2-0.4-0.2-0.5-0.1
								c-0.2,0.2-0.3,0.5-0.1,0.7c0.2,0.3,0.7,0.4,1,0.1c0.4-0.3,0.5-0.9,0.2-1.3c-0.2-0.3-0.5-0.4-0.8-0.5c0,0-0.6-0.1-1.7,0.2
								c-0.1,0-0.2,0-0.2-0.1s0-0.2,0.1-0.2C86.5,52.7,86.8,52.6,87.1,52.6z"/>
							<path class="st0" d="M86.3,55.2c0.1,0,0.1,0,0.2,0.1c0.5,1.2,0.4,1.8,0.4,1.8c0,0.4-0.2,0.8-0.5,1.1
								c-0.2,0.2-0.5,0.3-0.9,0.3c-0.3,0-0.6-0.1-0.8-0.4c-0.4-0.4-0.3-1,0.1-1.4c0.3-0.3,0.8-0.3,1.2,0c0.3,0.3,0.2,0.7,0,1
								c-0.1,0.1-0.2,0.1-0.2,0c-0.1-0.1,0-0.2,0-0.2c0.2-0.1,0.2-0.4,0-0.5c-0.2-0.2-0.5-0.2-0.7,0c-0.3,0.3-0.3,0.7,0,1
								c0.2,0.2,0.4,0.3,0.6,0.3c0.2,0,0.5-0.1,0.7-0.2c0.2-0.2,0.4-0.5,0.4-0.9c0,0,0.1-0.6-0.4-1.7C86.1,55.3,86.2,55.2,86.3,55.2
								C86.3,55.2,86.3,55.2,86.3,55.2z"/>
						</g>
					</g>
				</g>
				<g>
					<path class="st0" d="M81.3,48.5c2.6,2,3,5.7,1,8.3c-0.1,0.1-0.1,0.2,0,0.3c0.1,0.1,0.2,0.1,0.3,0c2.1-2.8,1.7-6.7-1.1-8.9
						c-1.4-1.1-3.1-1.5-4.7-1.3c-0.9,0.1-1.8,0.4-2.5,0.9l0.1,0.5C76.5,46.9,79.2,47,81.3,48.5z"/>
				</g>
			</g>
		</g>
	</g>
</g>
<text transform="matrix(1 0 0 1 44.3909 90.3352)" class="st0 st1 st2">Erin Pier</text>
<text transform="matrix(1 0 0 1 82.5608 90.3352)" class="st0 st1 st2">ce</text>
<text transform="matrix(1 0 0 1 37.5506 100.5354)" class="st0 st1 st2">S</text>
<text transform="matrix(1 0 0 1 43.4207 100.5354)" class="st0 st1 st2">t</text>
<text transform="matrix(1 0 0 1 47.0506 100.5354)" class="st0 st1 st2">u</text>
<text transform="matrix(1 0 0 1 52.3108 100.5354)" class="st0 st1 st2">d</text>
<text transform="matrix(1 0 0 1 57.6106 100.5354)" class="st0 st1 st2">io D</text>
<text transform="matrix(1 0 0 1 76.1106 100.5354)" class="st0 st1 st2">es</text>
<text transform="matrix(1 0 0 1 85.0008 100.5354)" class="st0 st1 st2">i</text>
<text transform="matrix(1 0 0 1 87.6604 100.5354)" class="st0 st1 st2">gn</text>
<text transform="matrix(1 0 0 1 62.6917 63.886)" class="st0 st1 st3">E</text>
</svg>
