<?xml version="1.0" encoding="utf-8"?>
<!-- Generator: Adobe Illustrator 19.2.1, SVG Export Plug-In . SVG Version: 6.00 Build 0)  -->
<svg version="1.1" id="Layer_1" xmlns="http://www.w3.org/2000/svg" xmlns:xlink="http://www.w3.org/1999/xlink" x="0px" y="0px"
	 viewBox="0 0 1000 1000" style="enable-background:new 0 0 1000 1000;" xml:space="preserve">
<metadata><?xpacket begin="﻿" id="W5M0MpCehiHzreSzNTczkc9d"?>
<x:xmpmeta xmlns:x="adobe:ns:meta/" x:xmptk="Adobe XMP Core 5.6-c111 79.158366, 2015/09/25-01:12:00        ">
   <rdf:RDF xmlns:rdf="http://www.w3.org/1999/02/22-rdf-syntax-ns#">
      <rdf:Description rdf:about=""
            xmlns:ExtensisFontSense="http://www.extensis.com/meta/FontSense/">
         <ExtensisFontSense:slug>
            <rdf:Bag>
               <rdf:li>
                  <rdf:Description>
                     <ExtensisFontSense:Family>Big Caslon</ExtensisFontSense:Family>
                     <ExtensisFontSense:Version>10.0</ExtensisFontSense:Version>
                     <ExtensisFontSense:OutlineFileSize>0</ExtensisFontSense:OutlineFileSize>
                     <ExtensisFontSense:KerningChecksum>0</ExtensisFontSense:KerningChecksum>
                     <ExtensisFontSense:Foundry>--</ExtensisFontSense:Foundry>
                     <ExtensisFontSense:FontKind>TrueType</ExtensisFontSense:FontKind>
                     <ExtensisFontSense:Checksum>4068057449</ExtensisFontSense:Checksum>
                     <ExtensisFontSense:PostScriptName>BigCaslon-Medium</ExtensisFontSense:PostScriptName>
                     <ExtensisFontSense:FontSense_1.2_Checksum>4068057449</ExtensisFontSense:FontSense_1.2_Checksum>
                  </rdf:Description>
               </rdf:li>
            </rdf:Bag>
         </ExtensisFontSense:slug>
      </rdf:Description>
   </rdf:RDF>
</x:xmpmeta>
                                                                                                    
                                                                                                    
                                                                                                    
                                                                                                    
                                                                                                    
                                                                                                    
                                                                                                    
                                                                                                    
                                                                                                    
                                                                                                    
                                                                                                    
                                                                                                    
                                                                                                    
                                                                                                    
                                                                                                    
                                                                                                    
                                                                                                    
                                                                                                    
                                                                                                    
                                                                                                    
                           
<?xpacket end="w"?></metadata>
<style type="text/css">
	.st0{fill:#FFFFFF;}
	.st1{font-family:'BigCaslon-Medium';}
	.st2{font-size:15px;}
</style>
<g>
	<g>
		<g>
			<g>
				<g>
					<g>
						<path class="st0" d="M56.5,63.5c-0.4,0-0.8-0.3-0.9-0.7c0-0.2,0-0.4,0.1-0.6s0.3-0.3,0.5-0.3c0.3-0.1,0.7,0.1,0.8,0.5
							c0,0.1,0,0.2-0.1,0.2c-0.1,0-0.2,0-0.2-0.1c0-0.2-0.2-0.3-0.4-0.2c-0.1,0-0.2,0.1-0.3,0.2c-0.1,0.1-0.1,0.2-0.1,0.3
							c0.1,0.3,0.4,0.5,0.7,0.5c0.4-0.1,0.7-0.5,0.6-0.9c-0.1-0.3-0.2-0.5-0.5-0.7c0,0-0.5-0.4-1.9-0.5c-0.1,0-0.1-0.1-0.1-0.2
							c0-0.1,0.1-0.1,0.2-0.1c1.5,0.1,2,0.5,2,0.6c0.3,0.2,0.5,0.5,0.6,0.9c0.1,0.6-0.2,1.2-0.8,1.3C56.6,63.5,56.5,63.5,56.5,63.5z
							"/>
						<g>
							<path class="st0" d="M52.1,66.1C52.1,66.1,52.1,66.1,52.1,66.1c-2.8-2.2-3.1-3.7-3.2-3.7c-0.2-0.4-0.1-0.9,0.1-1.4
								c0.2-0.3,0.5-0.5,0.8-0.6c0.3-0.1,0.7-0.1,1,0.1c0.3,0.1,0.5,0.4,0.5,0.7c0.1,0.3,0,0.6-0.1,0.8c-0.1,0.2-0.3,0.4-0.5,0.4
								c-0.2,0.1-0.5,0-0.7-0.1c-0.4-0.2-0.5-0.7-0.3-1c0-0.1,0.1-0.1,0.2-0.1c0.1,0,0.1,0.1,0.1,0.2c-0.1,0.2,0,0.5,0.2,0.6
								c0.3,0.2,0.7,0,0.9-0.2c0.1-0.2,0.1-0.4,0.1-0.6c-0.1-0.2-0.2-0.4-0.4-0.5c-0.2-0.1-0.5-0.2-0.8-0.1
								c-0.3,0.1-0.5,0.3-0.6,0.5c-0.2,0.3-0.2,0.8-0.1,1.1c0,0,0.3,1.5,3,3.5c0.1,0,0.1,0.1,0,0.2C52.2,66.1,52.2,66.1,52.1,66.1z"
								/>
							<path class="st0" d="M50.3,68.2c-0.8,0-1.2-0.1-1.2-0.1c-0.6-0.1-1.1-0.5-1.5-1c-0.2-0.4-0.3-0.9-0.2-1.3
								c0.1-0.5,0.4-0.8,0.8-1.1c0.3-0.2,0.7-0.2,1.1-0.1c0.4,0.1,0.7,0.3,0.9,0.7c0.3,0.6,0.1,1.3-0.4,1.6
								c-0.5,0.3-1.1,0.1-1.3-0.4c0-0.1,0-0.2,0-0.2c0.1,0,0.2,0,0.2,0c0.2,0.3,0.6,0.4,0.9,0.2c0.4-0.2,0.6-0.8,0.3-1.2
								c-0.2-0.3-0.4-0.5-0.7-0.5s-0.6,0-0.9,0.1c-0.3,0.2-0.6,0.5-0.7,0.9c-0.1,0.4,0,0.8,0.2,1.1c0.3,0.5,0.7,0.8,1.3,0.9
								c0,0,1.2,0.4,3.7-0.2c0.1,0,0.2,0,0.2,0.1c0,0.1,0,0.2-0.1,0.2C51.8,68.2,50.9,68.2,50.3,68.2z"/>
							<path class="st0" d="M52,62.3c-0.1,0-0.1,0-0.1-0.1c0-0.1,0-0.2,0.1-0.2c3.2-1,4-2.2,4-2.2c0.3-0.3,0.4-0.7,0.3-1.1
								c-0.1-0.6-0.6-1-1.2-0.9c-0.5,0.1-0.8,0.5-0.7,0.9c0,0.3,0.4,0.6,0.7,0.5c0.3,0,0.4-0.3,0.4-0.5c0-0.1,0-0.2,0.1-0.2
								c0.1,0,0.2,0,0.2,0.1c0.1,0.4-0.2,0.8-0.7,0.9c-0.5,0.1-1-0.3-1-0.8c-0.1-0.6,0.3-1.2,1-1.3c0.7-0.1,1.4,0.4,1.5,1.2
								c0.1,0.5-0.1,1-0.4,1.3C56.2,59.9,55.4,61.2,52,62.3C52.1,62.3,52.1,62.3,52,62.3z"/>
							<path class="st0" d="M48.4,63.4c-0.6,0-0.8-0.1-0.8-0.1c-0.4-0.1-0.8-0.3-1-0.7c-0.3-0.6-0.1-1.3,0.5-1.6
								c0.5-0.3,1.1-0.1,1.4,0.4c0.2,0.4,0.1,0.9-0.3,1.1c-0.3,0.2-0.8,0.1-0.9-0.3c0-0.1,0-0.2,0.1-0.2c0.1,0,0.2,0,0.2,0.1
								c0.1,0.2,0.3,0.2,0.5,0.1c0.2-0.1,0.3-0.5,0.2-0.7c-0.2-0.3-0.6-0.4-0.9-0.3c-0.4,0.2-0.6,0.8-0.3,1.2
								c0.2,0.3,0.4,0.5,0.8,0.6c0,0,0.6,0.2,1.7,0c0.1,0,0.2,0,0.2,0.1c0,0.1,0,0.2-0.1,0.2C49,63.4,48.7,63.4,48.4,63.4z"/>
							<path class="st0" d="M49.5,60.9c-0.1,0-0.1,0-0.1-0.1c-0.3-1.2-0.2-1.8-0.2-1.8c0-0.4,0.3-0.8,0.6-1c0.3-0.2,0.6-0.3,0.9-0.2
								c0.3,0,0.6,0.2,0.8,0.5c0.3,0.4,0.2,1.1-0.2,1.4c-0.4,0.3-0.9,0.2-1.2-0.2c-0.2-0.3-0.1-0.7,0.2-1c0.1,0,0.2,0,0.2,0
								c0,0.1,0,0.2,0,0.2c-0.2,0.1-0.2,0.4-0.1,0.5c0.2,0.2,0.5,0.3,0.7,0.1c0.3-0.2,0.4-0.7,0.2-1c-0.1-0.2-0.3-0.3-0.6-0.4
								c-0.2,0-0.5,0-0.7,0.2c-0.3,0.2-0.5,0.5-0.5,0.8c0,0-0.1,0.6,0.2,1.7C49.7,60.8,49.6,60.9,49.5,60.9
								C49.5,60.9,49.5,60.9,49.5,60.9z"/>
						</g>
					</g>
				</g>
				<g>
					<path class="st0" d="M53.7,68.1c-2.3-2.3-2.3-6,0-8.3c0.1-0.1,0.1-0.2,0-0.3c-0.1-0.1-0.2-0.1-0.3,0c-2.5,2.5-2.5,6.5,0,9
						c1.2,1.2,2.9,1.8,4.5,1.8c0.9,0,1.8-0.2,2.6-0.6v-0.5C58.2,70.3,55.5,69.9,53.7,68.1z"/>
				</g>
			</g>
			<g>
				<g>
					<g>
						<path class="st0" d="M56.4,72.2c0.4,0,0.8,0.2,0.9,0.6c0.1,0.2,0,0.4-0.1,0.6c-0.1,0.2-0.2,0.3-0.5,0.4
							c-0.3,0.1-0.7-0.1-0.8-0.4c0-0.1,0-0.2,0.1-0.2c0.1,0,0.2,0,0.2,0.1c0,0.2,0.2,0.3,0.4,0.2c0.1,0,0.2-0.1,0.3-0.2
							c0.1-0.1,0.1-0.2,0-0.3c-0.1-0.3-0.4-0.5-0.7-0.4c-0.4,0.1-0.7,0.6-0.5,1c0.1,0.3,0.3,0.5,0.5,0.6c0,0,0.6,0.4,2,0.4
							c0.1,0,0.1,0.1,0.1,0.2c0,0.1-0.1,0.1-0.1,0.1c-1.5,0-2.1-0.4-2.1-0.4c-0.3-0.2-0.6-0.5-0.7-0.8c-0.2-0.6,0.2-1.2,0.7-1.3
							C56.3,72.2,56.3,72.2,56.4,72.2z"/>
						<g>
							<path class="st0" d="M60.6,69.3C60.6,69.3,60.6,69.3,60.6,69.3c2.9,2,3.4,3.4,3.4,3.5c0.2,0.4,0.2,0.9,0,1.4
								c-0.2,0.3-0.4,0.6-0.8,0.7c-0.3,0.1-0.7,0.1-1,0c-0.3-0.1-0.5-0.3-0.6-0.6c-0.1-0.3-0.1-0.6,0-0.9c0.1-0.2,0.3-0.4,0.5-0.5
								c0.2-0.1,0.5-0.1,0.7,0c0.4,0.2,0.5,0.6,0.4,1C63.1,74,63,74,63,74c-0.1,0-0.1-0.1-0.1-0.2c0.1-0.2,0-0.5-0.2-0.6
								c-0.3-0.2-0.7,0-0.8,0.3c-0.1,0.2-0.1,0.4,0,0.6c0.1,0.2,0.2,0.4,0.4,0.5c0.3,0.1,0.6,0.1,0.8,0c0.3-0.1,0.5-0.3,0.6-0.5
								c0.2-0.4,0.2-0.8,0-1.1c0,0-0.4-1.4-3.2-3.3c-0.1-0.1-0.1-0.1,0-0.2C60.5,69.3,60.5,69.3,60.6,69.3z"/>
							<path class="st0" d="M62.3,67.1c0.8-0.1,1.2,0.1,1.2,0.1c0.6,0.1,1.2,0.4,1.5,0.9c0.3,0.4,0.4,0.9,0.3,1.3
								c-0.1,0.5-0.4,0.9-0.8,1.1c-0.3,0.2-0.7,0.3-1.1,0.2c-0.4-0.1-0.7-0.3-0.9-0.6c-0.4-0.5-0.2-1.3,0.3-1.6
								c0.4-0.3,1.1-0.2,1.4,0.3c0,0.1,0,0.2,0,0.2S64,69,64,69c-0.2-0.3-0.6-0.4-1-0.2c-0.4,0.3-0.5,0.8-0.2,1.2
								c0.2,0.3,0.4,0.4,0.7,0.5c0.3,0.1,0.6,0,0.9-0.2c0.3-0.2,0.5-0.6,0.6-0.9c0.1-0.4,0-0.8-0.2-1.1c-0.3-0.4-0.8-0.8-1.3-0.8
								c0,0-1.2-0.3-3.7,0.4c-0.1,0-0.2,0-0.2-0.1c0-0.1,0-0.2,0.1-0.2C60.8,67.2,61.7,67.1,62.3,67.1z"/>
							<path class="st0" d="M60.9,73.1c0.1,0,0.1,0,0.1,0.1c0,0.1,0,0.2-0.1,0.2c-3.1,1.2-3.8,2.5-3.8,2.5c-0.2,0.3-0.3,0.7-0.3,1.1
								c0.1,0.6,0.7,0.9,1.3,0.8c0.4-0.1,0.7-0.5,0.6-1c-0.1-0.3-0.4-0.6-0.7-0.5c-0.3,0-0.4,0.3-0.4,0.6c0,0.1,0,0.2-0.1,0.2
								c-0.1,0-0.2,0-0.2-0.1c-0.1-0.4,0.2-0.8,0.6-0.9c0.5-0.1,1,0.2,1.1,0.7c0.1,0.6-0.3,1.2-0.9,1.3c-0.7,0.2-1.5-0.3-1.6-1.1
								c-0.1-0.5,0-1,0.3-1.3C56.9,75.7,57.6,74.4,60.9,73.1C60.9,73.1,60.9,73.1,60.9,73.1z"/>
							<path class="st0" d="M64.5,71.8c0.6,0,0.8,0,0.8,0.1c0.4,0,0.8,0.3,1,0.6c0.4,0.6,0.2,1.3-0.3,1.7c-0.5,0.3-1.1,0.2-1.4-0.3
								c-0.2-0.4-0.1-0.9,0.2-1.1c0.3-0.2,0.7-0.1,1,0.2c0,0.1,0,0.2,0,0.2s-0.2,0-0.2,0c-0.1-0.2-0.4-0.2-0.5-0.1
								c-0.2,0.2-0.3,0.5-0.2,0.7c0.2,0.3,0.6,0.4,1,0.2c0.4-0.3,0.5-0.8,0.3-1.2c-0.2-0.3-0.5-0.5-0.8-0.5c0,0-0.6-0.2-1.7,0.1
								c-0.1,0-0.2,0-0.2-0.1c0-0.1,0-0.2,0.1-0.2C63.9,71.9,64.2,71.8,64.5,71.8z"/>
							<path class="st0" d="M63.5,74.3c0.1,0,0.1,0,0.1,0.1c0.4,1.2,0.3,1.8,0.3,1.8c0,0.4-0.2,0.8-0.5,1.1
								c-0.2,0.2-0.6,0.3-0.9,0.3s-0.6-0.2-0.8-0.4c-0.3-0.4-0.3-1.1,0.1-1.4c0.4-0.3,0.9-0.2,1.2,0.1c0.2,0.3,0.2,0.7-0.1,1
								c-0.1,0.1-0.2,0-0.2,0c-0.1-0.1,0-0.2,0-0.2c0.2-0.1,0.2-0.4,0-0.6c-0.2-0.2-0.5-0.3-0.7-0.1c-0.3,0.2-0.3,0.7-0.1,1
								c0.2,0.2,0.4,0.3,0.6,0.3c0.2,0,0.5-0.1,0.7-0.2c0.3-0.2,0.4-0.5,0.4-0.9c0,0,0.1-0.6-0.3-1.7C63.3,74.4,63.4,74.4,63.5,74.3
								C63.5,74.3,63.5,74.3,63.5,74.3z"/>
						</g>
					</g>
				</g>
				<g>
					<path class="st0" d="M58.9,67.4c2.4,2.1,2.7,5.9,0.5,8.3c-0.1,0.1-0.1,0.2,0,0.3c0.1,0.1,0.2,0.1,0.3,0
						c2.3-2.6,2.1-6.6-0.6-8.9c-1.3-1.2-3-1.7-4.6-1.6c-0.9,0.1-1.8,0.3-2.6,0.7l0,0.5C54.2,65.5,57,65.7,58.9,67.4z"/>
				</g>
			</g>
		</g>
		<g>
			<g>
				<g>
					<g>
						<path class="st0" d="M76.7,72.2c-0.4,0-0.8,0.2-0.9,0.6c-0.1,0.2,0,0.4,0.1,0.6c0.1,0.2,0.2,0.3,0.4,0.4
							c0.3,0.1,0.7-0.1,0.8-0.4c0-0.1,0-0.2-0.1-0.2c-0.1,0-0.2,0-0.2,0.1c-0.1,0.2-0.2,0.3-0.4,0.2c-0.1,0-0.2-0.1-0.3-0.2
							C76,73.1,76,73,76,72.9c0.1-0.3,0.4-0.5,0.8-0.4c0.4,0.1,0.6,0.6,0.5,1c-0.1,0.3-0.3,0.5-0.6,0.6c0,0-0.6,0.3-2,0.3
							c-0.1,0-0.2,0.1-0.2,0.2c0,0.1,0.1,0.2,0.2,0.2c1.5,0,2.1-0.4,2.1-0.4c0.3-0.1,0.6-0.4,0.7-0.8c0.2-0.6-0.1-1.2-0.7-1.4
							C76.8,72.2,76.7,72.2,76.7,72.2z"/>
						<g>
							<path class="st0" d="M72.6,69.3C72.5,69.3,72.5,69.3,72.6,69.3c-3,1.9-3.4,3.4-3.4,3.4c-0.2,0.4-0.2,0.9,0,1.4
								c0.1,0.3,0.4,0.6,0.8,0.7c0.3,0.1,0.7,0.1,1.1,0c0.3-0.1,0.5-0.3,0.6-0.6s0.1-0.6,0-0.9c-0.1-0.2-0.3-0.4-0.5-0.5
								c-0.2-0.1-0.5-0.1-0.7,0c-0.4,0.2-0.6,0.6-0.4,1c0,0.1,0.1,0.1,0.2,0.1c0.1,0,0.1-0.1,0.1-0.2c-0.1-0.2,0-0.5,0.2-0.6
								c0.3-0.1,0.7,0,0.8,0.3c0.1,0.2,0.1,0.4,0,0.6c-0.1,0.2-0.2,0.4-0.4,0.5c-0.3,0.1-0.6,0.1-0.8,0c-0.3-0.1-0.5-0.3-0.6-0.6
								c-0.2-0.4-0.2-0.8,0-1.1c0,0,0.5-1.4,3.2-3.3c0.1-0.1,0.1-0.1,0-0.2C72.6,69.3,72.6,69.3,72.6,69.3z"/>
							<path class="st0" d="M70.9,67c-0.8-0.1-1.2,0-1.2,0c-0.6,0.1-1.2,0.4-1.5,0.9c-0.3,0.4-0.4,0.9-0.3,1.3s0.3,0.9,0.7,1.2
								c0.3,0.2,0.7,0.3,1.1,0.2c0.4-0.1,0.7-0.3,0.9-0.6c0.4-0.5,0.2-1.3-0.3-1.7c-0.4-0.3-1.1-0.2-1.4,0.2c-0.1,0.1,0,0.2,0,0.2
								s0.2,0,0.2,0c0.2-0.3,0.6-0.4,0.9-0.2c0.4,0.3,0.5,0.8,0.2,1.2c-0.2,0.2-0.4,0.4-0.7,0.5c-0.3,0.1-0.6,0-0.9-0.2
								c-0.3-0.2-0.5-0.6-0.6-0.9s0-0.8,0.2-1.1c0.3-0.4,0.8-0.7,1.3-0.8c0,0,1.2-0.3,3.7,0.5c0.1,0,0.2,0,0.2-0.1
								c0-0.1,0-0.2-0.1-0.2C72.4,67.2,71.5,67,70.9,67z"/>
							<path class="st0" d="M72.1,73.1c-0.1,0-0.1,0-0.2,0.1c0,0.1,0,0.2,0.1,0.2c3.1,1.3,3.8,2.5,3.8,2.6c0.2,0.3,0.3,0.7,0.2,1.1
								c-0.1,0.6-0.7,0.9-1.3,0.8c-0.4-0.1-0.7-0.5-0.6-1c0.1-0.3,0.4-0.5,0.8-0.5c0.2,0.1,0.4,0.3,0.4,0.6c0,0.1,0,0.2,0.1,0.2
								c0.1,0,0.2,0,0.2-0.1c0.1-0.4-0.2-0.8-0.6-0.9c-0.5-0.1-1,0.2-1.1,0.7c-0.1,0.6,0.2,1.2,0.8,1.3c0.7,0.2,1.5-0.3,1.6-1
								c0.1-0.5,0-1-0.3-1.3C76.1,75.7,75.4,74.4,72.1,73.1C72.2,73.1,72.2,73.1,72.1,73.1z"/>
							<path class="st0" d="M68.6,71.7c-0.6-0.1-0.8,0-0.9,0c-0.4,0-0.8,0.3-1,0.6c-0.4,0.5-0.2,1.3,0.3,1.7
								c0.4,0.3,1.1,0.2,1.4-0.2c0.3-0.4,0.2-0.9-0.2-1.1c-0.3-0.2-0.7-0.1-1,0.2c0,0.1,0,0.2,0,0.2c0.1,0.1,0.2,0,0.2,0
								c0.1-0.2,0.4-0.2,0.5-0.1c0.2,0.2,0.3,0.5,0.1,0.7c-0.2,0.3-0.7,0.4-1,0.2c-0.4-0.3-0.5-0.8-0.2-1.2c0.2-0.3,0.5-0.5,0.8-0.5
								c0,0,0.6-0.1,1.7,0.1c0.1,0,0.2,0,0.2-0.1c0-0.1,0-0.2-0.1-0.2C69.2,71.7,68.9,71.7,68.6,71.7z"/>
							<path class="st0" d="M69.5,74.2c-0.1,0-0.1,0-0.2,0.1c-0.4,1.2-0.3,1.8-0.3,1.8c0,0.4,0.2,0.8,0.5,1.1
								c0.2,0.2,0.6,0.3,0.9,0.3s0.6-0.2,0.8-0.4c0.4-0.4,0.3-1-0.1-1.4c-0.3-0.3-0.9-0.2-1.2,0.1c-0.2,0.3-0.2,0.7,0.1,1
								c0.1,0.1,0.2,0.1,0.2,0c0.1-0.1,0.1-0.2,0-0.2c-0.2-0.1-0.2-0.4,0-0.6c0.2-0.2,0.5-0.2,0.7-0.1c0.3,0.2,0.3,0.7,0.1,1
								c-0.2,0.2-0.4,0.3-0.6,0.3c-0.2,0-0.5-0.1-0.7-0.2c-0.3-0.2-0.4-0.5-0.4-0.9c0,0-0.1-0.6,0.3-1.7
								C69.7,74.3,69.6,74.2,69.5,74.2C69.5,74.2,69.5,74.2,69.5,74.2z"/>
						</g>
					</g>
				</g>
				<g>
					<path class="st0" d="M74.2,67.4c-2.5,2.1-2.8,5.8-0.7,8.3c0.1,0.1,0.1,0.2,0,0.3c-0.1,0.1-0.2,0.1-0.3,0
						c-2.3-2.7-1.9-6.7,0.7-8.9c1.3-1.1,3-1.6,4.6-1.5c0.9,0.1,1.8,0.3,2.6,0.8l0,0.5C79,65.6,76.2,65.7,74.2,67.4z"/>
				</g>
			</g>
			<g>
				<g>
					<g>
						<path class="st0" d="M77.3,63.6c0.4,0.1,0.8-0.2,1-0.6c0.1-0.2,0.1-0.4,0-0.6c-0.1-0.2-0.2-0.3-0.4-0.4
							c-0.3-0.1-0.7,0-0.8,0.4c0,0.1,0,0.2,0.1,0.2s0.2,0,0.2-0.1c0.1-0.2,0.2-0.2,0.4-0.2c0.1,0,0.2,0.1,0.2,0.2c0,0.1,0,0.2,0,0.3
							c-0.1,0.3-0.5,0.5-0.8,0.3c-0.4-0.2-0.6-0.6-0.5-1c0.1-0.3,0.3-0.5,0.6-0.6c0,0,0.6-0.3,2-0.2c0.1,0,0.2-0.1,0.2-0.1
							c0-0.1-0.1-0.2-0.1-0.2c-1.5-0.1-2.1,0.2-2.1,0.2c-0.3,0.1-0.6,0.4-0.8,0.8c-0.2,0.6,0.1,1.2,0.6,1.4
							C77.2,63.6,77.2,63.6,77.3,63.6z"/>
						<g>
							<path class="st0" d="M81.2,66.8C81.3,66.8,81.3,66.8,81.2,66.8c3.1-1.8,3.6-3.2,3.7-3.2c0.2-0.4,0.3-0.9,0.1-1.4
								c-0.1-0.3-0.4-0.6-0.7-0.8c-0.3-0.2-0.7-0.2-1,0c-0.3,0.1-0.5,0.3-0.6,0.6c-0.1,0.3-0.1,0.6,0,0.9c0.1,0.2,0.3,0.4,0.5,0.5
								c0.2,0.1,0.5,0.1,0.7,0c0.4-0.2,0.6-0.6,0.5-1c0-0.1-0.1-0.1-0.2-0.1s-0.1,0.1-0.1,0.2c0.1,0.2,0,0.5-0.3,0.6
								c-0.3,0.1-0.7-0.1-0.8-0.4c-0.1-0.2-0.1-0.4,0-0.6c0.1-0.2,0.3-0.4,0.5-0.4c0.3-0.1,0.6-0.1,0.8,0c0.3,0.1,0.5,0.3,0.6,0.6
								c0.1,0.4,0.1,0.8-0.1,1.1c0,0-0.6,1.4-3.4,3.1c-0.1,0-0.1,0.1-0.1,0.2C81.1,66.7,81.2,66.8,81.2,66.8z"/>
							<path class="st0" d="M82.8,69.1c0.8,0.1,1.2,0,1.2,0c0.6,0,1.2-0.3,1.6-0.8C85.9,68,86,67.5,86,67c-0.1-0.5-0.3-0.9-0.7-1.2
								c-0.3-0.2-0.7-0.4-1.1-0.3c-0.4,0-0.7,0.2-1,0.5c-0.4,0.5-0.3,1.3,0.2,1.7c0.4,0.3,1,0.3,1.4-0.2c0.1-0.1,0-0.2,0-0.2
								c-0.1,0-0.2,0-0.2,0c-0.2,0.3-0.7,0.3-1,0.1c-0.4-0.3-0.4-0.9-0.1-1.2c0.2-0.2,0.5-0.4,0.8-0.4c0.3,0,0.6,0,0.9,0.2
								c0.3,0.2,0.5,0.6,0.5,1c0.1,0.4-0.1,0.8-0.3,1.1c-0.3,0.4-0.8,0.7-1.4,0.7c0,0-1.2,0.2-3.6-0.7c-0.1,0-0.2,0-0.2,0.1
								c0,0.1,0,0.2,0.1,0.2C81.3,68.8,82.1,69,82.8,69.1z"/>
							<path class="st0" d="M81.9,63c0.1,0,0.1,0,0.2-0.1c0-0.1,0-0.2-0.1-0.2c-3-1.5-3.6-2.8-3.6-2.8c-0.2-0.3-0.3-0.8-0.2-1.1
								c0.2-0.6,0.8-0.9,1.3-0.7c0.4,0.1,0.7,0.6,0.6,1c-0.1,0.3-0.4,0.5-0.8,0.4c-0.2-0.1-0.4-0.3-0.3-0.6c0-0.1,0-0.2-0.1-0.2
								c-0.1,0-0.2,0-0.2,0.1c-0.1,0.4,0.1,0.8,0.5,1c0.5,0.1,1-0.1,1.2-0.6c0.2-0.6-0.2-1.2-0.8-1.4c-0.7-0.2-1.5,0.2-1.7,0.9
								c-0.1,0.5-0.1,1,0.2,1.4C78.1,60.1,78.7,61.4,81.9,63C81.8,63,81.9,63,81.9,63z"/>
							<path class="st0" d="M85.3,64.6c0.6,0.1,0.8,0,0.8,0c0.4,0,0.8-0.2,1.1-0.5c0.4-0.5,0.3-1.3-0.2-1.7c-0.4-0.3-1-0.3-1.4,0.2
								c-0.3,0.4-0.2,0.9,0.1,1.2c0.3,0.2,0.7,0.2,1-0.1c0.1-0.1,0-0.2,0-0.2s-0.2,0-0.2,0c-0.1,0.2-0.4,0.2-0.6,0.1
								c-0.2-0.2-0.3-0.5-0.1-0.7c0.2-0.3,0.7-0.4,1-0.1c0.4,0.3,0.5,0.9,0.2,1.3c-0.2,0.3-0.5,0.4-0.8,0.4c0,0-0.6,0.1-1.7-0.2
								c-0.1,0-0.2,0-0.2,0.1c0,0.1,0,0.2,0.1,0.2C84.7,64.5,85.1,64.6,85.3,64.6z"/>
							<path class="st0" d="M84.6,62c0.1,0,0.1,0,0.2-0.1c0.5-1.1,0.4-1.8,0.4-1.8c0-0.4-0.1-0.8-0.4-1.1c-0.2-0.2-0.5-0.3-0.9-0.3
								c-0.3,0-0.6,0.1-0.8,0.4c-0.4,0.4-0.4,1,0,1.4c0.3,0.3,0.8,0.3,1.2,0c0.3-0.3,0.3-0.7,0-1c-0.1-0.1-0.2-0.1-0.2,0
								s-0.1,0.1,0,0.2c0.2,0.2,0.2,0.4,0,0.5c-0.2,0.2-0.5,0.2-0.7,0c-0.3-0.3-0.3-0.7,0-1c0.2-0.2,0.4-0.3,0.6-0.3
								c0.2,0,0.5,0.1,0.6,0.2c0.2,0.2,0.4,0.6,0.3,0.9c0,0,0,0.6-0.4,1.6C84.4,61.9,84.5,62,84.6,62C84.6,62,84.6,62,84.6,62z"/>
						</g>
					</g>
				</g>
				<g>
					<path class="st0" d="M79.4,68.5c2.6-1.9,3.1-5.6,1.2-8.2c-0.1-0.1,0-0.2,0.1-0.3c0.1-0.1,0.2,0,0.3,0c2.1,2.8,1.5,6.8-1.3,8.9
						c-1.4,1-3.1,1.4-4.7,1.2c-0.9-0.1-1.8-0.4-2.5-0.9l0.1-0.5C74.6,70,77.3,70.1,79.4,68.5z"/>
				</g>
			</g>
		</g>
	</g>
	<g>
		<g>
			<g>
				<g>
					<g>
						<path class="st0" d="M56.5,51.3c-0.4,0-0.8,0.3-0.9,0.7c0,0.2,0,0.4,0.1,0.6c0.1,0.2,0.3,0.3,0.5,0.3c0.3,0.1,0.7-0.1,0.8-0.5
							c0-0.1,0-0.2-0.1-0.2c-0.1,0-0.2,0-0.2,0.1c0,0.2-0.2,0.3-0.4,0.2c-0.1,0-0.2-0.1-0.3-0.2c-0.1-0.1-0.1-0.2-0.1-0.3
							c0.1-0.3,0.4-0.5,0.7-0.4c0.4,0.1,0.7,0.5,0.6,1c-0.1,0.3-0.3,0.5-0.5,0.7c0,0-0.6,0.4-1.9,0.5c-0.1,0-0.1,0.1-0.1,0.2
							c0,0.1,0.1,0.2,0.2,0.1c1.5-0.1,2-0.5,2.1-0.5c0.3-0.2,0.6-0.5,0.6-0.8c0.1-0.6-0.2-1.2-0.8-1.3
							C56.6,51.3,56.6,51.3,56.5,51.3z"/>
						<g>
							<path class="st0" d="M52.2,48.6C52.2,48.6,52.2,48.6,52.2,48.6c-2.9,2.1-3.2,3.6-3.2,3.6c-0.2,0.4-0.1,0.9,0.1,1.4
								c0.2,0.3,0.4,0.6,0.8,0.7c0.3,0.1,0.7,0.1,1-0.1c0.3-0.1,0.5-0.4,0.6-0.7c0.1-0.3,0.1-0.6-0.1-0.9c-0.1-0.2-0.3-0.4-0.5-0.5
								c-0.2-0.1-0.5-0.1-0.7,0.1c-0.4,0.2-0.5,0.7-0.3,1c0,0.1,0.1,0.1,0.2,0.1c0.1,0,0.1-0.1,0.1-0.2c-0.1-0.2,0-0.5,0.2-0.6
								c0.3-0.2,0.7,0,0.9,0.3c0.1,0.2,0.1,0.4,0,0.6s-0.2,0.4-0.4,0.5c-0.2,0.1-0.5,0.2-0.8,0.1s-0.5-0.3-0.6-0.5
								c-0.2-0.4-0.2-0.8-0.1-1.1c0,0,0.4-1.4,3-3.5c0.1,0,0.1-0.1,0-0.2C52.3,48.7,52.3,48.6,52.2,48.6z"/>
							<path class="st0" d="M50.4,46.5c-0.8,0-1.2,0.1-1.2,0.1c-0.6,0.1-1.2,0.5-1.5,1c-0.2,0.4-0.3,0.9-0.2,1.3
								c0.1,0.5,0.4,0.8,0.8,1.1c0.3,0.2,0.7,0.3,1.1,0.2s0.7-0.3,0.9-0.7c0.3-0.6,0.2-1.3-0.4-1.6c-0.5-0.3-1.1-0.1-1.3,0.3
								c0,0.1,0,0.2,0,0.2c0.1,0,0.2,0,0.2,0c0.2-0.3,0.6-0.4,0.9-0.2c0.4,0.3,0.6,0.8,0.3,1.2c-0.2,0.3-0.4,0.5-0.7,0.5
								c-0.3,0.1-0.6,0-0.9-0.1c-0.3-0.2-0.6-0.5-0.7-0.9c-0.1-0.4,0-0.8,0.2-1.1c0.3-0.5,0.8-0.8,1.3-0.9c0,0,1.2-0.4,3.7,0.3
								c0.1,0,0.2,0,0.2-0.1c0-0.1,0-0.2-0.1-0.2C51.9,46.6,51,46.5,50.4,46.5z"/>
							<path class="st0" d="M52,52.5c-0.1,0-0.1,0-0.1,0.1c0,0.1,0,0.2,0.1,0.2c3.1,1.1,3.9,2.3,3.9,2.3c0.3,0.3,0.4,0.7,0.3,1.1
								c-0.1,0.6-0.7,1-1.2,0.9c-0.5-0.1-0.8-0.5-0.7-1c0.1-0.3,0.4-0.6,0.7-0.5c0.3,0,0.4,0.3,0.4,0.5c0,0.1,0,0.2,0.1,0.2
								c0.1,0,0.2,0,0.2-0.1c0.1-0.4-0.2-0.8-0.6-0.9c-0.5-0.1-1,0.3-1.1,0.8c-0.1,0.6,0.3,1.2,0.9,1.3c0.7,0.1,1.5-0.4,1.6-1.1
								c0.1-0.5,0-1-0.4-1.3C56.1,54.9,55.3,53.6,52,52.5C52.1,52.5,52.1,52.5,52,52.5z"/>
							<path class="st0" d="M48.4,51.3c-0.6,0-0.8,0.1-0.9,0.1c-0.4,0.1-0.8,0.3-1,0.7c-0.3,0.6-0.2,1.3,0.4,1.6
								c0.5,0.3,1.1,0.1,1.4-0.3c0.2-0.4,0.1-0.9-0.3-1.1c-0.3-0.2-0.8-0.1-0.9,0.2c0,0.1,0,0.2,0.1,0.2c0.1,0,0.2,0,0.2,0
								c0.1-0.2,0.3-0.2,0.5-0.1c0.2,0.1,0.3,0.5,0.2,0.7c-0.2,0.3-0.6,0.4-1,0.2c-0.4-0.3-0.6-0.8-0.3-1.2c0.2-0.3,0.5-0.5,0.8-0.5
								c0,0,0.6-0.2,1.7,0c0.1,0,0.2,0,0.2-0.1c0-0.1,0-0.2-0.1-0.2C49,51.3,48.7,51.3,48.4,51.3z"/>
							<path class="st0" d="M49.5,53.8c-0.1,0-0.1,0-0.1,0.1c-0.3,1.2-0.2,1.8-0.2,1.8c0,0.4,0.2,0.8,0.6,1c0.3,0.2,0.6,0.3,0.9,0.2
								s0.6-0.2,0.8-0.5c0.3-0.4,0.2-1.1-0.2-1.4c-0.4-0.3-0.9-0.2-1.2,0.2c-0.2,0.3-0.2,0.7,0.1,1c0.1,0,0.2,0,0.2,0s0-0.2,0-0.2
								c-0.2-0.1-0.2-0.4-0.1-0.5c0.2-0.2,0.5-0.3,0.7-0.1c0.3,0.2,0.4,0.7,0.1,1c-0.1,0.2-0.4,0.3-0.6,0.3c-0.2,0-0.5,0-0.7-0.2
								c-0.3-0.2-0.4-0.5-0.5-0.8c0,0-0.1-0.6,0.2-1.7C49.6,53.9,49.6,53.8,49.5,53.8C49.5,53.8,49.5,53.8,49.5,53.8z"/>
						</g>
					</g>
				</g>
				<g>
					<path class="st0" d="M53.8,46.7c-2.4,2.2-2.4,6-0.2,8.3c0.1,0.1,0.1,0.2,0,0.3c-0.1,0.1-0.2,0.1-0.3,0c-2.4-2.5-2.3-6.6,0.2-9
						c1.3-1.2,2.9-1.8,4.5-1.8c0.9,0,1.8,0.2,2.6,0.6l0,0.5C58.4,44.6,55.7,44.9,53.8,46.7z"/>
				</g>
			</g>
			<g>
				<g>
					<g>
						<path class="st0" d="M56.6,42.7c0.4,0,0.8-0.2,0.9-0.6c0.1-0.2,0-0.4,0-0.6s-0.2-0.3-0.4-0.4c-0.3-0.1-0.7,0.1-0.8,0.4
							c0,0.1,0,0.2,0.1,0.2c0.1,0,0.2,0,0.2-0.1c0-0.2,0.2-0.3,0.4-0.2c0.1,0,0.2,0.1,0.3,0.2c0.1,0.1,0.1,0.2,0,0.3
							c-0.1,0.3-0.4,0.5-0.8,0.4c-0.4-0.1-0.6-0.6-0.5-1c0.1-0.3,0.3-0.5,0.6-0.6c0,0,0.6-0.3,2-0.3c0.1,0,0.2-0.1,0.2-0.2
							s-0.1-0.2-0.2-0.2c-1.5,0-2.1,0.4-2.1,0.4c-0.3,0.1-0.6,0.4-0.7,0.8c-0.2,0.6,0.1,1.2,0.7,1.4C56.5,42.7,56.6,42.7,56.6,42.7z
							"/>
						<g>
							<path class="st0" d="M60.7,45.6C60.8,45.6,60.8,45.6,60.7,45.6c3-1.9,3.4-3.4,3.5-3.4c0.2-0.4,0.2-0.9,0-1.4
								c-0.2-0.3-0.4-0.6-0.8-0.7c-0.3-0.1-0.7-0.1-1.1,0c-0.3,0.1-0.5,0.3-0.6,0.6c-0.1,0.3-0.1,0.6,0,0.9c0.1,0.2,0.3,0.4,0.5,0.5
								s0.5,0.1,0.7,0c0.4-0.2,0.6-0.6,0.4-1c0-0.1-0.1-0.1-0.2-0.1c-0.1,0-0.1,0.1-0.1,0.2c0.1,0.2,0,0.5-0.2,0.6
								c-0.3,0.1-0.7,0-0.8-0.3c-0.1-0.2-0.1-0.4,0-0.6c0.1-0.2,0.2-0.4,0.4-0.5c0.3-0.1,0.5-0.1,0.8,0c0.3,0.1,0.5,0.3,0.6,0.6
								c0.2,0.4,0.2,0.8,0,1.1c0,0-0.5,1.4-3.2,3.3c-0.1,0.1-0.1,0.1,0,0.2C60.6,45.6,60.7,45.6,60.7,45.6z"/>
							<path class="st0" d="M62.4,47.9c0.8,0.1,1.2,0,1.2,0c0.6-0.1,1.2-0.4,1.5-0.9c0.3-0.4,0.4-0.9,0.3-1.3s-0.3-0.9-0.7-1.1
								c-0.3-0.2-0.7-0.3-1.1-0.2c-0.4,0.1-0.7,0.3-0.9,0.6c-0.4,0.5-0.2,1.3,0.3,1.7c0.4,0.3,1.1,0.2,1.4-0.2c0.1-0.1,0-0.2,0-0.2
								s-0.2,0-0.2,0c-0.2,0.3-0.6,0.4-0.9,0.2C62.8,46,62.7,45.4,63,45c0.2-0.2,0.4-0.4,0.8-0.5c0.3,0,0.6,0,0.9,0.2
								c0.3,0.2,0.5,0.6,0.6,1s0,0.8-0.2,1.1c-0.3,0.5-0.8,0.7-1.3,0.8c0,0-1.2,0.3-3.7-0.5c-0.1,0-0.2,0-0.2,0.1
								c0,0.1,0,0.2,0.1,0.2C60.9,47.7,61.8,47.9,62.4,47.9z"/>
							<path class="st0" d="M61.2,41.8c0.1,0,0.1,0,0.1-0.1c0-0.1,0-0.2-0.1-0.2c-3.1-1.3-3.8-2.6-3.8-2.6c-0.2-0.3-0.3-0.8-0.2-1.1
								c0.1-0.6,0.7-0.9,1.3-0.8c0.4,0.1,0.7,0.6,0.6,1c-0.1,0.3-0.4,0.5-0.8,0.5c-0.2-0.1-0.4-0.3-0.4-0.6c0-0.1,0-0.2-0.1-0.2
								c-0.1,0-0.2,0-0.2,0.1c-0.1,0.4,0.2,0.8,0.6,0.9c0.5,0.1,1-0.2,1.1-0.7c0.1-0.6-0.2-1.2-0.8-1.4c-0.7-0.2-1.5,0.3-1.6,1
								c-0.1,0.5,0,1,0.3,1.3C57.2,39.1,57.9,40.5,61.2,41.8C61.1,41.8,61.1,41.8,61.2,41.8z"/>
							<path class="st0" d="M64.7,43.2c0.6,0,0.8,0,0.8,0c0.4,0,0.8-0.3,1-0.6c0.4-0.5,0.2-1.3-0.3-1.7c-0.4-0.3-1.1-0.2-1.4,0.2
								c-0.3,0.4-0.2,0.9,0.2,1.1c0.3,0.2,0.7,0.1,1-0.2c0.1-0.1,0-0.2,0-0.2s-0.2,0-0.2,0c-0.1,0.2-0.4,0.2-0.5,0.1
								c-0.2-0.2-0.3-0.5-0.1-0.7c0.2-0.3,0.7-0.4,1-0.2c0.4,0.3,0.5,0.9,0.2,1.2c-0.2,0.3-0.5,0.5-0.8,0.5c0,0-0.6,0.1-1.7-0.1
								c-0.1,0-0.2,0-0.2,0.1c0,0.1,0,0.2,0.1,0.2C64.1,43.2,64.4,43.2,64.7,43.2z"/>
							<path class="st0" d="M63.8,40.7c0.1,0,0.1,0,0.1-0.1c0.4-1.2,0.3-1.8,0.3-1.8c0-0.4-0.2-0.8-0.5-1.1
								c-0.2-0.2-0.5-0.3-0.9-0.3c-0.3,0-0.6,0.2-0.8,0.4c-0.4,0.4-0.3,1,0.1,1.4c0.3,0.3,0.9,0.3,1.2-0.1c0.2-0.3,0.2-0.7-0.1-1
								c-0.1,0-0.2,0-0.2,0c-0.1,0.1-0.1,0.2,0,0.2c0.2,0.1,0.2,0.4,0,0.5c-0.2,0.2-0.5,0.2-0.7,0.1c-0.3-0.2-0.3-0.7-0.1-1
								c0.2-0.2,0.4-0.3,0.6-0.3s0.5,0.1,0.7,0.2c0.2,0.2,0.4,0.5,0.4,0.9c0,0,0.1,0.6-0.3,1.7C63.7,40.6,63.7,40.7,63.8,40.7
								C63.8,40.7,63.8,40.7,63.8,40.7z"/>
						</g>
					</g>
				</g>
				<g>
					<path class="st0" d="M59,47.5c2.5-2.1,2.8-5.8,0.7-8.3c-0.1-0.1-0.1-0.2,0-0.3c0.1-0.1,0.2-0.1,0.3,0c2.2,2.7,1.9,6.7-0.8,8.9
						c-1.3,1.1-3,1.6-4.6,1.5c-0.9-0.1-1.8-0.3-2.6-0.8l0-0.5C54.3,49.3,57.1,49.2,59,47.5z"/>
				</g>
			</g>
		</g>
		<g>
			<g>
				<g>
					<g>
						<path class="st0" d="M76.9,43.1c-0.4,0-0.8-0.2-0.9-0.6c0-0.2,0-0.4,0.1-0.6c0.1-0.2,0.2-0.3,0.5-0.3c0.3-0.1,0.7,0.1,0.8,0.4
							c0,0.1,0,0.2-0.1,0.2c-0.1,0-0.2,0-0.2-0.1c0-0.2-0.2-0.3-0.4-0.2c-0.1,0-0.2,0.1-0.3,0.2c-0.1,0.1-0.1,0.2,0,0.3
							c0.1,0.3,0.4,0.5,0.7,0.4c0.4-0.1,0.7-0.5,0.5-1c-0.1-0.3-0.3-0.5-0.5-0.6c0,0-0.6-0.4-1.9-0.4c-0.1,0-0.2-0.1-0.2-0.1
							s0.1-0.2,0.2-0.2c1.5,0,2.1,0.4,2.1,0.4c0.3,0.2,0.6,0.5,0.7,0.8c0.2,0.6-0.2,1.2-0.7,1.3C77,43.1,77,43.1,76.9,43.1z"/>
						<g>
							<path class="st0" d="M72.7,46C72.7,46,72.6,46,72.7,46c-2.9-2-3.3-3.5-3.4-3.5c-0.2-0.4-0.2-0.9,0-1.4
								c0.2-0.3,0.4-0.6,0.8-0.7s0.7-0.1,1,0c0.3,0.1,0.5,0.4,0.6,0.6c0.1,0.3,0.1,0.6,0,0.9c-0.1,0.2-0.3,0.4-0.5,0.5
								c-0.2,0.1-0.5,0.1-0.7,0c-0.4-0.2-0.6-0.6-0.4-1c0-0.1,0.1-0.1,0.2-0.1c0.1,0,0.1,0.1,0.1,0.2c-0.1,0.2,0,0.5,0.2,0.6
								c0.3,0.2,0.7,0,0.8-0.3c0.1-0.2,0.1-0.4,0-0.6c-0.1-0.2-0.2-0.4-0.4-0.5c-0.3-0.1-0.5-0.1-0.8,0c-0.3,0.1-0.5,0.3-0.6,0.5
								c-0.2,0.4-0.2,0.8,0,1.1c0,0,0.4,1.4,3.2,3.3c0.1,0.1,0.1,0.1,0,0.2C72.8,45.9,72.8,46,72.7,46z"/>
							<path class="st0" d="M71,48.2c-0.8,0-1.2-0.1-1.2-0.1c-0.6-0.1-1.2-0.4-1.5-1c-0.3-0.4-0.3-0.9-0.3-1.3
								c0.1-0.5,0.4-0.9,0.8-1.1c0.3-0.2,0.7-0.3,1.1-0.2c0.4,0.1,0.7,0.3,0.9,0.6c0.4,0.5,0.2,1.3-0.3,1.6
								c-0.5,0.3-1.1,0.2-1.4-0.3c0-0.1,0-0.2,0-0.2c0.1,0,0.2,0,0.2,0c0.2,0.3,0.6,0.4,1,0.2c0.4-0.3,0.5-0.8,0.2-1.2
								c-0.2-0.3-0.4-0.4-0.7-0.5c-0.3-0.1-0.6,0-0.9,0.2c-0.3,0.2-0.5,0.5-0.6,0.9c-0.1,0.4,0,0.8,0.2,1.1c0.3,0.5,0.8,0.8,1.3,0.8
								c0,0,1.2,0.3,3.7-0.4c0.1,0,0.2,0,0.2,0.1c0,0.1,0,0.2-0.1,0.2C72.5,48,71.6,48.2,71,48.2z"/>
							<path class="st0" d="M72.4,42.1c-0.1,0-0.1,0-0.2-0.1c0-0.1,0-0.2,0.1-0.2c3.1-1.2,3.8-2.5,3.8-2.5c0.2-0.3,0.3-0.7,0.3-1.1
								c-0.1-0.6-0.7-1-1.3-0.8c-0.5,0.1-0.7,0.5-0.6,1c0.1,0.3,0.4,0.6,0.7,0.5c0.3,0,0.4-0.3,0.4-0.6c0-0.1,0-0.2,0.1-0.2
								c0.1,0,0.2,0,0.2,0.1c0.1,0.4-0.2,0.8-0.6,0.9c-0.5,0.1-1-0.2-1.1-0.7c-0.1-0.6,0.3-1.2,0.9-1.3c0.7-0.2,1.5,0.3,1.6,1.1
								c0.1,0.5,0,1-0.3,1.4C76.4,39.6,75.7,40.9,72.4,42.1C72.4,42.1,72.4,42.1,72.4,42.1z"/>
							<path class="st0" d="M68.8,43.5c-0.6,0-0.8,0-0.9-0.1c-0.4,0-0.8-0.3-1-0.6c-0.4-0.5-0.2-1.3,0.4-1.7
								c0.5-0.3,1.1-0.2,1.4,0.3c0.2,0.4,0.1,0.9-0.2,1.1c-0.3,0.2-0.7,0.1-1-0.2c0-0.1,0-0.2,0-0.2c0.1-0.1,0.2,0,0.2,0
								c0.1,0.2,0.4,0.2,0.5,0.1c0.2-0.2,0.3-0.5,0.1-0.7c-0.2-0.3-0.6-0.4-1-0.2c-0.4,0.3-0.5,0.8-0.3,1.2c0.2,0.3,0.5,0.5,0.8,0.5
								c0,0,0.6,0.1,1.7-0.1c0.1,0,0.2,0,0.2,0.1c0,0.1,0,0.2-0.1,0.2C69.4,43.4,69.1,43.4,68.8,43.5z"/>
							<path class="st0" d="M69.8,40.9c-0.1,0-0.1,0-0.2-0.1c-0.4-1.2-0.3-1.8-0.3-1.8c0-0.4,0.2-0.8,0.5-1.1
								c0.2-0.2,0.6-0.3,0.9-0.3c0.3,0,0.6,0.2,0.8,0.4c0.3,0.4,0.3,1-0.1,1.4c-0.3,0.3-0.9,0.2-1.2-0.1c-0.2-0.3-0.2-0.7,0.1-1
								c0.1,0,0.2,0,0.2,0s0,0.2,0,0.2c-0.2,0.1-0.2,0.4-0.1,0.5c0.2,0.2,0.5,0.3,0.7,0.1c0.3-0.2,0.3-0.7,0.1-1
								C71.2,38.2,71,38,70.7,38c-0.2,0-0.5,0-0.7,0.2c-0.3,0.2-0.4,0.5-0.4,0.9c0,0-0.1,0.6,0.3,1.7C69.9,40.8,69.9,40.9,69.8,40.9
								C69.8,40.9,69.8,40.9,69.8,40.9z"/>
						</g>
					</g>
				</g>
				<g>
					<path class="st0" d="M74.4,47.9c-2.4-2.2-2.7-5.9-0.5-8.3c0.1-0.1,0.1-0.2,0-0.3c-0.1-0.1-0.2-0.1-0.3,0
						c-2.3,2.6-2.1,6.6,0.5,8.9c1.3,1.2,3,1.7,4.6,1.6c0.9-0.1,1.8-0.3,2.6-0.7l0-0.5C79.1,49.8,76.3,49.6,74.4,47.9z"/>
				</g>
			</g>
			<g>
				<g>
					<g>
						<path class="st0" d="M77.3,51.7c0.4,0,0.8,0.2,0.9,0.6c0.1,0.2,0.1,0.4,0,0.6c-0.1,0.2-0.2,0.3-0.4,0.4
							c-0.3,0.1-0.7,0-0.8-0.4c0-0.1,0-0.2,0.1-0.2c0.1,0,0.2,0,0.2,0.1c0.1,0.2,0.2,0.3,0.4,0.2c0.1,0,0.2-0.1,0.2-0.2
							c0.1-0.1,0.1-0.2,0-0.3c-0.1-0.3-0.5-0.5-0.8-0.4c-0.4,0.1-0.6,0.6-0.5,1c0.1,0.3,0.3,0.5,0.6,0.6c0,0,0.6,0.3,2,0.3
							c0.1,0,0.2,0.1,0.2,0.1s-0.1,0.1-0.1,0.1c-1.5,0.1-2.1-0.3-2.1-0.3c-0.3-0.1-0.6-0.4-0.7-0.8c-0.2-0.6,0.1-1.2,0.7-1.4
							C77.2,51.8,77.3,51.8,77.3,51.7z"/>
						<g>
							<path class="st0" d="M81.3,48.7c0,0,0.1,0,0.1,0c3,1.8,3.5,3.2,3.5,3.3c0.2,0.4,0.2,0.9,0.1,1.4c-0.1,0.3-0.4,0.6-0.7,0.8
								c-0.3,0.1-0.7,0.1-1.1,0c-0.3-0.1-0.5-0.3-0.6-0.6c-0.1-0.3-0.1-0.6,0-0.9c0.1-0.2,0.3-0.4,0.5-0.5c0.2-0.1,0.5-0.1,0.7,0
								c0.4,0.2,0.6,0.6,0.4,1c0,0.1-0.1,0.1-0.2,0.1c-0.1,0-0.1-0.1-0.1-0.2c0.1-0.2,0-0.5-0.3-0.6c-0.3-0.1-0.7,0-0.8,0.3
								c-0.1,0.2-0.1,0.4,0,0.6c0.1,0.2,0.2,0.4,0.4,0.4c0.3,0.1,0.6,0.1,0.8,0s0.5-0.3,0.6-0.6c0.1-0.4,0.1-0.8-0.1-1.1
								c0,0-0.5-1.4-3.4-3.1C81.2,48.9,81.2,48.8,81.3,48.7C81.2,48.7,81.3,48.7,81.3,48.7z"/>
							<path class="st0" d="M82.9,46.3c0.8-0.1,1.2,0,1.2,0c0.6,0,1.2,0.3,1.6,0.9c0.3,0.4,0.4,0.8,0.3,1.3
								c-0.1,0.5-0.3,0.9-0.7,1.2c-0.3,0.2-0.7,0.3-1.1,0.3c-0.4,0-0.7-0.2-1-0.6c-0.4-0.5-0.3-1.3,0.2-1.7c0.4-0.3,1-0.2,1.4,0.2
								c0.1,0.1,0,0.2,0,0.2s-0.2,0-0.2,0c-0.2-0.3-0.7-0.4-1-0.1c-0.4,0.3-0.5,0.9-0.2,1.2c0.2,0.2,0.5,0.4,0.8,0.5
								c0.3,0,0.6,0,0.9-0.2c0.3-0.2,0.5-0.6,0.6-1c0-0.4-0.1-0.8-0.3-1.1c-0.3-0.4-0.8-0.7-1.4-0.7c0,0-1.2-0.2-3.7,0.6
								c-0.1,0-0.2,0-0.2-0.1c0-0.1,0-0.2,0.1-0.2C81.4,46.6,82.3,46.4,82.9,46.3z"/>
							<path class="st0" d="M81.9,52.4c0.1,0,0.1,0,0.1,0.1c0,0.1,0,0.2-0.1,0.2c-3,1.4-3.7,2.7-3.7,2.7c-0.2,0.3-0.3,0.8-0.2,1.1
								c0.2,0.6,0.7,0.9,1.3,0.8c0.4-0.1,0.7-0.6,0.6-1c-0.1-0.3-0.4-0.5-0.8-0.4c-0.2,0.1-0.4,0.3-0.3,0.6c0,0.1,0,0.2-0.1,0.2
								c-0.1,0-0.2,0-0.2-0.1c-0.1-0.4,0.1-0.8,0.5-1c0.5-0.1,1,0.2,1.1,0.6c0.2,0.6-0.2,1.2-0.8,1.4c-0.7,0.2-1.5-0.2-1.7-1
								c-0.1-0.5,0-1,0.2-1.4C78.1,55.3,78.7,53.9,81.9,52.4C81.9,52.5,81.9,52.5,81.9,52.4z"/>
							<path class="st0" d="M85.4,50.9c0.6-0.1,0.8,0,0.8,0c0.4,0,0.8,0.2,1,0.6c0.4,0.5,0.3,1.3-0.2,1.7c-0.4,0.3-1.1,0.2-1.4-0.2
								c-0.3-0.4-0.2-0.9,0.2-1.2c0.3-0.2,0.7-0.2,1,0.1c0.1,0.1,0,0.2,0,0.2s-0.2,0-0.2,0c-0.1-0.2-0.4-0.2-0.5-0.1
								c-0.2,0.2-0.3,0.5-0.1,0.7c0.2,0.3,0.7,0.4,1,0.1c0.4-0.3,0.5-0.9,0.2-1.3c-0.2-0.3-0.5-0.4-0.8-0.5c0,0-0.6-0.1-1.7,0.2
								c-0.1,0-0.2,0-0.2-0.1c0-0.1,0-0.2,0.1-0.2C84.8,51,85.1,50.9,85.4,50.9z"/>
							<path class="st0" d="M84.6,53.5c0.1,0,0.1,0,0.2,0.1c0.5,1.2,0.4,1.8,0.4,1.8c0,0.4-0.2,0.8-0.5,1.1
								c-0.2,0.2-0.5,0.3-0.9,0.3c-0.3,0-0.6-0.2-0.8-0.4c-0.4-0.4-0.3-1,0.1-1.4c0.3-0.3,0.8-0.3,1.2,0c0.3,0.3,0.2,0.7,0,1
								c-0.1,0.1-0.2,0-0.2,0c-0.1-0.1-0.1-0.2,0-0.2c0.2-0.2,0.2-0.4,0-0.5c-0.2-0.2-0.5-0.2-0.7,0c-0.3,0.3-0.3,0.7,0,1
								c0.2,0.2,0.4,0.3,0.6,0.3c0.2,0,0.5-0.1,0.7-0.2c0.2-0.2,0.4-0.5,0.4-0.9c0,0,0.1-0.6-0.4-1.7C84.4,53.6,84.5,53.5,84.6,53.5
								C84.5,53.5,84.6,53.5,84.6,53.5z"/>
						</g>
					</g>
				</g>
				<g>
					<path class="st0" d="M79.6,46.9c2.6,2,3,5.7,1,8.3c-0.1,0.1-0.1,0.2,0,0.3c0.1,0.1,0.2,0.1,0.3,0c2.2-2.8,1.7-6.7-1.1-8.9
						c-1.4-1.1-3.1-1.5-4.7-1.3c-0.9,0.1-1.8,0.4-2.5,0.9l0.1,0.5C74.7,45.2,77.5,45.3,79.6,46.9z"/>
				</g>
			</g>
		</g>
	</g>
</g>
<text transform="matrix(1 0 0 1 60.9761 62.2017)" class="st0 st1 st2">E</text>
</svg>
