<?xml version="1.0" encoding="utf-8"?>
<!-- Generator: Adobe Illustrator 19.2.1, SVG Export Plug-In . SVG Version: 6.00 Build 0)  -->
<svg version="1.1" id="Layer_1" xmlns="http://www.w3.org/2000/svg" xmlns:xlink="http://www.w3.org/1999/xlink" x="0px" y="0px"
	 viewBox="0 0 10.4 9.7" style="enable-background:new 0 0 10.4 9.7;" xml:space="preserve">
<style type="text/css">
	.st0{fill:#FFDE17;}
	.st1{fill:#FFFFFF;}
</style>
<g>
	<path class="st0" d="M1.5,1.4c0,0-0.2,0.5-0.2,1.4c0,1.5,0.8,2.9,1.4,3.8l0,0l0,0l0,0l0,0C3.9,8.2,5,9,5.7,9.3
		C6.5,9.7,7,9.7,7.1,9.7h0L8,9c0,0,0-0.1,0-0.1l0,0L6.6,6.9c0,0-0.1,0-0.1,0c-0.7,0.5-1,0.6-1.1,0.7C4.6,7.3,3.8,6.3,3.5,6
		C3.3,5.6,2.7,4.5,2.7,3.7c0.1,0,0.4-0.2,1.1-0.7c0,0,0-0.1,0-0.1l-1.3-2l0,0c0,0-0.1,0-0.1,0L1.5,1.4C1.5,1.3,1.5,1.4,1.5,1.4z"/>
	<path class="st1" d="M8.4,4c0.2,0.7,0.1,1.4-0.1,2.1l0.9,0.1c0.2-0.8,0.2-1.6,0-2.4C8.8,2.2,7.4,1,5.8,0.7L5.5,1.5
		C6.9,1.7,8,2.6,8.4,4z"/>
	<path class="st1" d="M5.1,2.8c1.1,0,2.1,1,2.1,2.1c0,0.4-0.1,0.8-0.3,1l0.6,0c0.1-0.3,0.2-0.7,0.2-1.1c0-1.4-1.1-2.6-2.5-2.7
		L5.1,2.8L5.1,2.8z"/>
</g>
</svg>
