<?xml version="1.0" encoding="utf-8"?>
<!-- Generator: Adobe Illustrator 19.2.1, SVG Export Plug-In . SVG Version: 6.00 Build 0)  -->
<svg version="1.1" id="Layer_1" xmlns="http://www.w3.org/2000/svg" xmlns:xlink="http://www.w3.org/1999/xlink" x="0px" y="0px"
	 viewBox="0 0 10.4 9.7" style="enable-background:new 0 0 10.4 9.7;" xml:space="preserve">
<style type="text/css">
	.st0{fill:#FFDE17;}
</style>
<g>
	<path class="st0" d="M7.2,0H4.6l-3,3v5c0,0.8,0.6,1.4,1.4,1.4h4.2C8,9.4,8.6,8.8,8.6,8V1.4C8.6,0.7,8,0,7.2,0z M8.2,8
		c0,0.6-0.4,1-1,1H3C2.5,9,2,8.6,2,8V3h1.2C4,3,4.6,2.3,4.6,1.6V0.4h2.6c0.6,0,1,0.4,1,1V8z"/>
	<g>
		<rect x="3.2" y="3.9" class="st0" width="3.9" height="0.6"/>
		<rect x="3.2" y="5.2" class="st0" width="3.9" height="0.6"/>
		<rect x="3.2" y="6.4" class="st0" width="3.9" height="0.6"/>
	</g>
</g>
</svg>
