<?xml version="1.0" encoding="utf-8"?>
<!-- Generator: Adobe Illustrator 19.2.1, SVG Export Plug-In . SVG Version: 6.00 Build 0)  -->
<svg version="1.1" id="Layer_1" xmlns="http://www.w3.org/2000/svg" xmlns:xlink="http://www.w3.org/1999/xlink" x="0px" y="0px"
	 viewBox="0 0 40 40" style="enable-background:new 0 0 40 40;" xml:space="preserve">
<metadata><?xpacket begin="﻿" id="W5M0MpCehiHzreSzNTczkc9d"?>
<x:xmpmeta xmlns:x="adobe:ns:meta/" x:xmptk="Adobe XMP Core 5.6-c111 79.158366, 2015/09/25-01:12:00        ">
   <rdf:RDF xmlns:rdf="http://www.w3.org/1999/02/22-rdf-syntax-ns#">
      <rdf:Description rdf:about=""
            xmlns:ExtensisFontSense="http://www.extensis.com/meta/FontSense/">
         <ExtensisFontSense:slug>
            <rdf:Bag>
               <rdf:li>
                  <rdf:Description>
                     <ExtensisFontSense:Family>Big Caslon</ExtensisFontSense:Family>
                     <ExtensisFontSense:Version>10.0</ExtensisFontSense:Version>
                     <ExtensisFontSense:OutlineFileSize>0</ExtensisFontSense:OutlineFileSize>
                     <ExtensisFontSense:KerningChecksum>0</ExtensisFontSense:KerningChecksum>
                     <ExtensisFontSense:Foundry>--</ExtensisFontSense:Foundry>
                     <ExtensisFontSense:FontKind>TrueType</ExtensisFontSense:FontKind>
                     <ExtensisFontSense:Checksum>4068057449</ExtensisFontSense:Checksum>
                     <ExtensisFontSense:PostScriptName>BigCaslon-Medium</ExtensisFontSense:PostScriptName>
                     <ExtensisFontSense:FontSense_1.2_Checksum>4068057449</ExtensisFontSense:FontSense_1.2_Checksum>
                  </rdf:Description>
               </rdf:li>
            </rdf:Bag>
         </ExtensisFontSense:slug>
      </rdf:Description>
   </rdf:RDF>
</x:xmpmeta>
                                                                                                    
                                                                                                    
                                                                                                    
                                                                                                    
                                                                                                    
                                                                                                    
                                                                                                    
                                                                                                    
                                                                                                    
                                                                                                    
                                                                                                    
                                                                                                    
                                                                                                    
                                                                                                    
                                                                                                    
                                                                                                    
                                                                                                    
                                                                                                    
                                                                                                    
                                                                                                    
                           
<?xpacket end="w"?></metadata>
<style type="text/css">
	.st0{fill:#FFFFFF;}
	.st1{font-family:'BigCaslon-Medium';}
	.st2{font-size:12px;}
</style>
<g>
	<g>
		<g>
			<g>
				<g>
					<g>
						<path class="st0" d="M11.6,25.3c-0.3,0-0.6-0.2-0.7-0.6c0-0.2,0-0.3,0.1-0.4c0.1-0.1,0.2-0.2,0.4-0.3c0.3-0.1,0.5,0.1,0.6,0.4
							c0,0.1,0,0.1-0.1,0.1c-0.1,0-0.1,0-0.1-0.1c0-0.1-0.2-0.2-0.3-0.2c-0.1,0-0.2,0.1-0.2,0.2c0,0.1-0.1,0.2,0,0.3
							c0.1,0.3,0.3,0.4,0.6,0.4c0.3-0.1,0.6-0.4,0.5-0.7c0-0.2-0.2-0.4-0.4-0.5c0,0-0.4-0.3-1.5-0.4c-0.1,0-0.1-0.1-0.1-0.1
							c0-0.1,0.1-0.1,0.1-0.1c1.2,0.1,1.6,0.4,1.6,0.4c0.2,0.1,0.4,0.4,0.5,0.7c0.1,0.5-0.2,0.9-0.7,1
							C11.7,25.3,11.6,25.3,11.6,25.3z"/>
						<g>
							<path class="st0" d="M8.1,27.4C8.1,27.4,8,27.4,8.1,27.4c-2.2-1.7-2.5-2.9-2.5-3c-0.1-0.3-0.1-0.7,0.1-1.1
								c0.1-0.3,0.4-0.4,0.7-0.5c0.3-0.1,0.6,0,0.8,0.1c0.2,0.1,0.4,0.3,0.4,0.5c0.1,0.2,0,0.5-0.1,0.7c-0.1,0.2-0.3,0.3-0.4,0.4
								c-0.2,0.1-0.4,0-0.6-0.1c-0.3-0.2-0.4-0.5-0.2-0.8c0-0.1,0.1-0.1,0.2,0s0.1,0.1,0,0.2c-0.1,0.2,0,0.4,0.2,0.5
								c0.2,0.1,0.6,0,0.7-0.2c0.1-0.2,0.1-0.3,0.1-0.5c0-0.2-0.2-0.3-0.3-0.4C6.8,23,6.6,22.9,6.4,23c-0.2,0.1-0.4,0.2-0.5,0.4
								c-0.2,0.3-0.2,0.6-0.1,0.9c0,0,0.3,1.2,2.4,2.8C8.2,27.2,8.2,27.3,8.1,27.4C8.2,27.4,8.1,27.4,8.1,27.4z"/>
							<path class="st0" d="M6.6,29.1c-0.7,0-1-0.1-1-0.1c-0.5-0.1-0.9-0.4-1.2-0.8c-0.2-0.3-0.2-0.7-0.1-1.1
								c0.1-0.4,0.3-0.7,0.7-0.9C5.3,26,5.6,26,5.9,26.1s0.6,0.3,0.7,0.5c0.3,0.5,0.1,1-0.3,1.3c-0.4,0.2-0.9,0.1-1.1-0.3
								c0-0.1,0-0.1,0-0.2c0.1,0,0.1,0,0.2,0c0.2,0.3,0.5,0.4,0.8,0.2c0.3-0.2,0.5-0.6,0.3-1c-0.1-0.2-0.3-0.4-0.6-0.4
								c-0.2-0.1-0.5,0-0.7,0.1c-0.3,0.2-0.5,0.4-0.6,0.7c-0.1,0.3,0,0.6,0.1,0.9c0.2,0.4,0.6,0.6,1,0.7c0,0,0.9,0.3,3-0.2
								c0.1,0,0.1,0,0.1,0.1c0,0.1,0,0.1-0.1,0.1C7.8,29,7.1,29.1,6.6,29.1z"/>
							<path class="st0" d="M8,24.3c0,0-0.1,0-0.1-0.1c0-0.1,0-0.1,0.1-0.2c2.5-0.8,3.2-1.8,3.2-1.8c0.2-0.3,0.3-0.6,0.3-0.9
								c-0.1-0.5-0.5-0.8-1-0.7c-0.4,0-0.6,0.4-0.6,0.7c0,0.3,0.3,0.5,0.6,0.4c0.2,0,0.4-0.2,0.3-0.4c0-0.1,0-0.1,0.1-0.1
								c0.1,0,0.1,0,0.1,0.1c0,0.3-0.2,0.6-0.5,0.7c-0.4,0.1-0.8-0.2-0.8-0.6c-0.1-0.5,0.3-0.9,0.8-1c0.6-0.1,1.2,0.3,1.2,0.9
								c0.1,0.4-0.1,0.8-0.3,1.1C11.4,22.4,10.7,23.4,8,24.3C8,24.3,8,24.3,8,24.3z"/>
							<path class="st0" d="M5.1,25.2c-0.4,0-0.7-0.1-0.7-0.1c-0.3-0.1-0.6-0.3-0.8-0.6c-0.3-0.5-0.1-1,0.4-1.3
								c0.4-0.2,0.9-0.1,1.1,0.3c0.2,0.3,0.1,0.7-0.2,0.9c-0.3,0.2-0.6,0.1-0.8-0.2c0-0.1,0-0.1,0-0.2c0.1,0,0.1,0,0.2,0
								c0.1,0.2,0.3,0.2,0.4,0.1c0.2-0.1,0.3-0.4,0.2-0.6c-0.2-0.3-0.5-0.4-0.8-0.2c-0.3,0.2-0.5,0.6-0.3,1c0.1,0.2,0.4,0.4,0.6,0.4
								c0,0,0.4,0.2,1.4,0c0.1,0,0.1,0,0.1,0.1c0,0.1,0,0.1-0.1,0.1C5.6,25.2,5.3,25.2,5.1,25.2z"/>
							<path class="st0" d="M6,23.2c-0.1,0-0.1,0-0.1-0.1c-0.2-1-0.1-1.4-0.1-1.5c0-0.3,0.2-0.6,0.5-0.8c0.2-0.2,0.5-0.2,0.7-0.2
								c0.3,0,0.5,0.2,0.6,0.4c0.3,0.4,0.2,0.8-0.2,1.1c-0.3,0.2-0.7,0.1-0.9-0.2c-0.2-0.2-0.1-0.6,0.1-0.8c0.1,0,0.1,0,0.2,0
								c0,0.1,0,0.1,0,0.2c-0.1,0.1-0.2,0.3-0.1,0.4c0.1,0.2,0.4,0.2,0.6,0.1c0.2-0.2,0.3-0.5,0.1-0.8c-0.1-0.2-0.3-0.3-0.5-0.3
								s-0.4,0-0.5,0.1C6.1,21.2,6,21.5,6,21.7c0,0-0.1,0.5,0.1,1.4C6.1,23.1,6.1,23.2,6,23.2C6,23.2,6,23.2,6,23.2z"/>
						</g>
					</g>
				</g>
				<g>
					<path class="st0" d="M9.3,29c-1.8-1.8-1.8-4.8,0-6.7c0.1-0.1,0.1-0.2,0-0.2c-0.1-0.1-0.2-0.1-0.2,0c-2,2-2,5.2,0,7.2
						c1,1,2.3,1.5,3.6,1.5c0.7,0,1.4-0.2,2.1-0.5v-0.4C13,30.7,10.8,30.4,9.3,29z"/>
				</g>
			</g>
			<g>
				<g>
					<g>
						<path class="st0" d="M11.5,32.2c0.3,0,0.6,0.2,0.7,0.5c0,0.2,0,0.3,0,0.5c-0.1,0.1-0.2,0.2-0.4,0.3c-0.3,0.1-0.5-0.1-0.6-0.3
							c0-0.1,0-0.1,0.1-0.2c0.1,0,0.1,0,0.2,0.1c0,0.1,0.2,0.2,0.3,0.2c0.1,0,0.2-0.1,0.2-0.2c0-0.1,0.1-0.2,0-0.3
							c-0.1-0.3-0.3-0.4-0.6-0.3c-0.3,0.1-0.5,0.4-0.4,0.8c0.1,0.2,0.2,0.4,0.4,0.5c0,0,0.5,0.3,1.6,0.3c0.1,0,0.1,0.1,0.1,0.1
							s-0.1,0.1-0.1,0.1c-1.2,0-1.6-0.3-1.7-0.3c-0.3-0.1-0.5-0.4-0.6-0.6c-0.1-0.5,0.1-0.9,0.6-1.1C11.4,32.2,11.5,32.2,11.5,32.2z
							"/>
						<g>
							<path class="st0" d="M14.8,29.9C14.9,29.9,14.9,29.9,14.8,29.9c2.4,1.6,2.7,2.8,2.7,2.8c0.2,0.3,0.1,0.7,0,1.1
								c-0.1,0.3-0.3,0.5-0.6,0.6s-0.6,0.1-0.8,0c-0.2-0.1-0.4-0.3-0.5-0.5s-0.1-0.5,0-0.7c0.1-0.2,0.2-0.3,0.4-0.4
								c0.2-0.1,0.4-0.1,0.6,0c0.3,0.1,0.4,0.5,0.3,0.8c0,0.1-0.1,0.1-0.2,0.1c-0.1,0-0.1-0.1-0.1-0.2c0.1-0.2,0-0.4-0.2-0.5
								c-0.2-0.1-0.6,0-0.7,0.2c-0.1,0.2-0.1,0.3,0,0.5c0.1,0.2,0.2,0.3,0.3,0.4c0.2,0.1,0.4,0.1,0.7,0c0.2-0.1,0.4-0.2,0.5-0.4
								c0.1-0.3,0.1-0.6,0-0.9c0,0-0.3-1.1-2.5-2.7c-0.1,0-0.1-0.1,0-0.2C14.8,30,14.8,29.9,14.8,29.9z"/>
							<path class="st0" d="M16.2,28.1c0.7,0,1,0,1,0.1c0.5,0.1,0.9,0.3,1.2,0.8c0.2,0.3,0.3,0.7,0.2,1.1c-0.1,0.4-0.3,0.7-0.6,0.9
								c-0.3,0.2-0.6,0.2-0.9,0.2c-0.3-0.1-0.6-0.2-0.7-0.5c-0.3-0.4-0.2-1,0.3-1.3c0.4-0.2,0.8-0.1,1.1,0.2c0,0.1,0,0.1,0,0.2
								c-0.1,0-0.1,0-0.2,0c-0.2-0.2-0.5-0.3-0.8-0.2c-0.3,0.2-0.4,0.7-0.2,1c0.1,0.2,0.3,0.3,0.6,0.4c0.2,0,0.5,0,0.7-0.1
								c0.3-0.2,0.4-0.4,0.5-0.8s0-0.6-0.2-0.9c-0.2-0.4-0.6-0.6-1.1-0.7c0,0-1-0.3-2.9,0.4c-0.1,0-0.1,0-0.2-0.1
								c0-0.1,0-0.1,0.1-0.2C15,28.3,15.7,28.2,16.2,28.1z"/>
							<path class="st0" d="M15.1,33c0,0,0.1,0,0.1,0.1c0,0.1,0,0.1-0.1,0.2c-2.5,1-3.1,2-3.1,2c-0.2,0.3-0.3,0.6-0.2,0.9
								c0.1,0.5,0.6,0.8,1,0.7c0.4-0.1,0.6-0.4,0.5-0.8c-0.1-0.3-0.3-0.4-0.6-0.4c-0.2,0-0.3,0.2-0.3,0.4c0,0.1,0,0.1-0.1,0.1
								c-0.1,0-0.1,0-0.1-0.1c-0.1-0.3,0.1-0.7,0.5-0.7c0.4-0.1,0.8,0.2,0.9,0.6c0.1,0.5-0.2,1-0.7,1.1c-0.6,0.1-1.2-0.3-1.3-0.8
								c-0.1-0.4,0-0.8,0.2-1.1C11.9,35.1,12.5,34,15.1,33C15.1,33,15.1,33,15.1,33z"/>
							<path class="st0" d="M18,31.9c0.4,0,0.7,0,0.7,0c0.3,0,0.6,0.2,0.8,0.5c0.3,0.4,0.2,1-0.3,1.3c-0.4,0.2-0.9,0.1-1.1-0.2
								c-0.2-0.3-0.1-0.7,0.2-0.9c0.3-0.2,0.6-0.1,0.8,0.2c0,0.1,0,0.1,0,0.2c-0.1,0-0.1,0-0.2,0c-0.1-0.1-0.3-0.2-0.4-0.1
								c-0.2,0.1-0.2,0.4-0.1,0.6c0.2,0.3,0.5,0.3,0.8,0.2c0.3-0.2,0.4-0.7,0.2-1c-0.1-0.2-0.4-0.4-0.6-0.4c0,0-0.5-0.1-1.4,0.1
								c-0.1,0-0.1,0-0.1-0.1c0-0.1,0-0.1,0.1-0.1C17.5,32,17.8,31.9,18,31.9z"/>
							<path class="st0" d="M17.2,33.9c0.1,0,0.1,0,0.1,0.1c0.3,0.9,0.2,1.4,0.2,1.4c0,0.3-0.2,0.6-0.4,0.8
								c-0.2,0.2-0.4,0.2-0.7,0.2c-0.3,0-0.5-0.2-0.6-0.3c-0.3-0.3-0.2-0.8,0.1-1.1c0.3-0.2,0.7-0.2,0.9,0.1
								c0.2,0.2,0.2,0.6-0.1,0.8c0,0-0.1,0-0.2,0c0,0,0-0.1,0-0.2c0.1-0.1,0.2-0.3,0-0.4c-0.1-0.2-0.4-0.2-0.6-0.1
								c-0.2,0.2-0.3,0.5-0.1,0.8c0.1,0.2,0.3,0.2,0.5,0.3c0.2,0,0.4,0,0.5-0.2c0.2-0.2,0.3-0.4,0.3-0.7c0,0,0.1-0.5-0.2-1.3
								C17.1,34,17.1,34,17.2,33.9C17.2,33.9,17.2,33.9,17.2,33.9z"/>
						</g>
					</g>
				</g>
				<g>
					<path class="st0" d="M13.5,28.4c2,1.7,2.1,4.7,0.4,6.7c-0.1,0.1-0.1,0.2,0,0.2c0.1,0.1,0.2,0.1,0.2,0c1.8-2.1,1.6-5.3-0.4-7.2
						c-1-0.9-2.4-1.3-3.7-1.3c-0.7,0-1.4,0.2-2.1,0.6l0,0.4C9.7,26.9,12,27,13.5,28.4z"/>
				</g>
			</g>
		</g>
		<g>
			<g>
				<g>
					<g>
						<path class="st0" d="M27.7,32.2c-0.3,0-0.6,0.2-0.7,0.5c0,0.2,0,0.3,0,0.5c0.1,0.1,0.2,0.2,0.4,0.3c0.3,0.1,0.5-0.1,0.6-0.3
							c0-0.1,0-0.1-0.1-0.2c-0.1,0-0.1,0-0.2,0.1c0,0.1-0.2,0.2-0.3,0.2c-0.1,0-0.2-0.1-0.2-0.2c0-0.1-0.1-0.2,0-0.3
							c0.1-0.2,0.3-0.4,0.6-0.3c0.3,0.1,0.5,0.5,0.4,0.8c-0.1,0.2-0.2,0.4-0.4,0.5c0,0-0.5,0.3-1.6,0.3c-0.1,0-0.1,0.1-0.1,0.1
							s0.1,0.1,0.1,0.1c1.2,0,1.7-0.3,1.7-0.3c0.3-0.1,0.5-0.4,0.6-0.6c0.1-0.5-0.1-0.9-0.6-1.1C27.8,32.3,27.8,32.2,27.7,32.2z"/>
						<g>
							<path class="st0" d="M24.4,29.9C24.4,29.9,24.4,29.9,24.4,29.9c-2.4,1.6-2.7,2.7-2.8,2.7c-0.2,0.3-0.2,0.7,0,1.1
								c0.1,0.3,0.3,0.5,0.6,0.6c0.3,0.1,0.6,0.1,0.8,0c0.2-0.1,0.4-0.3,0.5-0.5c0.1-0.2,0.1-0.5,0-0.7c-0.1-0.2-0.2-0.3-0.4-0.4
								c-0.2-0.1-0.4-0.1-0.6,0c-0.3,0.1-0.4,0.5-0.3,0.8c0,0.1,0.1,0.1,0.2,0.1c0.1,0,0.1-0.1,0.1-0.2c-0.1-0.2,0-0.4,0.2-0.5
								c0.3-0.1,0.6,0,0.7,0.3c0.1,0.2,0.1,0.3,0,0.5c-0.1,0.2-0.2,0.3-0.3,0.4c-0.2,0.1-0.4,0.1-0.7,0c-0.2-0.1-0.4-0.2-0.5-0.4
								c-0.1-0.3-0.1-0.6,0-0.9c0,0,0.4-1.1,2.6-2.6c0.1,0,0.1-0.1,0-0.2C24.5,29.9,24.5,29.9,24.4,29.9z"/>
							<path class="st0" d="M23.1,28.1c-0.7-0.1-1,0-1,0c-0.5,0.1-0.9,0.3-1.2,0.7c-0.2,0.3-0.3,0.7-0.2,1.1
								c0.1,0.4,0.3,0.7,0.6,0.9c0.3,0.2,0.6,0.2,0.9,0.2c0.3-0.1,0.6-0.2,0.8-0.5c0.3-0.4,0.2-1-0.2-1.3c-0.4-0.2-0.8-0.2-1.1,0.2
								c0,0.1,0,0.1,0,0.2c0.1,0,0.1,0,0.2,0c0.2-0.2,0.5-0.3,0.8-0.1c0.3,0.2,0.4,0.7,0.2,1c-0.1,0.2-0.4,0.3-0.6,0.4
								c-0.2,0-0.5,0-0.7-0.2c-0.3-0.2-0.4-0.4-0.5-0.8s0-0.6,0.2-0.9c0.2-0.4,0.6-0.6,1.1-0.6c0,0,1-0.2,2.9,0.4
								c0.1,0,0.1,0,0.2-0.1c0-0.1,0-0.1-0.1-0.2C24.3,28.2,23.6,28.1,23.1,28.1z"/>
							<path class="st0" d="M24.1,32.9c0,0-0.1,0-0.1,0.1c0,0.1,0,0.1,0.1,0.2c2.5,1,3,2,3,2.1c0.2,0.3,0.3,0.6,0.2,0.9
								c-0.1,0.5-0.6,0.7-1,0.6c-0.4-0.1-0.6-0.4-0.5-0.8c0.1-0.3,0.3-0.4,0.6-0.4c0.2,0,0.3,0.2,0.3,0.5c0,0.1,0,0.1,0.1,0.1
								c0.1,0,0.1,0,0.1-0.1c0.1-0.3-0.1-0.7-0.5-0.7c-0.4-0.1-0.8,0.2-0.9,0.6c-0.1,0.5,0.2,1,0.7,1.1c0.6,0.1,1.2-0.2,1.3-0.8
								c0.1-0.4,0-0.8-0.2-1.1C27.3,35.1,26.7,34,24.1,32.9C24.1,32.9,24.1,32.9,24.1,32.9z"/>
							<path class="st0" d="M21.3,31.8c-0.4,0-0.7,0-0.7,0c-0.3,0-0.6,0.2-0.8,0.5c-0.3,0.4-0.2,1,0.2,1.3c0.4,0.2,0.9,0.2,1.1-0.2
								c0.2-0.3,0.1-0.7-0.2-0.9c-0.2-0.2-0.6-0.1-0.8,0.1c0,0.1,0,0.1,0,0.2c0.1,0,0.1,0,0.2,0c0.1-0.1,0.3-0.2,0.4-0.1
								c0.2,0.1,0.2,0.4,0.1,0.6c-0.2,0.2-0.5,0.3-0.8,0.1c-0.3-0.2-0.4-0.7-0.2-1c0.2-0.2,0.4-0.4,0.7-0.4c0,0,0.5-0.1,1.4,0.1
								c0.1,0,0.1,0,0.1-0.1s0-0.1-0.1-0.1C21.7,31.9,21.5,31.8,21.3,31.8z"/>
							<path class="st0" d="M22,33.9c-0.1,0-0.1,0-0.1,0.1c-0.3,0.9-0.3,1.4-0.3,1.4c0,0.3,0.2,0.6,0.4,0.9c0.2,0.2,0.4,0.2,0.7,0.2
								c0.3,0,0.5-0.1,0.7-0.3c0.3-0.3,0.2-0.8-0.1-1.1c-0.3-0.2-0.7-0.2-0.9,0.1c-0.2,0.2-0.2,0.6,0.1,0.8c0,0,0.1,0,0.2,0
								c0,0,0-0.1,0-0.2c-0.1-0.1-0.1-0.3,0-0.4c0.2-0.2,0.4-0.2,0.6,0c0.2,0.2,0.3,0.5,0.1,0.8c-0.1,0.1-0.3,0.2-0.5,0.2
								c-0.2,0-0.4,0-0.5-0.2c-0.2-0.2-0.3-0.4-0.3-0.7c0,0-0.1-0.5,0.2-1.3C22.1,33.9,22.1,33.9,22,33.9C22,33.9,22,33.9,22,33.9z"
								/>
						</g>
					</g>
				</g>
				<g>
					<path class="st0" d="M25.8,28.4c-2,1.7-2.2,4.7-0.6,6.6c0.1,0.1,0.1,0.2,0,0.2c-0.1,0.1-0.2,0.1-0.2,0
						c-1.8-2.1-1.5-5.3,0.6-7.1c1.1-0.9,2.4-1.3,3.7-1.2c0.7,0.1,1.4,0.3,2.1,0.6l0,0.4C29.6,26.9,27.4,27.1,25.8,28.4z"/>
				</g>
			</g>
			<g>
				<g>
					<g>
						<path class="st0" d="M28.2,25.4c0.3,0,0.6-0.1,0.8-0.5c0.1-0.2,0.1-0.3,0-0.5c-0.1-0.1-0.2-0.3-0.3-0.3
							c-0.3-0.1-0.5,0-0.6,0.3c0,0.1,0,0.1,0.1,0.2c0.1,0,0.1,0,0.2-0.1c0-0.1,0.2-0.2,0.3-0.2c0.1,0,0.2,0.1,0.2,0.2
							c0,0.1,0,0.2,0,0.3c-0.1,0.2-0.4,0.4-0.6,0.3c-0.3-0.1-0.5-0.5-0.4-0.8c0.1-0.2,0.3-0.4,0.5-0.5c0,0,0.5-0.2,1.6-0.2
							c0.1,0,0.1,0,0.1-0.1c0-0.1,0-0.1-0.1-0.1c-1.2-0.1-1.7,0.2-1.7,0.2c-0.3,0.1-0.5,0.3-0.6,0.6c-0.2,0.4,0.1,0.9,0.5,1.1
							C28.1,25.3,28.2,25.3,28.2,25.4z"/>
						<g>
							<path class="st0" d="M31.4,27.9C31.4,27.9,31.4,27.9,31.4,27.9c2.5-1.4,2.9-2.5,2.9-2.6c0.2-0.3,0.2-0.7,0.1-1.1
								c-0.1-0.3-0.3-0.5-0.6-0.6c-0.3-0.1-0.6-0.1-0.8,0c-0.2,0.1-0.4,0.2-0.5,0.5c-0.1,0.2-0.1,0.5,0,0.7c0.1,0.2,0.2,0.3,0.4,0.4
								c0.2,0.1,0.4,0.1,0.6,0c0.3-0.1,0.5-0.5,0.4-0.8c0-0.1-0.1-0.1-0.2-0.1c-0.1,0-0.1,0.1-0.1,0.2c0.1,0.2,0,0.4-0.2,0.5
								c-0.3,0.1-0.6,0-0.6-0.3c-0.1-0.2-0.1-0.3,0-0.5c0.1-0.2,0.2-0.3,0.4-0.3c0.2-0.1,0.4-0.1,0.7,0c0.2,0.1,0.4,0.3,0.4,0.5
								c0.1,0.3,0.1,0.6-0.1,0.9c0,0-0.4,1.1-2.8,2.4C31.3,27.7,31.3,27.8,31.4,27.9C31.3,27.9,31.3,27.9,31.4,27.9z"/>
							<path class="st0" d="M32.6,29.8c0.6,0.1,1,0,1,0c0.5,0,1-0.3,1.3-0.7c0.2-0.3,0.3-0.7,0.3-1c0-0.4-0.2-0.7-0.5-1
								c-0.2-0.2-0.5-0.3-0.9-0.2c-0.3,0-0.6,0.2-0.8,0.4c-0.3,0.4-0.3,1,0.2,1.3c0.3,0.3,0.8,0.2,1.1-0.1c0,0,0-0.1,0-0.2
								c0,0-0.1,0-0.2,0c-0.2,0.2-0.5,0.3-0.8,0.1c-0.3-0.2-0.4-0.7-0.1-1c0.2-0.2,0.4-0.3,0.6-0.3c0.2,0,0.5,0,0.7,0.2
								c0.2,0.2,0.4,0.5,0.4,0.8s-0.1,0.6-0.2,0.9c-0.3,0.3-0.7,0.6-1.1,0.6c0,0-1,0.2-2.9-0.6c-0.1,0-0.1,0-0.2,0.1
								c0,0.1,0,0.1,0.1,0.2C31.4,29.6,32.1,29.7,32.6,29.8z"/>
							<path class="st0" d="M31.9,24.9c0,0,0.1,0,0.1-0.1c0-0.1,0-0.1-0.1-0.2c-2.4-1.2-2.9-2.2-2.9-2.2c-0.2-0.3-0.2-0.6-0.1-0.9
								c0.1-0.4,0.6-0.7,1.1-0.6c0.4,0.1,0.5,0.5,0.4,0.8c-0.1,0.3-0.4,0.4-0.6,0.3c-0.2-0.1-0.3-0.3-0.3-0.5c0-0.1,0-0.1-0.1-0.2
								c-0.1,0-0.1,0-0.2,0.1c-0.1,0.3,0.1,0.7,0.4,0.8c0.4,0.1,0.8-0.1,0.9-0.5c0.1-0.5-0.1-1-0.6-1.1c-0.6-0.2-1.2,0.2-1.4,0.7
								c-0.1,0.4-0.1,0.8,0.2,1.1C28.9,22.5,29.4,23.6,31.9,24.9C31.9,24.9,31.9,24.9,31.9,24.9z"/>
							<path class="st0" d="M34.6,26.2c0.4,0.1,0.7,0,0.7,0c0.3,0,0.6-0.2,0.8-0.4c0.3-0.4,0.3-1-0.2-1.3c-0.3-0.3-0.8-0.2-1.1,0.1
								c-0.2,0.3-0.2,0.7,0.1,0.9c0.2,0.2,0.6,0.1,0.8-0.1c0,0,0-0.1,0-0.2c0,0-0.1,0-0.2,0c-0.1,0.1-0.3,0.2-0.4,0.1
								c-0.2-0.1-0.2-0.4-0.1-0.6c0.2-0.2,0.5-0.3,0.8-0.1c0.3,0.2,0.4,0.7,0.1,1c-0.2,0.2-0.4,0.3-0.7,0.4c0,0-0.5,0.1-1.3-0.2
								c-0.1,0-0.1,0-0.2,0.1c0,0.1,0,0.1,0.1,0.2C34.2,26.1,34.4,26.1,34.6,26.2z"/>
							<path class="st0" d="M34.1,24.1c0.1,0,0.1,0,0.1-0.1c0.4-0.9,0.3-1.4,0.3-1.4c0-0.3-0.1-0.6-0.4-0.9
								c-0.2-0.2-0.4-0.3-0.7-0.3c-0.3,0-0.5,0.1-0.7,0.3c-0.3,0.3-0.3,0.8,0,1.1c0.3,0.2,0.7,0.2,0.9,0c0.2-0.2,0.2-0.6,0-0.8
								c0,0-0.1,0-0.2,0s0,0.1,0,0.2c0.1,0.1,0.1,0.3,0,0.4c-0.2,0.2-0.4,0.2-0.6,0c-0.2-0.2-0.2-0.6,0-0.8c0.1-0.1,0.3-0.2,0.5-0.2
								c0.2,0,0.4,0.1,0.5,0.2c0.2,0.2,0.3,0.4,0.3,0.7c0,0,0,0.5-0.3,1.3C33.9,24,34,24.1,34.1,24.1C34,24.1,34,24.1,34.1,24.1z"/>
						</g>
					</g>
				</g>
				<g>
					<path class="st0" d="M29.9,29.3c2.1-1.6,2.5-4.5,1-6.6c-0.1-0.1,0-0.2,0-0.2c0.1-0.1,0.2,0,0.2,0c1.7,2.2,1.2,5.4-1,7.1
						c-1.1,0.8-2.5,1.1-3.8,0.9c-0.7-0.1-1.4-0.4-2-0.8l0.1-0.4C26,30.5,28.3,30.5,29.9,29.3z"/>
				</g>
			</g>
		</g>
	</g>
	<g>
		<g>
			<g>
				<g>
					<g>
						<path class="st0" d="M11.6,15.5c-0.3,0-0.6,0.2-0.7,0.5c0,0.2,0,0.3,0.1,0.4c0.1,0.1,0.2,0.2,0.4,0.3c0.3,0.1,0.5-0.1,0.6-0.4
							c0-0.1,0-0.1-0.1-0.1c-0.1,0-0.1,0-0.1,0.1c0,0.1-0.2,0.2-0.3,0.2c-0.1,0-0.2-0.1-0.2-0.2s-0.1-0.2,0-0.3
							c0.1-0.3,0.3-0.4,0.6-0.4c0.3,0.1,0.5,0.4,0.5,0.8c-0.1,0.2-0.2,0.4-0.4,0.5c0,0-0.4,0.3-1.5,0.4c-0.1,0-0.1,0.1-0.1,0.1
							c0,0.1,0.1,0.1,0.1,0.1c1.2-0.1,1.6-0.4,1.7-0.4c0.3-0.1,0.4-0.4,0.5-0.7c0.1-0.5-0.2-0.9-0.6-1
							C11.7,15.6,11.6,15.5,11.6,15.5z"/>
						<g>
							<path class="st0" d="M8.2,13.4C8.1,13.4,8.1,13.4,8.2,13.4c-2.3,1.7-2.6,2.9-2.6,2.9c-0.1,0.3-0.1,0.7,0.1,1.1
								c0.1,0.3,0.4,0.4,0.6,0.5C6.6,18,6.9,18,7.1,17.9c0.2-0.1,0.4-0.3,0.4-0.5c0.1-0.2,0-0.5-0.1-0.7c-0.1-0.2-0.2-0.3-0.4-0.4
								c-0.2-0.1-0.4,0-0.6,0c-0.3,0.2-0.4,0.5-0.3,0.8c0,0.1,0.1,0.1,0.2,0c0.1,0,0.1-0.1,0-0.2c-0.1-0.2,0-0.4,0.2-0.5
								c0.2-0.1,0.6,0,0.7,0.2c0.1,0.2,0.1,0.3,0,0.5c-0.1,0.2-0.2,0.3-0.3,0.4c-0.2,0.1-0.4,0.1-0.6,0.1c-0.2-0.1-0.4-0.2-0.5-0.4
								c-0.1-0.3-0.2-0.6,0-0.9c0,0,0.3-1.2,2.4-2.8C8.3,13.6,8.3,13.5,8.2,13.4C8.2,13.4,8.2,13.4,8.2,13.4z"/>
							<path class="st0" d="M6.7,11.7c-0.7,0-1,0.1-1,0.1c-0.5,0.1-0.9,0.4-1.2,0.8c-0.2,0.3-0.3,0.7-0.2,1.1
								C4.5,14,4.7,14.3,5,14.5c0.3,0.2,0.6,0.2,0.9,0.1c0.3-0.1,0.6-0.3,0.7-0.5c0.3-0.4,0.1-1-0.3-1.3c-0.4-0.2-0.9-0.1-1.1,0.3
								c0,0.1,0,0.1,0,0.2c0.1,0,0.1,0,0.2,0C5.6,13,5.9,12.9,6.2,13c0.3,0.2,0.4,0.6,0.2,1c-0.1,0.2-0.3,0.4-0.6,0.4
								c-0.2,0.1-0.5,0-0.7-0.1c-0.3-0.2-0.5-0.4-0.5-0.7c-0.1-0.3,0-0.6,0.1-0.9c0.2-0.4,0.6-0.6,1-0.7c0,0,1-0.3,3,0.2
								c0.1,0,0.1,0,0.1-0.1c0-0.1,0-0.1-0.1-0.1C7.9,11.8,7.2,11.7,6.7,11.7z"/>
							<path class="st0" d="M8,16.5c0,0-0.1,0-0.1,0.1c0,0.1,0,0.1,0.1,0.2c2.5,0.9,3.1,1.9,3.2,1.9c0.2,0.3,0.3,0.6,0.2,0.9
								c-0.1,0.5-0.5,0.8-1,0.7c-0.4-0.1-0.6-0.4-0.5-0.8c0-0.3,0.3-0.5,0.6-0.4c0.2,0,0.3,0.2,0.3,0.4c0,0.1,0,0.1,0.1,0.1
								c0.1,0,0.1,0,0.1-0.1c0.1-0.3-0.2-0.7-0.5-0.7c-0.4-0.1-0.8,0.2-0.9,0.6c-0.1,0.5,0.2,1,0.7,1c0.6,0.1,1.2-0.3,1.3-0.9
								c0.1-0.4,0-0.8-0.3-1.1C11.3,18.4,10.7,17.4,8,16.5C8.1,16.5,8,16.5,8,16.5z"/>
							<path class="st0" d="M5.1,15.5c-0.4,0-0.7,0.1-0.7,0.1c-0.3,0.1-0.6,0.3-0.8,0.5c-0.3,0.5-0.1,1,0.3,1.3
								c0.4,0.2,0.9,0.1,1.1-0.3c0.2-0.3,0.1-0.7-0.2-0.9c-0.3-0.2-0.6-0.1-0.8,0.2c0,0.1,0,0.1,0,0.2c0.1,0,0.1,0,0.2,0
								c0.1-0.1,0.3-0.2,0.4-0.1c0.2,0.1,0.3,0.4,0.1,0.6c-0.2,0.3-0.5,0.3-0.8,0.2c-0.3-0.2-0.4-0.6-0.2-1C4,16,4.3,15.9,4.5,15.8
								c0,0,0.4-0.1,1.4,0c0.1,0,0.1,0,0.1-0.1c0-0.1,0-0.1-0.1-0.1C5.6,15.5,5.3,15.5,5.1,15.5z"/>
							<path class="st0" d="M6,17.5c-0.1,0-0.1,0-0.1,0.1c-0.3,1-0.2,1.4-0.2,1.4c0,0.3,0.2,0.6,0.5,0.8c0.2,0.2,0.5,0.2,0.7,0.2
								c0.3,0,0.5-0.2,0.6-0.4c0.3-0.4,0.2-0.8-0.2-1.1c-0.3-0.2-0.7-0.2-0.9,0.1c-0.2,0.2-0.1,0.6,0.1,0.8c0.1,0,0.1,0,0.2,0
								c0-0.1,0-0.1,0-0.2c-0.1-0.1-0.2-0.3-0.1-0.4c0.1-0.2,0.4-0.2,0.6-0.1c0.2,0.2,0.3,0.5,0.1,0.8c-0.1,0.2-0.3,0.3-0.5,0.3
								c-0.2,0-0.4,0-0.5-0.1c-0.2-0.2-0.4-0.4-0.4-0.7c0,0-0.1-0.5,0.2-1.4C6.1,17.6,6.1,17.5,6,17.5C6,17.5,6,17.5,6,17.5z"/>
						</g>
					</g>
				</g>
				<g>
					<path class="st0" d="M9.4,11.8c-1.9,1.8-2,4.8-0.2,6.7c0.1,0.1,0.1,0.2,0,0.2c-0.1,0.1-0.2,0.1-0.2,0c-1.9-2-1.9-5.2,0.2-7.2
						c1-1,2.3-1.4,3.6-1.4c0.7,0,1.4,0.2,2.1,0.5l0,0.4C13.1,10.2,10.9,10.4,9.4,11.8z"/>
				</g>
			</g>
			<g>
				<g>
					<g>
						<path class="st0" d="M11.7,8.6c0.3,0,0.6-0.2,0.7-0.5c0-0.2,0-0.3,0-0.5c-0.1-0.1-0.2-0.2-0.4-0.3c-0.3-0.1-0.5,0.1-0.6,0.3
							c0,0.1,0,0.1,0.1,0.2c0.1,0,0.1,0,0.2-0.1c0-0.1,0.2-0.2,0.3-0.2c0.1,0,0.2,0.1,0.2,0.2c0,0.1,0.1,0.2,0,0.3
							c-0.1,0.2-0.3,0.4-0.6,0.3c-0.3-0.1-0.5-0.5-0.4-0.8c0.1-0.2,0.2-0.4,0.4-0.5c0,0,0.5-0.3,1.6-0.3c0.1,0,0.1-0.1,0.1-0.1
							c0-0.1-0.1-0.1-0.1-0.1c-1.2,0-1.7,0.3-1.7,0.3C11.3,7,11.1,7.3,11,7.5c-0.1,0.5,0.1,0.9,0.6,1.1C11.6,8.6,11.6,8.6,11.7,8.6z
							"/>
						<g>
							<path class="st0" d="M15,11C15,11,15,11,15,11c2.4-1.5,2.8-2.7,2.8-2.7c0.2-0.3,0.2-0.7,0-1.1c-0.1-0.3-0.3-0.5-0.6-0.6
								c-0.3-0.1-0.6-0.1-0.8,0c-0.2,0.1-0.4,0.3-0.5,0.5c-0.1,0.2-0.1,0.5,0,0.7c0.1,0.2,0.2,0.3,0.4,0.4c0.2,0.1,0.4,0.1,0.6,0
								c0.3-0.1,0.5-0.5,0.3-0.8c0-0.1-0.1-0.1-0.2-0.1c-0.1,0-0.1,0.1-0.1,0.2c0.1,0.2,0,0.4-0.2,0.5c-0.3,0.1-0.6,0-0.7-0.3
								C16,7.5,16,7.4,16,7.2c0.1-0.2,0.2-0.3,0.4-0.4c0.2-0.1,0.4-0.1,0.7,0c0.2,0.1,0.4,0.2,0.5,0.4c0.1,0.3,0.1,0.6,0,0.9
								c0,0-0.4,1.1-2.6,2.6C14.9,10.8,14.8,10.9,15,11C14.9,11,14.9,11,15,11z"/>
							<path class="st0" d="M16.3,12.8c0.7,0.1,1,0,1,0c0.5,0,0.9-0.3,1.2-0.7c0.2-0.3,0.3-0.7,0.2-1.1c-0.1-0.4-0.3-0.7-0.6-0.9
								c-0.3-0.2-0.6-0.2-0.9-0.2c-0.3,0.1-0.6,0.2-0.8,0.5c-0.3,0.4-0.2,1,0.2,1.3c0.4,0.2,0.8,0.2,1.1-0.2c0-0.1,0-0.1,0-0.2
								c-0.1,0-0.1,0-0.2,0c-0.2,0.2-0.5,0.3-0.8,0.1c-0.3-0.2-0.4-0.7-0.2-1c0.1-0.2,0.4-0.3,0.6-0.4c0.2,0,0.5,0,0.7,0.2
								c0.3,0.2,0.4,0.5,0.5,0.8s0,0.6-0.2,0.9c-0.2,0.4-0.6,0.6-1.1,0.6c0,0-1,0.2-2.9-0.4c-0.1,0-0.1,0-0.2,0.1
								c0,0.1,0,0.1,0.1,0.2C15.1,12.7,15.8,12.8,16.3,12.8z"/>
							<path class="st0" d="M15.3,7.9c0,0,0.1,0,0.1-0.1c0-0.1,0-0.1-0.1-0.2c-2.5-1-3-2.1-3-2.1c-0.2-0.3-0.3-0.6-0.2-0.9
								c0.1-0.5,0.6-0.7,1-0.6c0.4,0.1,0.6,0.4,0.5,0.8c-0.1,0.3-0.3,0.4-0.6,0.4c-0.2,0-0.3-0.2-0.3-0.5c0-0.1,0-0.1-0.1-0.1
								c-0.1,0-0.1,0-0.1,0.1c-0.1,0.3,0.1,0.7,0.5,0.7c0.4,0.1,0.8-0.2,0.9-0.6c0.1-0.5-0.2-1-0.7-1.1c-0.6-0.1-1.2,0.2-1.3,0.8
								c-0.1,0.4,0,0.8,0.2,1.1C12.2,5.8,12.7,6.9,15.3,7.9C15.3,7.9,15.3,7.9,15.3,7.9z"/>
							<path class="st0" d="M18.1,9.1c0.4,0,0.7,0,0.7,0c0.3,0,0.6-0.2,0.8-0.5c0.3-0.4,0.2-1-0.2-1.3C19,7,18.5,7.1,18.3,7.4
								c-0.2,0.3-0.1,0.7,0.2,0.9c0.2,0.2,0.6,0.1,0.8-0.1c0-0.1,0-0.1,0-0.2c-0.1,0-0.1,0-0.2,0c-0.1,0.1-0.3,0.2-0.4,0.1
								c-0.2-0.1-0.2-0.4-0.1-0.6c0.2-0.2,0.5-0.3,0.8-0.1c0.3,0.2,0.4,0.7,0.2,1c-0.2,0.2-0.4,0.4-0.7,0.4c0,0-0.5,0.1-1.4-0.1
								c-0.1,0-0.1,0-0.1,0.1c0,0.1,0,0.1,0.1,0.1C17.7,9,17.9,9.1,18.1,9.1z"/>
							<path class="st0" d="M17.4,7.1c0.1,0,0.1,0,0.1-0.1c0.3-0.9,0.3-1.4,0.3-1.4c0-0.3-0.2-0.6-0.4-0.9c-0.2-0.2-0.4-0.2-0.7-0.2
								c-0.3,0-0.5,0.1-0.7,0.3c-0.3,0.3-0.2,0.8,0.1,1.1c0.3,0.2,0.7,0.2,0.9-0.1C17.3,5.6,17.2,5.2,17,5c0,0-0.1,0-0.2,0
								c0,0,0,0.1,0,0.2c0.1,0.1,0.1,0.3,0,0.4c-0.2,0.2-0.4,0.2-0.6,0c-0.2-0.2-0.3-0.6-0.1-0.8c0.1-0.1,0.3-0.2,0.5-0.2
								c0.2,0,0.4,0,0.5,0.2c0.2,0.2,0.3,0.4,0.3,0.7c0,0,0.1,0.5-0.2,1.3C17.3,7,17.3,7,17.4,7.1C17.4,7,17.4,7.1,17.4,7.1z"/>
						</g>
					</g>
				</g>
				<g>
					<path class="st0" d="M13.6,12.5c2-1.7,2.2-4.7,0.6-6.6c-0.1-0.1-0.1-0.2,0-0.2c0.1-0.1,0.2-0.1,0.2,0c1.8,2.1,1.5,5.3-0.6,7.1
						c-1.1,0.9-2.4,1.3-3.7,1.2c-0.7-0.1-1.4-0.3-2.1-0.6l0-0.4C9.8,13.9,12,13.8,13.6,12.5z"/>
				</g>
			</g>
		</g>
		<g>
			<g>
				<g>
					<g>
						<path class="st0" d="M27.9,9c-0.3,0-0.6-0.2-0.7-0.5c0-0.2,0-0.3,0-0.5c0.1-0.1,0.2-0.2,0.4-0.3c0.3-0.1,0.5,0.1,0.6,0.3
							c0,0.1,0,0.1-0.1,0.1c-0.1,0-0.1,0-0.1-0.1c0-0.1-0.2-0.2-0.3-0.2c-0.1,0-0.2,0.1-0.2,0.2c0,0.1-0.1,0.2,0,0.3
							c0.1,0.3,0.3,0.4,0.6,0.3c0.3-0.1,0.5-0.4,0.4-0.8c-0.1-0.2-0.2-0.4-0.4-0.5c0,0-0.5-0.3-1.6-0.3c-0.1,0-0.1-0.1-0.1-0.1
							c0-0.1,0.1-0.1,0.1-0.1c1.2,0,1.6,0.3,1.7,0.4c0.3,0.1,0.5,0.4,0.6,0.7c0.1,0.5-0.1,0.9-0.6,1.1C28,9,28,9,27.9,9z"/>
						<g>
							<path class="st0" d="M24.6,11.3C24.5,11.3,24.5,11.3,24.6,11.3c-2.3-1.6-2.7-2.8-2.7-2.8c-0.2-0.3-0.1-0.7,0-1.1
								c0.1-0.3,0.3-0.5,0.6-0.6s0.6-0.1,0.8,0c0.2,0.1,0.4,0.3,0.5,0.5c0.1,0.2,0.1,0.5,0,0.7c-0.1,0.2-0.2,0.3-0.4,0.4
								c-0.2,0.1-0.4,0.1-0.6,0c-0.3-0.1-0.4-0.5-0.3-0.8c0-0.1,0.1-0.1,0.2-0.1c0.1,0,0.1,0.1,0.1,0.2c-0.1,0.2,0,0.4,0.2,0.5
								c0.2,0.1,0.6,0,0.7-0.2c0.1-0.2,0.1-0.3,0-0.5c-0.1-0.2-0.2-0.3-0.3-0.4C23,7,22.8,6.9,22.6,7s-0.4,0.2-0.5,0.4
								c-0.1,0.3-0.1,0.6,0,0.9c0,0,0.3,1.1,2.5,2.7C24.7,11.1,24.7,11.1,24.6,11.3C24.6,11.2,24.6,11.3,24.6,11.3z"/>
							<path class="st0" d="M23.2,13c-0.7,0-1,0-1-0.1c-0.5-0.1-0.9-0.3-1.2-0.8c-0.2-0.3-0.3-0.7-0.2-1.1c0.1-0.4,0.3-0.7,0.6-0.9
								c0.3-0.2,0.6-0.2,0.9-0.2c0.3,0.1,0.6,0.2,0.7,0.5c0.3,0.4,0.2,1-0.3,1.3c-0.4,0.2-0.8,0.1-1.1-0.2c0-0.1,0-0.1,0-0.2
								s0.1,0,0.2,0c0.2,0.2,0.5,0.3,0.8,0.2c0.3-0.2,0.4-0.7,0.2-1c-0.1-0.2-0.3-0.3-0.6-0.4s-0.5,0-0.7,0.1
								c-0.3,0.2-0.4,0.4-0.5,0.8c-0.1,0.3,0,0.6,0.2,0.9c0.2,0.4,0.6,0.6,1.1,0.7c0,0,1,0.3,3-0.3c0.1,0,0.1,0,0.2,0.1
								c0,0.1,0,0.1-0.1,0.2C24.4,12.9,23.7,13,23.2,13z"/>
							<path class="st0" d="M24.3,8.2c0,0-0.1,0-0.1-0.1c0-0.1,0-0.1,0.1-0.2c2.5-1,3.1-2,3.1-2c0.2-0.3,0.3-0.6,0.2-0.9
								c-0.1-0.5-0.5-0.8-1-0.7C26.2,4.5,26,4.9,26,5.2c0.1,0.3,0.3,0.4,0.6,0.4c0.2,0,0.3-0.2,0.3-0.4c0-0.1,0-0.1,0.1-0.1
								s0.1,0,0.1,0.1c0.1,0.3-0.1,0.7-0.5,0.7c-0.4,0.1-0.8-0.2-0.9-0.6c-0.1-0.5,0.2-1,0.7-1.1c0.6-0.1,1.2,0.3,1.3,0.8
								c0.1,0.4,0,0.8-0.2,1.1C27.5,6.2,26.9,7.2,24.3,8.2C24.3,8.2,24.3,8.2,24.3,8.2z"/>
							<path class="st0" d="M21.5,9.3c-0.4,0-0.7,0-0.7,0c-0.3,0-0.6-0.2-0.8-0.5c-0.3-0.4-0.2-1,0.3-1.3c0.4-0.2,0.9-0.1,1.1,0.2
								c0.2,0.3,0.1,0.7-0.2,0.9c-0.3,0.2-0.6,0.1-0.8-0.2c0-0.1,0-0.1,0-0.2c0.1,0,0.1,0,0.2,0c0.1,0.1,0.3,0.2,0.4,0.1
								c0.2-0.1,0.2-0.4,0.1-0.6c-0.2-0.3-0.5-0.3-0.8-0.2c-0.3,0.2-0.4,0.7-0.2,1c0.1,0.2,0.4,0.4,0.6,0.4c0,0,0.5,0.1,1.4-0.1
								c0.1,0,0.1,0,0.1,0.1c0,0.1,0,0.1-0.1,0.1C21.9,9.2,21.7,9.2,21.5,9.3z"/>
							<path class="st0" d="M22.2,7.2c-0.1,0-0.1,0-0.1-0.1c-0.3-0.9-0.2-1.4-0.2-1.4c0-0.3,0.2-0.6,0.4-0.8
								c0.2-0.2,0.4-0.2,0.7-0.2c0.3,0,0.5,0.2,0.6,0.4c0.3,0.3,0.2,0.8-0.1,1.1c-0.3,0.2-0.7,0.2-0.9-0.1c-0.2-0.2-0.2-0.6,0.1-0.8
								c0,0,0.1,0,0.2,0c0,0,0,0.1,0,0.2c-0.1,0.1-0.2,0.3,0,0.4c0.1,0.2,0.4,0.2,0.6,0.1c0.2-0.2,0.3-0.5,0.1-0.8
								C23.4,5,23.2,4.9,23,4.9c-0.2,0-0.4,0-0.5,0.2c-0.2,0.2-0.3,0.4-0.3,0.7c0,0-0.1,0.5,0.2,1.3C22.3,7.2,22.3,7.2,22.2,7.2
								C22.2,7.2,22.2,7.2,22.2,7.2z"/>
						</g>
					</g>
				</g>
				<g>
					<path class="st0" d="M25.9,12.8c-1.9-1.7-2.1-4.7-0.4-6.7c0.1-0.1,0.1-0.2,0-0.2c-0.1-0.1-0.2-0.1-0.2,0
						c-1.9,2.1-1.7,5.3,0.4,7.2c1,0.9,2.4,1.3,3.7,1.3c0.7,0,1.4-0.2,2.1-0.6l0-0.4C29.7,14.3,27.4,14.2,25.9,12.8z"/>
				</g>
			</g>
			<g>
				<g>
					<g>
						<path class="st0" d="M28.3,15.9c0.3,0,0.6,0.2,0.8,0.5c0.1,0.2,0,0.3,0,0.5c-0.1,0.1-0.2,0.3-0.3,0.3c-0.3,0.1-0.5,0-0.6-0.3
							c0-0.1,0-0.1,0.1-0.2c0.1,0,0.1,0,0.2,0.1c0,0.1,0.2,0.2,0.3,0.2c0.1,0,0.2-0.1,0.2-0.2c0-0.1,0-0.2,0-0.3
							c-0.1-0.2-0.4-0.4-0.6-0.3c-0.3,0.1-0.5,0.5-0.4,0.8c0.1,0.2,0.2,0.4,0.5,0.5c0,0,0.5,0.3,1.6,0.2c0.1,0,0.1,0,0.1,0.1
							s0,0.1-0.1,0.1c-1.2,0-1.7-0.2-1.7-0.2c-0.3-0.1-0.5-0.3-0.6-0.6c-0.2-0.4,0.1-0.9,0.5-1.1C28.2,15.9,28.2,15.9,28.3,15.9z"/>
						<g>
							<path class="st0" d="M31.5,13.4C31.5,13.4,31.5,13.4,31.5,13.4c2.4,1.5,2.9,2.6,2.9,2.6c0.2,0.3,0.2,0.7,0,1.1
								c-0.1,0.3-0.3,0.5-0.6,0.6c-0.3,0.1-0.6,0.1-0.8,0c-0.2-0.1-0.4-0.3-0.5-0.5c-0.1-0.2-0.1-0.5,0-0.7c0.1-0.2,0.2-0.3,0.4-0.4
								c0.2-0.1,0.4-0.1,0.6,0c0.3,0.1,0.5,0.5,0.3,0.8c0,0.1-0.1,0.1-0.2,0.1c-0.1,0-0.1-0.1-0.1-0.2c0.1-0.2,0-0.4-0.2-0.5
								c-0.3-0.1-0.6,0-0.7,0.3c-0.1,0.2-0.1,0.3,0,0.5c0.1,0.2,0.2,0.3,0.4,0.4c0.2,0.1,0.4,0.1,0.7,0c0.2-0.1,0.4-0.3,0.5-0.5
								c0.1-0.3,0.1-0.6,0-0.9c0,0-0.4-1.1-2.7-2.5C31.4,13.6,31.3,13.5,31.5,13.4C31.4,13.4,31.4,13.4,31.5,13.4z"/>
							<path class="st0" d="M32.7,11.5c0.6-0.1,1,0,1,0c0.5,0,1,0.3,1.3,0.7c0.2,0.3,0.3,0.7,0.3,1.1c-0.1,0.4-0.2,0.7-0.6,0.9
								c-0.2,0.2-0.6,0.3-0.9,0.2c-0.3,0-0.6-0.2-0.8-0.4c-0.3-0.4-0.2-1,0.2-1.3c0.3-0.3,0.8-0.2,1.1,0.2c0,0.1,0,0.1,0,0.2
								c-0.1,0-0.1,0-0.2,0c-0.2-0.2-0.5-0.3-0.8-0.1c-0.3,0.2-0.4,0.7-0.1,1c0.2,0.2,0.4,0.3,0.6,0.4c0.2,0,0.5,0,0.7-0.2
								c0.3-0.2,0.4-0.5,0.5-0.8s0-0.6-0.2-0.9c-0.3-0.3-0.7-0.6-1.1-0.6c0,0-1-0.2-2.9,0.5c-0.1,0-0.1,0-0.2-0.1
								c0-0.1,0-0.1,0.1-0.2C31.5,11.8,32.2,11.6,32.7,11.5z"/>
							<path class="st0" d="M31.9,16.4c0,0,0.1,0,0.1,0.1c0,0.1,0,0.1-0.1,0.2c-2.4,1.1-2.9,2.2-3,2.2c-0.2,0.3-0.2,0.6-0.2,0.9
								c0.1,0.5,0.6,0.7,1,0.6c0.4-0.1,0.6-0.5,0.5-0.8c-0.1-0.3-0.4-0.4-0.6-0.4c-0.2,0.1-0.3,0.3-0.3,0.5c0,0.1,0,0.1-0.1,0.1
								c-0.1,0-0.1,0-0.1-0.1c-0.1-0.3,0.1-0.7,0.4-0.8c0.4-0.1,0.8,0.1,0.9,0.5c0.1,0.5-0.2,1-0.6,1.1c-0.6,0.2-1.2-0.2-1.3-0.8
								c-0.1-0.4,0-0.8,0.2-1.1C28.8,18.7,29.4,17.6,31.9,16.4C31.9,16.5,31.9,16.5,31.9,16.4z"/>
							<path class="st0" d="M34.7,15.2c0.4-0.1,0.7,0,0.7,0c0.3,0,0.6,0.2,0.8,0.5c0.3,0.4,0.2,1-0.2,1.3c-0.4,0.3-0.8,0.2-1.1-0.2
								c-0.2-0.3-0.2-0.7,0.1-0.9c0.2-0.2,0.6-0.1,0.8,0.1c0,0.1,0,0.1,0,0.2c-0.1,0-0.1,0-0.2,0c-0.1-0.1-0.3-0.2-0.4-0.1
								c-0.2,0.1-0.2,0.4-0.1,0.6c0.2,0.2,0.5,0.3,0.8,0.1c0.3-0.2,0.4-0.7,0.1-1c-0.2-0.2-0.4-0.4-0.7-0.4c0,0-0.5-0.1-1.4,0.2
								c-0.1,0-0.1,0-0.1-0.1c0-0.1,0-0.1,0.1-0.1C34.2,15.3,34.5,15.2,34.7,15.2z"/>
							<path class="st0" d="M34.1,17.3c0.1,0,0.1,0,0.1,0.1c0.4,0.9,0.3,1.4,0.3,1.4c0,0.3-0.1,0.6-0.4,0.9
								c-0.2,0.2-0.4,0.3-0.7,0.3c-0.3,0-0.5-0.1-0.7-0.3c-0.3-0.3-0.3-0.8,0-1.1c0.3-0.2,0.7-0.2,0.9,0c0.2,0.2,0.2,0.6,0,0.8
								c0,0-0.1,0-0.2,0c0,0,0-0.1,0-0.2c0.1-0.1,0.1-0.3,0-0.4c-0.2-0.2-0.4-0.2-0.6,0c-0.2,0.2-0.2,0.6,0,0.8
								c0.1,0.1,0.3,0.2,0.5,0.2c0.2,0,0.4-0.1,0.5-0.2c0.2-0.2,0.3-0.4,0.3-0.7c0,0,0-0.5-0.3-1.3C33.9,17.4,34,17.3,34.1,17.3
								C34,17.3,34,17.3,34.1,17.3z"/>
						</g>
					</g>
				</g>
				<g>
					<path class="st0" d="M30.1,12c2,1.6,2.4,4.6,0.8,6.6c-0.1,0.1,0,0.2,0,0.2c0.1,0.1,0.2,0,0.2,0c1.7-2.2,1.3-5.4-0.9-7.1
						c-1.1-0.9-2.4-1.2-3.7-1c-0.7,0.1-1.4,0.3-2,0.7l0,0.4C26.2,10.7,28.4,10.7,30.1,12z"/>
				</g>
			</g>
		</g>
	</g>
</g>
<text transform="matrix(1 0 0 1 15.1729 24.252)" class="st0 st1 st2">E</text>
</svg>
