<?xml version="1.0" encoding="utf-8"?>
<!-- Generator: Adobe Illustrator 19.2.1, SVG Export Plug-In . SVG Version: 6.00 Build 0)  -->
<svg version="1.1" id="Layer_1" xmlns="http://www.w3.org/2000/svg" xmlns:xlink="http://www.w3.org/1999/xlink" x="0px" y="0px"
	 viewBox="0 0 102 113" style="enable-background:new 0 0 102 113;" xml:space="preserve">
<style type="text/css">
	.st0{fill:#2D5B75;}
	.st1{opacity:0.15;}
	.st2{fill:#010101;}
	.st3{fill:#FFDE17;}
	.st4{fill:#D8D6D7;}
	.st5{enable-background:new    ;}
	.st6{opacity:0.51;}
	.st7{fill:#FFFFFF;}
</style>
<g id="XMLID_178_">
	<g id="XMLID_616_">
		<g>
			<path class="st0" d="M85,49.1c0,16.5-11.7,30.2-27.2,33.4c-2.2,0.5-4.5,0.7-6.8,0.7c-18.9,0-34.2-15.4-34.1-34.3
				C17.1,30.2,32.4,15,51.1,15c17.6,0,32,13.3,33.8,30.5C85,46.6,85,47.9,85,49.1z"/>
		</g>
	</g>
	<g id="XMLID_615_" class="st1">
		<g>
			<polygon class="st2" points="46,31.3 47.7,35.4 44.4,32.2 			"/>
		</g>
	</g>
	<g id="XMLID_614_" class="st1">
		<g>
			<path class="st2" d="M85,49.1c0,16.5-11.7,30.2-27.2,33.4l-24-24l2.5-4.6l-6.5-6.5L31,34.9c0,0,8.6,7.9,8.8,8.2
				c0.2,0.2,9.9,2.2,9.9,2.2L49,38.4l-1.3-3h0.4l-2.5-5.2l7.5,7.5l1.8-4.8l3.2-2.4l10,10l6.7-5.2L85,45.5C85,46.6,85,47.9,85,49.1z"
				/>
		</g>
	</g>
	<g id="XMLID_179_">
		<g id="XMLID_602_">
			<g id="XMLID_613_">
				<g>
					<polygon class="st3" points="46.5,49.1 55.5,49.1 55.5,50.4 55.5,52.6 55.8,54.4 56,58.1 56,59.6 46,59.6 46,58.1 46.2,54.4 
						46.5,52.6 46.5,50.4 					"/>
				</g>
			</g>
			<g id="XMLID_610_">
				<g id="XMLID_612_">
					<g>
						<rect x="46.5" y="50.4" class="st2" width="9.1" height="2.2"/>
					</g>
				</g>
				<g id="XMLID_3225_">
					<g>
						<polygon class="st2" points="46.2,54.4 46,58.1 56,58.1 55.8,54.4 						"/>
					</g>
				</g>
				<g id="XMLID_611_">
					<g>
						<path class="st2" d="M51,68.2c2.8,0,5-3.8,5-8.5H46C46,64.3,48.3,68.2,51,68.2z"/>
					</g>
				</g>
			</g>
			<g id="XMLID_604_">
				<g>
					<g>
						<path class="st2" d="M55.6,42.9c-0.2-0.3-0.6-0.7-1-0.8l-2.5-1.2c-0.7-0.3-1.6-0.3-2.4,0l-2.5,1.2c-0.4,0.2-0.7,0.5-1,0.8
							c-0.3,0.5-0.5,1.1-0.4,1.7l0.6,4.4h9l0.6-4.4C56.1,44,56,43.4,55.6,42.9z"/>
					</g>
				</g>
			</g>
			<g id="XMLID_603_">
				<g>
					<path class="st2" d="M44.4,32.1C44.4,32.1,44.5,32.1,44.4,32.1c0.1,0,0.2,0.1,0.3,0.1c0.1,0.1,0.2,0.1,0.4,0.2
						c0.1,0.1,0.3,0.2,0.5,0.3s0.4,0.3,0.5,0.5s0.3,0.3,0.5,0.6c0.2,0.2,0.3,0.4,0.5,0.7c0.2,0.2,0.3,0.5,0.5,0.7
						c0.1,0.2,0.3,0.5,0.4,0.8c0.1,0.3,0.2,0.5,0.3,0.8c0.1,0.2,0.1,0.3,0.2,0.5c-1.3,0.8-2.1,2.2-2.1,3.8c0,0.2,0,0.5,0.1,0.7
						c0.1,0.4,0.5,0.6,0.8,0.4l0,0l2.3-1.1c0.4-0.2,0.9-0.3,1.4-0.3s0.9,0.1,1.4,0.3l2.2,1.1l0,0c0.3,0.2,0.8,0,0.8-0.4
						c0-0.2,0.1-0.5,0.1-0.8c0-1.6-0.8-3-2.1-3.8c0.1-0.2,0.1-0.3,0.2-0.5c0.1-0.2,0.2-0.5,0.3-0.8s0.3-0.5,0.4-0.8
						c0.2-0.2,0.3-0.5,0.5-0.7s0.3-0.5,0.5-0.7s0.4-0.4,0.5-0.6s0.3-0.3,0.5-0.5c0.2-0.1,0.3-0.2,0.5-0.3c0.1-0.1,0.2-0.2,0.4-0.2
						c0.1,0,0.2-0.1,0.2-0.1h0.1c0.7-0.3,0.9-1.3,0.2-1.9c-0.2-0.2-0.4-0.2-0.7-0.2s-0.6,0.1-0.8,0.2l0,0c0,0,0,0-0.1,0.1
						s-0.2,0.1-0.3,0.2s-0.2,0.2-0.4,0.4s-0.3,0.4-0.5,0.5c-0.2,0.2-0.3,0.4-0.5,0.7c-0.2,0.2-0.3,0.5-0.5,0.8s-0.3,0.6-0.4,0.9
						c-0.1,0.3-0.2,0.6-0.4,0.9c-0.1,0.3-0.2,0.6-0.2,0.9c-0.1,0.3-0.1,0.6-0.2,0.9c0,0.1,0,0.2,0,0.4c-0.6-0.2-1.2-0.4-1.9-0.4
						s-1.3,0.1-1.9,0.4c0-0.1,0-0.2,0-0.4c0-0.3-0.1-0.6-0.2-0.9c-0.1-0.3-0.2-0.6-0.2-0.9c-0.1-0.3-0.2-0.6-0.3-0.9
						c-0.1-0.3-0.2-0.6-0.4-0.9c-0.1-0.3-0.3-0.5-0.5-0.8c-0.2-0.2-0.3-0.5-0.5-0.7s-0.3-0.4-0.5-0.5c-0.1-0.2-0.3-0.3-0.4-0.4
						c-0.1-0.1-0.2-0.2-0.3-0.2c-0.1-0.1-0.1-0.1-0.1-0.1l0,0c-0.2-0.1-0.5-0.2-0.8-0.2c-0.2,0-0.5,0.1-0.7,0.2
						C43.5,30.9,43.7,31.8,44.4,32.1z"/>
				</g>
			</g>
		</g>
		<g id="XMLID_180_">
			<g id="XMLID_579_">
				<g>
					<g>
						<path class="st4" d="M48.8,49.1L48,42.8l-16.9-7.9c-0.5-0.3-1.1-0.4-1.6-0.4c-0.8,0-1.5,0.2-2.1,0.7c-0.8,0.6-1.2,1.6-1.2,2.6
							v0.9c0,5,2.9,10.4,8.3,10.4H48.8L48.8,49.1z"/>
					</g>
				</g>
			</g>
			<g id="XMLID_192_">
				<g>
					<g>
						<path class="st4" d="M32.2,54.3l0.1,1c0.4,3.4,3.6,5.1,6.3,4.8c0.7-0.1,1.4-0.3,2-0.7l8.3-5.8l-0.2-4.8l-13.5,1.6
							C33.4,50.7,32,52.4,32.2,54.3z"/>
					</g>
				</g>
			</g>
			<g id="XMLID_186_">
				<g>
					<g>
						<path class="st4" d="M66.7,50.5l-13.5-1.6L53,53.7l8.3,5.8c0.6,0.4,1.3,0.6,2,0.7c2.7,0.3,5.9-1.4,6.3-4.8l0.1-1
							C70,52.4,68.6,50.7,66.7,50.5z"/>
					</g>
				</g>
			</g>
			<g id="XMLID_181_">
				<g>
					<g>
						<path class="st4" d="M74.6,35.2c-0.6-0.5-1.3-0.7-2.1-0.7c-0.6,0-1.1,0.1-1.6,0.4L54,42.8L53.2,49h14.3
							c5.4,0,8.3-5.3,8.3-10.4v-0.9C75.8,36.8,75.4,35.9,74.6,35.2z"/>
					</g>
				</g>
			</g>
		</g>
	</g>
</g>
<g class="st5">
	<g class="st6">
		<path d="M21.1,92.6l-0.6,0.8c-0.5-0.5-1.1-0.8-1.8-0.8c-1.3,0-2.3,1-2.3,2.2s1,2.2,2.3,2.2c0.6,0,1.3-0.3,1.8-0.8l0.6,0.7
			c-0.6,0.6-1.6,1-2.5,1c-1.9,0-3.3-1.4-3.3-3.2c0-1.8,1.5-3.2,3.3-3.2C19.6,91.7,20.5,92,21.1,92.6z"/>
		<path d="M25.1,96.1c-0.1,0-0.2,0-0.3,0h-1.5V98h-1.1v-6.3h2.6c1.6,0,2.6,0.8,2.6,2.2c0,1-0.5,1.7-1.3,2.1l1.4,2.1h-1.2L25.1,96.1z
			 M24.8,95.2c1,0,1.5-0.4,1.5-1.3c0-0.8-0.6-1.2-1.5-1.2h-1.5v2.5H24.8z"/>
		<path d="M29.9,92.7v1.7H33v1h-3.1v1.8h3.6v1h-4.7v-6.5h4.5v1H29.9z"/>
		<path d="M35.6,96.6L35,98h-1.1l2.8-6.4h1.1l2.8,6.4h-1.1l-0.6-1.4H35.6z M37.2,92.8L36,95.7h2.4L37.2,92.8z"/>
		<path d="M43.2,92.7v5.4h-1.1v-5.4h-2v-1h5.1v1H43.2z"/>
		<path d="M46.1,98.1v-6.4h1.1v6.4H46.1z"/>
		<path d="M50.6,98.1L48,91.7h1.2l2,5.2l2-5.2h1.1l-2.6,6.4H50.6z"/>
		<path d="M56.2,92.7v1.7h3.1v1h-3.1v1.8h3.6v1h-4.7v-6.5h4.5v1H56.2z"/>
		<path d="M66.2,91.7c1.3,0,2.1,0.6,2.1,1.6c0,0.7-0.4,1.3-1.1,1.4c0.9,0.1,1.4,0.8,1.4,1.6c0,1.1-0.9,1.7-2.3,1.7h-2.8v-6.3H66.2z
			 M64.5,94.3h1.6c0.7,0,1.1-0.3,1.1-0.9c0-0.5-0.4-0.8-1.1-0.8h-1.6V94.3z M64.5,97.1h1.6c0.8,0,1.3-0.3,1.3-0.9s-0.5-0.9-1.3-0.9
			h-1.6V97.1z"/>
		<path d="M75.3,95.4c0,1.7-1,2.7-2.8,2.7s-2.8-1-2.8-2.7v-3.7h1.1v3.7c0,1.1,0.7,1.7,1.7,1.7s1.7-0.6,1.7-1.7v-3.7h1.1L75.3,95.4
			L75.3,95.4z"/>
		<path d="M77.8,97.1h3.9v1h-5.4v-0.8l3.9-4.6h-3.8v-1h5.2v0.8L77.8,97.1z"/>
		<path d="M83.8,97.1h3.9v1h-5.4v-0.8l3.9-4.6h-3.8v-1h5.2v0.8L83.8,97.1z"/>
	</g>
	<g>
		<g>
			<path class="st7" d="M20.7,91.9l-0.6,0.8c-0.5-0.5-1.1-0.8-1.8-0.8c-1.3,0-2.3,1-2.3,2.2s1,2.2,2.3,2.2c0.6,0,1.3-0.3,1.8-0.8
				l0.6,0.7c-0.6,0.6-1.6,1-2.5,1c-1.9,0-3.3-1.4-3.3-3.2c0-1.8,1.5-3.2,3.3-3.2C19.2,91,20.1,91.3,20.7,91.9z"/>
			<path class="st7" d="M24.7,95.4c-0.1,0-0.2,0-0.3,0h-1.5v1.9h-1.1V91h2.6c1.6,0,2.6,0.8,2.6,2.2c0,1-0.5,1.7-1.3,2.1l1.4,2.1
				h-1.2L24.7,95.4z M24.4,94.5c1,0,1.5-0.4,1.5-1.3c0-0.8-0.6-1.2-1.5-1.2h-1.5v2.5H24.4z"/>
			<path class="st7" d="M29.5,92v1.7h3.1v1h-3.1v1.8h3.6v1h-4.7V91h4.5v1H29.5z"/>
			<path class="st7" d="M35.2,95.9l-0.6,1.4h-1.1l2.8-6.4h1.1l2.8,6.4h-1.1l-0.6-1.4H35.2z M36.8,92.1L35.6,95H38L36.8,92.1z"/>
			<path class="st7" d="M42.8,92v5.4h-1.1V92h-2v-1h5.1v1H42.8z"/>
			<path class="st7" d="M45.7,97.4V91h1.1v6.4H45.7z"/>
			<path class="st7" d="M50.2,97.4L47.6,91h1.2l2,5.2l2-5.2h1.1l-2.6,6.4H50.2z"/>
			<path class="st7" d="M55.8,92v1.7h3.1v1h-3.1v1.8h3.6v1h-4.7V91h4.5v1H55.8z"/>
			<path class="st7" d="M65.8,91c1.3,0,2.1,0.6,2.1,1.6c0,0.7-0.4,1.3-1.1,1.4c0.9,0.1,1.4,0.8,1.4,1.6c0,1.1-0.9,1.7-2.3,1.7h-2.8
				V91H65.8z M64.1,93.6h1.6c0.7,0,1.1-0.3,1.1-0.9c0-0.5-0.4-0.8-1.1-0.8h-1.6V93.6z M64.1,96.4h1.6c0.8,0,1.3-0.3,1.3-0.9
				s-0.5-0.9-1.3-0.9h-1.6V96.4z"/>
			<path class="st7" d="M74.9,94.7c0,1.7-1,2.7-2.8,2.7s-2.8-1-2.8-2.7V91h1.1v3.7c0,1.1,0.7,1.7,1.7,1.7s1.7-0.6,1.7-1.7V91h1.1
				L74.9,94.7L74.9,94.7z"/>
			<path class="st7" d="M77.4,96.4h3.9v1h-5.4v-0.8l3.9-4.6H76v-1h5.2v0.8L77.4,96.4z"/>
			<path class="st7" d="M83.4,96.4h3.9v1h-5.4v-0.8l3.9-4.6H82v-1h5.2v0.8L83.4,96.4z"/>
		</g>
	</g>
</g>
<g class="st5">
	<g class="st6">
		<path d="M31,103.6L31,103.6h-0.6v0.8h-0.6v-2.8h1.2c0.7,0,1.1,0.4,1.1,1c0,0.4-0.2,0.7-0.5,0.9l0.6,0.9h-0.7L31,103.6z M30.9,103
			c0.3,0,0.5-0.2,0.5-0.5c0-0.3-0.2-0.5-0.5-0.5h-0.6v0.9H30.9z"/>
		<path d="M33.3,102.1v0.6h1.4v0.5h-1.4v0.6h1.5v0.5h-2.2v-2.8h2.1v0.5H33.3z"/>
		<path d="M36,103.8l-0.2,0.5h-0.7l1.2-2.8H37l1.2,2.8h-0.7l-0.2-0.5H36z M36.6,102.2l-0.4,1.1h0.9L36.6,102.2z"/>
		<path d="M39.7,101.6c0.9,0,1.5,0.6,1.5,1.4c0,0.8-0.6,1.4-1.5,1.4h-1.2v-2.8H39.7z M39.2,103.8h0.6c0.5,0,0.8-0.4,0.8-0.9
			c0-0.5-0.4-0.9-0.8-0.9h-0.5V103.8z"/>
		<path d="M43.1,104.4h-0.6v-0.9l-1-1.9H42l0.7,1.3l0.7-1.3h0.6l-1,1.9V104.4z"/>
		<path d="M44.9,104.1c0,0.2-0.1,0.3-0.3,0.3c-0.2,0-0.3-0.1-0.3-0.3c0-0.2,0.1-0.3,0.3-0.3C44.8,103.8,44.9,103.9,44.9,104.1z"/>
		<path d="M48.6,101.8l-0.2,0.5c-0.3-0.2-0.6-0.3-0.9-0.3c-0.2,0-0.4,0.1-0.4,0.2c0,0.5,1.5,0.2,1.5,1.2c0,0.5-0.5,0.8-1.1,0.8
			c-0.5,0-0.9-0.2-1.2-0.4l0.3-0.5c0.3,0.3,0.7,0.4,1,0.4c0.3,0,0.4-0.1,0.4-0.3c0-0.5-1.5-0.2-1.5-1.2c0-0.5,0.4-0.8,1.1-0.8
			C47.9,101.5,48.3,101.7,48.6,101.8z"/>
		<path d="M49.8,102.1v0.6h1.4v0.5h-1.4v0.6h1.5v0.5h-2.2v-2.8h2.1v0.5H49.8z"/>
		<path d="M53.1,102.1v2.3h-0.6v-2.3h-0.9v-0.5H54v0.5H53.1z"/>
		<path d="M54.6,104.1c0,0.2-0.1,0.3-0.3,0.3c-0.2,0-0.3-0.1-0.3-0.3c0-0.2,0.1-0.3,0.3-0.3C54.5,103.8,54.6,103.9,54.6,104.1z"/>
		<path d="M58.6,102l-0.4,0.4c-0.2-0.2-0.5-0.4-0.7-0.4c-0.5,0-0.9,0.4-0.9,0.9c0,0.5,0.4,0.9,0.9,0.9c0.3,0,0.5-0.1,0.7-0.3
			l0.4,0.4c-0.3,0.3-0.7,0.5-1.1,0.5c-0.8,0-1.5-0.6-1.5-1.4c0-0.8,0.6-1.4,1.5-1.4C57.9,101.5,58.3,101.7,58.6,102z"/>
		<path d="M60.3,103.6L60.3,103.6h-0.6v0.8h-0.6v-2.8h1.2c0.7,0,1.1,0.4,1.1,1c0,0.4-0.2,0.7-0.5,0.9l0.6,0.9h-0.7L60.3,103.6z
			 M60.3,103c0.3,0,0.5-0.2,0.5-0.5c0-0.3-0.2-0.5-0.5-0.5h-0.6v0.9H60.3z"/>
		<path d="M62.7,102.1v0.6H64v0.5h-1.4v0.6h1.5v0.5H62v-2.8h2.1v0.5H62.7z"/>
		<path d="M65.4,103.8l-0.2,0.5h-0.7l1.2-2.8h0.7l1.2,2.8h-0.7l-0.2-0.5H65.4z M66,102.2l-0.4,1.1h0.9L66,102.2z"/>
		<path d="M68.8,102.1v2.3h-0.6v-2.3h-0.9v-0.5h2.3v0.5H68.8z"/>
		<path d="M70.7,102.1v0.6h1.4v0.5h-1.4v0.6h1.5v0.5h-2.2v-2.8h2.1v0.5H70.7z"/>
		<path d="M73.3,104.1c0,0.2-0.1,0.3-0.3,0.3c-0.2,0-0.3-0.1-0.3-0.3c0-0.2,0.1-0.3,0.3-0.3C73.2,103.8,73.3,103.9,73.3,104.1z"/>
	</g>
	<g>
		<g>
			<path class="st7" d="M30.6,102.8L30.6,102.8H30v0.8h-0.6v-2.8h1.2c0.7,0,1.1,0.4,1.1,1c0,0.4-0.2,0.7-0.5,0.9l0.6,0.9h-0.7
				L30.6,102.8z M30.6,102.3c0.3,0,0.5-0.2,0.5-0.5c0-0.3-0.2-0.5-0.5-0.5H30v0.9H30.6z"/>
			<path class="st7" d="M33,101.4v0.6h1.4v0.5H33v0.6h1.5v0.5h-2.2v-2.8h2.1v0.5H33z"/>
			<path class="st7" d="M35.6,103.1l-0.2,0.5h-0.7l1.2-2.8h0.7l1.2,2.8h-0.7l-0.2-0.5H35.6z M36.3,101.5l-0.4,1.1h0.9L36.3,101.5z"
				/>
			<path class="st7" d="M39.4,100.8c0.9,0,1.5,0.6,1.5,1.4c0,0.8-0.6,1.4-1.5,1.4h-1.2v-2.8H39.4z M38.8,103.1h0.6
				c0.5,0,0.8-0.4,0.8-0.9c0-0.5-0.4-0.9-0.8-0.9h-0.5V103.1z"/>
			<path class="st7" d="M42.7,103.6h-0.6v-0.9l-1-1.9h0.6l0.7,1.3l0.7-1.3h0.6l-1,1.9V103.6z"/>
			<path class="st7" d="M44.6,103.4c0,0.2-0.1,0.3-0.3,0.3c-0.2,0-0.3-0.1-0.3-0.3c0-0.2,0.1-0.3,0.3-0.3
				C44.4,103,44.6,103.2,44.6,103.4z"/>
			<path class="st7" d="M48.2,101.1l-0.2,0.5c-0.3-0.2-0.6-0.3-0.9-0.3c-0.2,0-0.4,0.1-0.4,0.2c0,0.5,1.5,0.2,1.5,1.2
				c0,0.5-0.5,0.8-1.1,0.8c-0.5,0-0.9-0.2-1.2-0.4l0.3-0.5c0.3,0.3,0.7,0.4,1,0.4c0.3,0,0.4-0.1,0.4-0.3c0-0.5-1.5-0.2-1.5-1.2
				c0-0.5,0.4-0.8,1.1-0.8C47.6,100.8,48,100.9,48.2,101.1z"/>
			<path class="st7" d="M49.4,101.4v0.6h1.4v0.5h-1.4v0.6H51v0.5h-2.2v-2.8h2.1v0.5H49.4z"/>
			<path class="st7" d="M52.7,101.4v2.3h-0.6v-2.3h-0.9v-0.5h2.3v0.5H52.7z"/>
			<path class="st7" d="M54.3,103.4c0,0.2-0.1,0.3-0.3,0.3c-0.2,0-0.3-0.1-0.3-0.3c0-0.2,0.1-0.3,0.3-0.3
				C54.1,103,54.3,103.2,54.3,103.4z"/>
			<path class="st7" d="M58.3,101.3l-0.4,0.4c-0.2-0.2-0.5-0.4-0.7-0.4c-0.5,0-0.9,0.4-0.9,0.9c0,0.5,0.4,0.9,0.9,0.9
				c0.3,0,0.5-0.1,0.7-0.3l0.4,0.4c-0.3,0.3-0.7,0.5-1.1,0.5c-0.8,0-1.5-0.6-1.5-1.4c0-0.8,0.6-1.4,1.5-1.4
				C57.6,100.8,58,101,58.3,101.3z"/>
			<path class="st7" d="M60,102.8L60,102.8h-0.6v0.8h-0.6v-2.8h1.2c0.7,0,1.1,0.4,1.1,1c0,0.4-0.2,0.7-0.5,0.9l0.6,0.9h-0.7
				L60,102.8z M59.9,102.3c0.3,0,0.5-0.2,0.5-0.5c0-0.3-0.2-0.5-0.5-0.5h-0.6v0.9H59.9z"/>
			<path class="st7" d="M62.3,101.4v0.6h1.4v0.5h-1.4v0.6h1.5v0.5h-2.2v-2.8h2.1v0.5H62.3z"/>
			<path class="st7" d="M65,103.1l-0.2,0.5h-0.7l1.2-2.8H66l1.2,2.8h-0.7l-0.2-0.5H65z M65.6,101.5l-0.4,1.1h0.9L65.6,101.5z"/>
			<path class="st7" d="M68.5,101.4v2.3h-0.6v-2.3H67v-0.5h2.3v0.5H68.5z"/>
			<path class="st7" d="M70.4,101.4v0.6h1.4v0.5h-1.4v0.6h1.5v0.5h-2.2v-2.8h2.1v0.5H70.4z"/>
			<path class="st7" d="M73,103.4c0,0.2-0.1,0.3-0.3,0.3c-0.2,0-0.3-0.1-0.3-0.3c0-0.2,0.1-0.3,0.3-0.3C72.8,103,73,103.2,73,103.4z
				"/>
		</g>
	</g>
</g>
</svg>
