<?xml version="1.0" encoding="utf-8"?>
<!-- Generator: Adobe Illustrator 19.2.1, SVG Export Plug-In . SVG Version: 6.00 Build 0)  -->
<svg version="1.1" id="Layer_1" xmlns="http://www.w3.org/2000/svg" xmlns:xlink="http://www.w3.org/1999/xlink" x="0px" y="0px"
	 viewBox="0 0 74.9 103" style="enable-background:new 0 0 74.9 103;" xml:space="preserve">
<metadata><?xpacket begin="﻿" id="W5M0MpCehiHzreSzNTczkc9d"?>
<x:xmpmeta xmlns:x="adobe:ns:meta/" x:xmptk="Adobe XMP Core 5.6-c111 79.158366, 2015/09/25-01:12:00        ">
   <rdf:RDF xmlns:rdf="http://www.w3.org/1999/02/22-rdf-syntax-ns#">
      <rdf:Description rdf:about=""
            xmlns:ExtensisFontSense="http://www.extensis.com/meta/FontSense/">
         <ExtensisFontSense:slug>
            <rdf:Bag>
               <rdf:li>
                  <rdf:Description>
                     <ExtensisFontSense:Family>Montserrat</ExtensisFontSense:Family>
                     <ExtensisFontSense:Version>3.001</ExtensisFontSense:Version>
                     <ExtensisFontSense:OutlineFileSize>0</ExtensisFontSense:OutlineFileSize>
                     <ExtensisFontSense:KerningChecksum>0</ExtensisFontSense:KerningChecksum>
                     <ExtensisFontSense:Foundry>--</ExtensisFontSense:Foundry>
                     <ExtensisFontSense:FontKind>OpenType - PS</ExtensisFontSense:FontKind>
                     <ExtensisFontSense:Checksum>1878082172</ExtensisFontSense:Checksum>
                     <ExtensisFontSense:PostScriptName>Montserrat-SemiBold</ExtensisFontSense:PostScriptName>
                     <ExtensisFontSense:FontSense_1.2_Checksum>1878082172</ExtensisFontSense:FontSense_1.2_Checksum>
                  </rdf:Description>
               </rdf:li>
            </rdf:Bag>
         </ExtensisFontSense:slug>
      </rdf:Description>
   </rdf:RDF>
</x:xmpmeta>
                                                                                                    
                                                                                                    
                                                                                                    
                                                                                                    
                                                                                                    
                                                                                                    
                                                                                                    
                                                                                                    
                                                                                                    
                                                                                                    
                                                                                                    
                                                                                                    
                                                                                                    
                                                                                                    
                                                                                                    
                                                                                                    
                                                                                                    
                                                                                                    
                                                                                                    
                                                                                                    
                           
<?xpacket end="w"?></metadata>
<style type="text/css">
	.st0{fill:#2D5B75;}
	.st1{opacity:0.15;}
	.st2{fill:#010101;}
	.st3{fill:#FFDE17;}
	.st4{fill:#D8D6D7;}
	.st5{enable-background:new    ;}
	.st6{fill:#FFFFFF;}
	.st7{font-family:'Montserrat-SemiBold';}
	.st8{font-size:4px;}
</style>
<g id="XMLID_178_">
	<g id="XMLID_616_">
		<g>
			<path class="st0" d="M71.2,46c0,16.5-11.7,30.2-27.2,33.4c-2.2,0.5-4.5,0.7-6.8,0.7C18.3,80.1,3,64.7,3.1,45.8
				c0.2-18.7,15.5-33.9,34.2-33.9c17.6,0,32,13.3,33.8,30.5C71.2,43.5,71.2,44.8,71.2,46z"/>
		</g>
	</g>
	<g id="XMLID_615_" class="st1">
		<g>
			<polygon class="st2" points="32.2,28.2 33.9,32.3 30.6,29.1 			"/>
		</g>
	</g>
	<g id="XMLID_614_" class="st1">
		<g>
			<path class="st2" d="M71.2,46c0,16.5-11.7,30.2-27.2,33.4l-24-24l2.5-4.6L16,44.3l1.2-12.5c0,0,8.6,7.9,8.8,8.2
				c0.2,0.2,9.9,2.2,9.9,2.2l-0.7-6.9l-1.3-3h0.4l-2.5-5.2l7.5,7.5l1.8-4.8l3.2-2.4l10,10l6.7-5.2l10.2,10.2
				C71.2,43.5,71.2,44.8,71.2,46z"/>
		</g>
	</g>
	<g id="XMLID_179_">
		<g id="XMLID_602_">
			<g id="XMLID_613_">
				<g>
					<polygon class="st3" points="32.7,46 41.7,46 41.7,47.3 41.7,49.5 42,51.3 42.2,55 42.2,56.5 32.2,56.5 32.2,55 32.4,51.3 
						32.7,49.5 32.7,47.3 					"/>
				</g>
			</g>
			<g id="XMLID_610_">
				<g id="XMLID_612_">
					<g>
						<rect x="32.7" y="47.3" class="st2" width="9.1" height="2.2"/>
					</g>
				</g>
				<g id="XMLID_3225_">
					<g>
						<polygon class="st2" points="32.4,51.3 32.2,55 42.2,55 42,51.3 						"/>
					</g>
				</g>
				<g id="XMLID_611_">
					<g>
						<path class="st2" d="M37.2,65.1c2.8,0,5-3.8,5-8.5h-10C32.2,61.2,34.5,65.1,37.2,65.1z"/>
					</g>
				</g>
			</g>
			<g id="XMLID_604_">
				<g>
					<g>
						<path class="st2" d="M41.8,39.8c-0.2-0.3-0.6-0.7-1-0.8l-2.5-1.2c-0.7-0.3-1.6-0.3-2.4,0L33.4,39c-0.4,0.2-0.7,0.5-1,0.8
							c-0.3,0.5-0.5,1.1-0.4,1.7l0.6,4.4h9l0.6-4.4C42.3,40.9,42.2,40.3,41.8,39.8z"/>
					</g>
				</g>
			</g>
			<g id="XMLID_603_">
				<g>
					<path class="st2" d="M30.6,29C30.6,29,30.7,29,30.6,29c0.1,0,0.2,0.1,0.3,0.1c0.1,0.1,0.2,0.1,0.4,0.2c0.1,0.1,0.3,0.2,0.5,0.3
						c0.2,0.1,0.4,0.3,0.5,0.5s0.3,0.3,0.5,0.6c0.2,0.2,0.3,0.4,0.5,0.7c0.2,0.2,0.3,0.5,0.5,0.7c0.1,0.2,0.3,0.5,0.4,0.8
						c0.1,0.3,0.2,0.5,0.3,0.8c0.1,0.2,0.1,0.3,0.2,0.5c-1.3,0.8-2.1,2.2-2.1,3.8c0,0.2,0,0.5,0.1,0.7c0.1,0.4,0.5,0.6,0.8,0.4l0,0
						l2.3-1.1c0.4-0.2,0.9-0.3,1.4-0.3s0.9,0.1,1.4,0.3l2.2,1.1l0,0c0.3,0.2,0.8,0,0.8-0.4c0-0.2,0.1-0.5,0.1-0.8
						c0-1.6-0.8-3-2.1-3.8c0.1-0.2,0.1-0.3,0.2-0.5c0.1-0.2,0.2-0.5,0.3-0.8s0.3-0.5,0.4-0.8c0.2-0.2,0.3-0.5,0.5-0.7
						s0.3-0.5,0.5-0.7s0.4-0.4,0.5-0.6s0.3-0.3,0.5-0.5c0.2-0.1,0.3-0.2,0.5-0.3c0.1-0.1,0.2-0.2,0.4-0.2c0.1,0,0.2-0.1,0.2-0.1h0.1
						c0.7-0.3,0.9-1.3,0.2-1.9c-0.2-0.2-0.4-0.2-0.7-0.2s-0.6,0.1-0.8,0.2l0,0c0,0,0,0-0.1,0.1s-0.2,0.1-0.3,0.2s-0.2,0.2-0.4,0.4
						s-0.3,0.4-0.5,0.5c-0.2,0.2-0.3,0.4-0.5,0.7c-0.2,0.2-0.3,0.5-0.5,0.8s-0.3,0.6-0.4,0.9c-0.1,0.3-0.2,0.6-0.4,0.9
						c-0.1,0.3-0.2,0.6-0.2,0.9C39,32.7,39,33,38.9,33.3c0,0.1,0,0.2,0,0.4c-0.6-0.2-1.2-0.4-1.9-0.4s-1.3,0.1-1.9,0.4
						c0-0.1,0-0.2,0-0.4c0-0.3-0.1-0.6-0.2-0.9c-0.1-0.3-0.2-0.6-0.2-0.9c-0.1-0.3-0.2-0.6-0.3-0.9S34.2,30,34,29.7
						c-0.1-0.3-0.3-0.5-0.5-0.8c-0.2-0.2-0.3-0.5-0.5-0.7s-0.3-0.4-0.5-0.5c-0.1-0.2-0.3-0.3-0.4-0.4c-0.1-0.1-0.2-0.2-0.3-0.2
						C31.7,27,31.7,27,31.7,27l0,0c-0.2-0.1-0.5-0.2-0.8-0.2c-0.2,0-0.5,0.1-0.7,0.2C29.7,27.8,29.9,28.7,30.6,29z"/>
				</g>
			</g>
		</g>
		<g id="XMLID_180_">
			<g id="XMLID_579_">
				<g>
					<g>
						<path class="st4" d="M35,46l-0.8-6.3l-16.9-7.9c-0.5-0.3-1.1-0.4-1.6-0.4c-0.8,0-1.5,0.2-2.1,0.7c-0.8,0.6-1.2,1.6-1.2,2.6
							v0.9c0,5,2.9,10.4,8.3,10.4H35L35,46z"/>
					</g>
				</g>
			</g>
			<g id="XMLID_192_">
				<g>
					<g>
						<path class="st4" d="M18.4,51.2l0.1,1c0.4,3.4,3.6,5.1,6.3,4.8c0.7-0.1,1.4-0.3,2-0.7l8.3-5.8l-0.2-4.8l-13.5,1.6
							C19.6,47.6,18.2,49.3,18.4,51.2z"/>
					</g>
				</g>
			</g>
			<g id="XMLID_186_">
				<g>
					<g>
						<path class="st4" d="M52.9,47.4l-13.5-1.6l-0.2,4.8l8.3,5.8c0.6,0.4,1.3,0.6,2,0.7c2.7,0.3,5.9-1.4,6.3-4.8l0.1-1
							C56.2,49.3,54.8,47.6,52.9,47.4z"/>
					</g>
				</g>
			</g>
			<g id="XMLID_181_">
				<g>
					<g>
						<path class="st4" d="M60.8,32.1c-0.6-0.5-1.3-0.7-2.1-0.7c-0.6,0-1.1,0.1-1.6,0.4l-16.9,7.9l-0.8,6.2h14.3
							c5.4,0,8.3-5.3,8.3-10.4v-0.9C62,33.7,61.6,32.8,60.8,32.1z"/>
					</g>
				</g>
			</g>
		</g>
	</g>
</g>
<g class="st5">
	<path class="st6" d="M6.9,88.8l-0.6,0.8c-0.5-0.5-1.1-0.8-1.8-0.8c-1.3,0-2.3,1-2.3,2.2s1,2.2,2.3,2.2c0.6,0,1.3-0.3,1.8-0.8
		l0.6,0.7c-0.6,0.6-1.6,1-2.5,1c-1.9,0-3.3-1.4-3.3-3.2c0-1.8,1.5-3.2,3.3-3.2C5.4,87.9,6.3,88.2,6.9,88.8z"/>
	<path class="st6" d="M10.9,92.3c-0.1,0-0.2,0-0.3,0H9.1v1.9H8v-6.3h2.6c1.6,0,2.6,0.8,2.6,2.2c0,1-0.5,1.7-1.3,2.1l1.4,2.1h-1.2
		L10.9,92.3z M10.6,91.4c1,0,1.5-0.4,1.5-1.3c0-0.8-0.6-1.2-1.5-1.2H9.1v2.5H10.6z"/>
	<path class="st6" d="M15.7,88.9v1.7h3.1v1h-3.1v1.8h3.6v1h-4.7v-6.5h4.5v1H15.7z"/>
	<path class="st6" d="M21.4,92.8l-0.6,1.4h-1.1l2.8-6.4h1.1l2.8,6.4h-1.1l-0.6-1.4H21.4z M23,89l-1.2,2.9h2.4L23,89z"/>
	<path class="st6" d="M29,88.9v5.4h-1.1v-5.4h-2v-1H31v1H29z"/>
	<path class="st6" d="M31.9,94.3v-6.4H33v6.4H31.9z"/>
	<path class="st6" d="M36.4,94.3l-2.6-6.4H35l2,5.2l2-5.2h1.1l-2.6,6.4H36.4z"/>
	<path class="st6" d="M42,88.9v1.7h3.1v1H42v1.8h3.6v1h-4.7v-6.5h4.5v1H42z"/>
	<path class="st6" d="M52,87.9c1.3,0,2.1,0.6,2.1,1.6c0,0.7-0.4,1.3-1.1,1.4c0.9,0.1,1.4,0.8,1.4,1.6c0,1.1-0.9,1.7-2.3,1.7h-2.8
		v-6.3C49.3,87.9,52,87.9,52,87.9z M50.3,90.5h1.6c0.7,0,1.1-0.3,1.1-0.9c0-0.5-0.4-0.8-1.1-0.8h-1.6V90.5z M50.3,93.3h1.6
		c0.8,0,1.3-0.3,1.3-0.9s-0.5-0.9-1.3-0.9h-1.6V93.3z"/>
	<path class="st6" d="M61.1,91.6c0,1.7-1,2.7-2.8,2.7s-2.8-1-2.8-2.7v-3.7h1.1v3.7c0,1.1,0.7,1.7,1.7,1.7s1.7-0.6,1.7-1.7v-3.7h1.1
		V91.6L61.1,91.6z"/>
	<path class="st6" d="M63.6,93.3h3.9v1h-5.4v-0.8l3.9-4.6h-3.8v-1h5.2v0.8L63.6,93.3z"/>
	<path class="st6" d="M69.6,93.3h3.9v1h-5.4v-0.8l3.9-4.6h-3.8v-1h5.2v0.8L69.6,93.3z"/>
</g>
<text transform="matrix(1 0 0 1 15.261 100.5212)" class="st6 st7 st8">READY. SET. CREATE</text>
<text transform="matrix(1 0 0 1 57.2943 100.5212)" class="st6 st7 st8">.</text>
</svg>
