<?xml version="1.0" encoding="utf-8"?>
<!-- Generator: Adobe Illustrator 19.2.1, SVG Export Plug-In . SVG Version: 6.00 Build 0)  -->
<svg version="1.1" id="Layer_1" xmlns="http://www.w3.org/2000/svg" xmlns:xlink="http://www.w3.org/1999/xlink" x="0px" y="0px"
	 viewBox="0 0 10.4 9.7" style="enable-background:new 0 0 10.4 9.7;" xml:space="preserve">
<style type="text/css">
	.st0{fill:#FFDE17;}
	.st1{fill:#FFFFFF;}
</style>
<g>
	<path class="st0" d="M9.7,3.7c0,0-0.9-0.6-0.9-0.6c-0.1-1.2-1.3-2.5-3-2.5c-1.6,0-3.1,1.3-3,3C3,4.8,4,6.9,2.2,7.1
		C1.5,7.2,1,6.1,1,6.1S0.9,8.9,4.3,9c1.9,0,4.1-0.3,4.5-4.8C8.9,4.2,9.7,3.7,9.7,3.7z"/>
	<circle class="st1" cx="6.5" cy="3.1" r="0.7"/>
	<g>
		<path class="st1" d="M4.7,7.6c-0.1,0-0.1,0-0.2,0H4.4c-0.1,0-0.1-0.1-0.1-0.1c0-0.1,0-0.1,0.1-0.1C4.5,7.2,4.9,6.8,5,5.7
			C5,5.6,5,5.6,5.1,5.6s0.1,0.1,0.1,0.1c-0.1,1-0.4,1.5-0.5,1.8l0,0c1.8,0,2.2-1.6,2.2-1.6c0-0.1,0.1-0.1,0.1-0.1C7,5.7,7,5.8,7,5.8
			C7,5.8,6.6,7.6,4.7,7.6z"/>
	</g>
</g>
</svg>
